<?xml version="1.0" encoding="utf-8" standalone="no"?>
<!DOCTYPE svg PUBLIC "-//W3C//DTD SVG 1.1//EN"
  "http://www.w3.org/Graphics/SVG/1.1/DTD/svg11.dtd">
<svg xmlns:xlink="http://www.w3.org/1999/xlink" width="558.334964pt" height="560.16pt" viewBox="0 0 558.334964 560.16" xmlns="http://www.w3.org/2000/svg" version="1.1">
 <metadata>
  <rdf:RDF xmlns:dc="http://purl.org/dc/elements/1.1/" xmlns:cc="http://creativecommons.org/ns#" xmlns:rdf="http://www.w3.org/1999/02/22-rdf-syntax-ns#">
   <cc:Work>
    <dc:type rdf:resource="http://purl.org/dc/dcmitype/StillImage"/>
    <dc:date>2022-05-13T13:32:16.230291</dc:date>
    <dc:format>image/svg+xml</dc:format>
    <dc:creator>
     <cc:Agent>
      <dc:title>Matplotlib v3.5.1, https://matplotlib.org/</dc:title>
     </cc:Agent>
    </dc:creator>
   </cc:Work>
  </rdf:RDF>
 </metadata>
 <defs>
  <style type="text/css">*{stroke-linejoin: round; stroke-linecap: butt}</style>
 </defs>
 <g id="figure_1">
  <g id="patch_1">
   <path d="M 0 560.16 
L 558.334964 560.16 
L 558.334964 0 
L 0 0 
z
" style="fill: #ffffff"/>
  </g>
  <g id="axes_1">
   <g id="patch_2">
    <path d="M 51.783546 224.524732 
L 551.134964 224.524732 
L 551.134964 35.752917 
L 51.783546 35.752917 
z
" style="fill: #dbdbdb"/>
   </g>
   <g id="matplotlib.axis_1">
    <g id="xtick_1">
     <g id="line2d_1">
      <path d="M 81.813985 224.524732 
L 81.813985 35.752917 
" clip-path="url(#pe7f97ef233)" style="fill: none; stroke: #ffffff"/>
     </g>
     <g id="line2d_2">
      <defs>
       <path id="m7c105ca8fb" d="M 0 0 
L 0 3.5 
" style="stroke: #505050; stroke-width: 0.8"/>
      </defs>
      <g>
       <use xlink:href="#m7c105ca8fb" x="81.813985" y="224.524732" style="fill: #505050; stroke: #505050; stroke-width: 0.8"/>
      </g>
     </g>
    </g>
    <g id="xtick_2">
     <g id="line2d_3">
      <path d="M 144.232913 224.524732 
L 144.232913 35.752917 
" clip-path="url(#pe7f97ef233)" style="fill: none; stroke: #ffffff"/>
     </g>
     <g id="line2d_4">
      <g>
       <use xlink:href="#m7c105ca8fb" x="144.232913" y="224.524732" style="fill: #505050; stroke: #505050; stroke-width: 0.8"/>
      </g>
     </g>
    </g>
    <g id="xtick_3">
     <g id="line2d_5">
      <path d="M 206.65184 224.524732 
L 206.65184 35.752917 
" clip-path="url(#pe7f97ef233)" style="fill: none; stroke: #ffffff"/>
     </g>
     <g id="line2d_6">
      <g>
       <use xlink:href="#m7c105ca8fb" x="206.65184" y="224.524732" style="fill: #505050; stroke: #505050; stroke-width: 0.8"/>
      </g>
     </g>
    </g>
    <g id="xtick_4">
     <g id="line2d_7">
      <path d="M 269.070767 224.524732 
L 269.070767 35.752917 
" clip-path="url(#pe7f97ef233)" style="fill: none; stroke: #ffffff"/>
     </g>
     <g id="line2d_8">
      <g>
       <use xlink:href="#m7c105ca8fb" x="269.070767" y="224.524732" style="fill: #505050; stroke: #505050; stroke-width: 0.8"/>
      </g>
     </g>
    </g>
    <g id="xtick_5">
     <g id="line2d_9">
      <path d="M 331.489694 224.524732 
L 331.489694 35.752917 
" clip-path="url(#pe7f97ef233)" style="fill: none; stroke: #ffffff"/>
     </g>
     <g id="line2d_10">
      <g>
       <use xlink:href="#m7c105ca8fb" x="331.489694" y="224.524732" style="fill: #505050; stroke: #505050; stroke-width: 0.8"/>
      </g>
     </g>
    </g>
    <g id="xtick_6">
     <g id="line2d_11">
      <path d="M 393.908622 224.524732 
L 393.908622 35.752917 
" clip-path="url(#pe7f97ef233)" style="fill: none; stroke: #ffffff"/>
     </g>
     <g id="line2d_12">
      <g>
       <use xlink:href="#m7c105ca8fb" x="393.908622" y="224.524732" style="fill: #505050; stroke: #505050; stroke-width: 0.8"/>
      </g>
     </g>
    </g>
    <g id="xtick_7">
     <g id="line2d_13">
      <path d="M 456.327549 224.524732 
L 456.327549 35.752917 
" clip-path="url(#pe7f97ef233)" style="fill: none; stroke: #ffffff"/>
     </g>
     <g id="line2d_14">
      <g>
       <use xlink:href="#m7c105ca8fb" x="456.327549" y="224.524732" style="fill: #505050; stroke: #505050; stroke-width: 0.8"/>
      </g>
     </g>
    </g>
    <g id="xtick_8">
     <g id="line2d_15">
      <path d="M 518.746476 224.524732 
L 518.746476 35.752917 
" clip-path="url(#pe7f97ef233)" style="fill: none; stroke: #ffffff"/>
     </g>
     <g id="line2d_16">
      <g>
       <use xlink:href="#m7c105ca8fb" x="518.746476" y="224.524732" style="fill: #505050; stroke: #505050; stroke-width: 0.8"/>
      </g>
     </g>
    </g>
   </g>
   <g id="matplotlib.axis_2">
    <g id="ytick_1">
     <g id="line2d_17">
      <path d="M 51.783546 224.524732 
L 551.134964 224.524732 
" clip-path="url(#pe7f97ef233)" style="fill: none; stroke: #ffffff"/>
     </g>
     <g id="line2d_18">
      <defs>
       <path id="mc176942120" d="M 0 0 
L -3.5 0 
" style="stroke: #505050; stroke-width: 0.8"/>
      </defs>
      <g>
       <use xlink:href="#mc176942120" x="51.783546" y="224.524732" style="fill: #505050; stroke: #505050; stroke-width: 0.8"/>
      </g>
     </g>
     <g id="text_1">
      <!-- $\mathdefault{0}$ -->
      <g style="fill: #505050" transform="translate(37.461075 229.36767)scale(0.14 -0.14)">
       <defs>
        <path id="HFBR17-30" d="M 947 4083 
C 762 3955 634 3782 538 3584 
C 307 3136 282 2611 282 2041 
C 282 1324 410 665 768 288 
C 1107 -65 1645 -154 2099 31 
C 2381 140 2586 377 2714 633 
C 2944 1088 2970 1632 2970 2195 
C 2970 2374 2963 2553 2944 2732 
C 2899 3161 2752 3635 2515 3897 
C 2125 4326 1427 4422 947 4083 
z
M 2234 3718 
C 2534 3398 2560 2784 2560 2201 
L 2560 1856 
C 2560 1561 2509 1177 2445 960 
C 2355 659 2208 441 1914 307 
C 1555 179 1184 300 979 582 
C 704 947 691 1593 691 2163 
C 691 2700 698 3296 960 3648 
C 1248 4031 1869 4095 2234 3718 
z
" transform="scale(0.015625)"/>
       </defs>
       <use xlink:href="#HFBR17-30" transform="scale(0.996264)"/>
      </g>
     </g>
    </g>
    <g id="ytick_2">
     <g id="line2d_19">
      <path d="M 51.783546 180.107834 
L 551.134964 180.107834 
" clip-path="url(#pe7f97ef233)" style="fill: none; stroke: #ffffff"/>
     </g>
     <g id="line2d_20">
      <g>
       <use xlink:href="#mc176942120" x="51.783546" y="180.107834" style="fill: #505050; stroke: #505050; stroke-width: 0.8"/>
      </g>
     </g>
     <g id="text_2">
      <!-- $\mathdefault{20}$ -->
      <g style="fill: #505050" transform="translate(30.138605 184.950773)scale(0.14 -0.14)">
       <defs>
        <path id="HFBR17-32" d="M 467 2937 
C 557 3296 710 3705 1075 3865 
C 1229 3929 1395 3942 1562 3929 
C 1875 3904 2182 3776 2374 3520 
C 2515 3328 2566 3091 2541 2860 
C 2464 2195 1811 1715 1389 1356 
C 1146 1152 454 499 454 499 
L 346 396 
C 288 339 282 339 282 224 
L 282 0 
L 2970 0 
L 2970 358 
L 653 358 
C 858 556 1709 1305 1824 1395 
C 2195 1696 2611 1996 2835 2432 
C 3085 2931 2976 3558 2554 3929 
C 2298 4153 1946 4262 1606 4275 
C 1293 4281 973 4217 723 4019 
C 531 3859 371 3622 282 3379 
C 262 3341 230 3277 237 3232 
C 243 3193 282 3161 301 3136 
C 352 3072 403 2995 467 2937 
z
" transform="scale(0.015625)"/>
       </defs>
       <use xlink:href="#HFBR17-32" transform="scale(0.996264)"/>
       <use xlink:href="#HFBR17-30" transform="translate(50.643218 0)scale(0.996264)"/>
      </g>
     </g>
    </g>
    <g id="ytick_3">
     <g id="line2d_21">
      <path d="M 51.783546 135.690937 
L 551.134964 135.690937 
" clip-path="url(#pe7f97ef233)" style="fill: none; stroke: #ffffff"/>
     </g>
     <g id="line2d_22">
      <g>
       <use xlink:href="#mc176942120" x="51.783546" y="135.690937" style="fill: #505050; stroke: #505050; stroke-width: 0.8"/>
      </g>
     </g>
     <g id="text_3">
      <!-- $\mathdefault{40}$ -->
      <g style="fill: #505050" transform="translate(30.138605 140.533875)scale(0.14 -0.14)">
       <defs>
        <path id="HFBR17-34" d="M 134 1152 
L 1984 1152 
L 1984 0 
L 2387 0 
L 2387 1152 
L 3117 1152 
L 3117 1491 
L 2387 1491 
L 2387 4230 
L 2042 4230 
C 1926 4230 1894 4236 1843 4140 
C 1587 3724 237 1644 192 1587 
C 141 1497 134 1504 134 1369 
L 134 1152 
z
M 2003 3884 
L 2003 1491 
L 550 1491 
C 595 1580 659 1664 717 1753 
C 1037 2246 1798 3417 1958 3782 
C 1978 3814 1984 3852 2003 3884 
z
" transform="scale(0.015625)"/>
       </defs>
       <use xlink:href="#HFBR17-34" transform="scale(0.996264)"/>
       <use xlink:href="#HFBR17-30" transform="translate(50.643218 0)scale(0.996264)"/>
      </g>
     </g>
    </g>
    <g id="ytick_4">
     <g id="line2d_23">
      <path d="M 51.783546 91.274039 
L 551.134964 91.274039 
" clip-path="url(#pe7f97ef233)" style="fill: none; stroke: #ffffff"/>
     </g>
     <g id="line2d_24">
      <g>
       <use xlink:href="#mc176942120" x="51.783546" y="91.274039" style="fill: #505050; stroke: #505050; stroke-width: 0.8"/>
      </g>
     </g>
     <g id="text_4">
      <!-- $\mathdefault{60}$ -->
      <g style="fill: #505050" transform="translate(30.138605 96.116978)scale(0.14 -0.14)">
       <defs>
        <path id="HFBR17-36" d="M 723 2099 
L 717 2099 
C 717 2683 819 3364 1318 3736 
C 1594 3935 1965 4038 2445 3922 
C 2547 3897 2643 3858 2739 3832 
L 2739 4057 
C 2739 4083 2746 4127 2726 4153 
C 2682 4211 2323 4268 2310 4268 
C 1754 4332 1389 4211 1050 3922 
C 640 3569 403 3049 326 2522 
C 256 2099 314 1418 397 1084 
C 531 589 787 153 1261 -13 
C 1542 -116 1888 -97 2157 31 
C 2374 134 2554 313 2694 506 
C 2918 814 2976 1187 2950 1566 
C 2938 1752 2912 1938 2835 2111 
C 2714 2388 2509 2677 2246 2805 
C 2125 2856 1997 2863 1869 2863 
C 1530 2856 1210 2709 973 2465 
C 870 2362 768 2233 723 2099 
z
M 1562 2542 
C 1805 2561 2061 2522 2246 2349 
C 2490 2118 2534 1790 2534 1476 
C 2534 1264 2541 1045 2477 846 
C 2438 744 2387 654 2330 570 
C 2189 384 2010 294 1715 256 
C 1427 236 1139 352 973 596 
C 870 737 819 911 787 1078 
C 749 1251 723 1431 736 1604 
C 768 2060 1088 2477 1562 2542 
z
" transform="scale(0.015625)"/>
       </defs>
       <use xlink:href="#HFBR17-36" transform="scale(0.996264)"/>
       <use xlink:href="#HFBR17-30" transform="translate(50.643218 0)scale(0.996264)"/>
      </g>
     </g>
    </g>
    <g id="ytick_5">
     <g id="line2d_25">
      <path d="M 51.783546 46.857142 
L 551.134964 46.857142 
" clip-path="url(#pe7f97ef233)" style="fill: none; stroke: #ffffff"/>
     </g>
     <g id="line2d_26">
      <g>
       <use xlink:href="#mc176942120" x="51.783546" y="46.857142" style="fill: #505050; stroke: #505050; stroke-width: 0.8"/>
      </g>
     </g>
     <g id="text_5">
      <!-- $\mathdefault{80}$ -->
      <g style="fill: #505050" transform="translate(30.138605 51.70008)scale(0.14 -0.14)">
       <defs>
        <path id="HFBR17-38" d="M 1197 2275 
L 1197 2269 
C 800 2153 467 1935 307 1563 
C 141 1172 256 698 538 390 
C 838 70 1248 -84 1683 -77 
C 2323 -65 2938 403 3014 1057 
C 3027 1153 3021 1256 3008 1352 
C 2893 1845 2528 2140 2054 2269 
C 2106 2288 2163 2301 2214 2320 
C 2483 2429 2707 2589 2848 2846 
C 3059 3256 2854 3737 2509 4000 
C 2163 4262 1696 4332 1274 4243 
C 768 4134 288 3705 320 3153 
C 333 2961 416 2801 512 2685 
C 659 2506 947 2313 1197 2275 
z
M 1523 3961 
C 1805 3980 2157 3929 2362 3711 
C 2605 3448 2618 2974 2374 2705 
C 2221 2538 1997 2455 1773 2435 
C 1459 2410 1101 2461 877 2705 
C 627 2980 646 3480 915 3737 
C 1082 3891 1306 3942 1523 3961 
z
M 1517 2108 
C 1818 2128 2144 2057 2362 1839 
C 2445 1749 2509 1640 2547 1525 
C 2656 1192 2605 768 2355 512 
C 2182 339 1946 275 1709 256 
C 1421 236 1088 307 883 525 
C 602 833 544 1467 877 1826 
C 1043 1999 1280 2089 1517 2108 
z
" transform="scale(0.015625)"/>
       </defs>
       <use xlink:href="#HFBR17-38" transform="scale(0.996264)"/>
       <use xlink:href="#HFBR17-30" transform="translate(50.643218 0)scale(0.996264)"/>
      </g>
     </g>
    </g>
    <g id="text_6">
     <!-- Precipitation [$\si{\milli \meter \per \hour}$] -->
     <g style="fill: #505050" transform="translate(20.954299 208.141838)rotate(-90)scale(0.168 -0.168)">
      <defs>
       <path id="CMSS17-50" d="M 2106 1856 
C 2874 1856 3501 2447 3501 3139 
C 3501 3818 2899 4416 2067 4416 
L 570 4416 
L 570 0 
L 1107 0 
L 1107 1856 
L 2106 1856 
z
M 1926 4057 
C 2669 4057 2995 3598 2995 3139 
C 2995 2711 2694 2227 1926 2227 
L 1094 2227 
L 1094 4057 
L 1926 4057 
z
" transform="scale(0.015625)"/>
       <path id="CMSS17-72" d="M 954 1369 
C 954 1974 1395 2379 1958 2392 
L 1958 2816 
C 1549 2809 1165 2604 934 2270 
L 934 2783 
L 480 2783 
L 480 0 
L 954 0 
L 954 1369 
z
" transform="scale(0.015625)"/>
       <path id="CMSS17-65" d="M 2502 1375 
C 2502 1587 2490 2001 2285 2347 
C 2061 2713 1696 2816 1421 2816 
C 755 2816 192 2184 192 1363 
C 192 579 774 -64 1510 -64 
C 1798 -64 2150 19 2470 249 
C 2470 275 2458 414 2451 421 
C 2451 433 2432 629 2432 655 
C 2125 408 1773 326 1517 326 
C 1107 326 666 667 646 1375 
L 2502 1375 
z
M 698 1728 
C 781 2086 1062 2425 1421 2425 
C 1517 2425 1965 2412 2080 1728 
L 698 1728 
z
" transform="scale(0.015625)"/>
       <path id="CMSS17-63" d="M 2464 2540 
C 2464 2585 2170 2713 2093 2739 
C 1882 2816 1613 2816 1542 2816 
C 710 2816 211 2092 211 1363 
C 211 595 768 -64 1517 -64 
C 1946 -64 2253 76 2502 243 
L 2464 665 
C 2189 454 1869 339 1523 339 
C 1024 339 698 774 698 1369 
C 698 1830 909 2412 1549 2412 
C 1901 2412 2099 2342 2394 2143 
L 2464 2540 
z
" transform="scale(0.015625)"/>
       <path id="CMSS17-69" d="M 979 4224 
L 442 4224 
L 442 3686 
L 979 3686 
L 979 4224 
z
M 947 2752 
L 474 2752 
L 474 0 
L 947 0 
L 947 2752 
z
" transform="scale(0.015625)"/>
       <path id="CMSS17-70" d="M 966 275 
C 1178 70 1466 -64 1773 -64 
C 2368 -64 2880 553 2880 1382 
C 2880 2147 2496 2816 1946 2816 
C 1626 2816 1242 2700 954 2470 
L 954 2764 
L 480 2764 
L 480 -1280 
L 966 -1280 
L 966 275 
z
M 966 2088 
C 1018 2166 1235 2412 1587 2412 
C 2035 2412 2394 1946 2394 1382 
C 2394 741 1958 326 1530 326 
C 1402 326 1267 358 1139 468 
C 966 624 966 721 966 812 
L 966 2088 
z
" transform="scale(0.015625)"/>
       <path id="CMSS17-74" d="M 1069 2380 
L 1901 2380 
L 1901 2752 
L 1069 2752 
L 1069 3520 
L 614 3520 
L 614 2752 
L 109 2752 
L 109 2380 
L 602 2380 
L 602 751 
C 602 384 685 -64 1107 -64 
C 1427 -64 1722 25 2003 172 
L 1901 551 
C 1747 416 1562 339 1363 339 
C 1082 339 1069 699 1069 860 
L 1069 2380 
z
" transform="scale(0.015625)"/>
       <path id="CMSS17-61" d="M 2406 1789 
C 2406 2399 1978 2816 1402 2816 
C 1120 2816 813 2764 461 2559 
L 499 2133 
C 659 2250 934 2438 1395 2438 
C 1722 2438 1920 2185 1920 1782 
L 1920 1536 
C 896 1504 256 1209 256 711 
C 256 452 416 -64 947 -64 
C 1043 -64 1562 -52 1933 224 
L 1933 -13 
L 2406 -13 
L 2406 1789 
z
M 1920 824 
C 1920 711 1920 559 1728 446 
C 1562 339 1350 326 1261 326 
C 941 326 723 503 723 723 
C 723 1165 1722 1209 1920 1216 
L 1920 824 
z
" transform="scale(0.015625)"/>
       <path id="CMSS17-6f" d="M 2829 1356 
C 2829 2175 2221 2816 1504 2816 
C 768 2816 173 2156 173 1356 
C 173 544 787 -64 1498 -64 
C 2227 -64 2829 563 2829 1356 
z
M 1504 339 
C 1050 339 659 710 659 1407 
C 659 2150 1114 2425 1498 2425 
C 1914 2425 2342 2124 2342 1407 
C 2342 684 1926 339 1504 339 
z
" transform="scale(0.015625)"/>
       <path id="CMSS17-6e" d="M 2618 1878 
C 2618 2283 2522 2816 1798 2816 
C 1389 2816 1120 2604 941 2386 
L 941 2783 
L 474 2783 
L 474 0 
L 960 0 
L 960 1556 
C 960 1962 1114 2425 1549 2425 
C 2112 2425 2131 2045 2131 1826 
L 2131 0 
L 2618 0 
L 2618 1878 
z
" transform="scale(0.015625)"/>
       <path id="CMSS17-5b" d="M 1613 -1600 
L 1613 -1210 
L 1062 -1210 
L 1062 4409 
L 1613 4409 
L 1613 4800 
L 595 4800 
L 595 -1600 
L 1613 -1600 
z
" transform="scale(0.015625)"/>
       <path id="HFBR17-6d" d="M 806 2370 
L 800 2370 
L 800 3008 
L 410 3008 
L 410 0 
L 819 0 
L 819 1402 
C 819 1714 800 2026 941 2312 
C 1062 2561 1274 2758 1651 2720 
C 1843 2707 2035 2656 2157 2497 
C 2272 2351 2278 2160 2278 1981 
L 2278 0 
L 2688 0 
L 2688 1402 
C 2688 1714 2669 2026 2810 2312 
C 2931 2561 3142 2758 3520 2720 
C 3712 2707 3904 2656 4026 2497 
C 4141 2351 4147 2160 4147 1981 
L 4147 0 
L 4557 0 
L 4557 1688 
C 4557 1994 4595 2338 4461 2618 
C 4326 2880 4109 3020 3757 3040 
C 3552 3059 3347 3027 3162 2931 
C 2938 2803 2771 2593 2669 2363 
C 2624 2567 2573 2707 2432 2841 
C 2285 2969 2086 3027 1894 3040 
C 1427 3078 1133 2886 934 2599 
C 883 2529 832 2453 806 2370 
z
" transform="scale(0.015625)"/>
       <path id="HFBR17-68" d="M 410 4416 
L 410 0 
L 819 0 
L 819 1393 
C 819 1705 800 2023 941 2316 
C 1011 2462 1120 2589 1267 2665 
C 1389 2723 1517 2729 1651 2716 
C 1843 2703 2029 2653 2150 2494 
C 2266 2347 2272 2157 2272 1978 
L 2272 0 
L 2682 0 
L 2682 1724 
C 2682 2042 2714 2392 2554 2678 
C 2426 2894 2202 2996 1965 3028 
C 1837 3041 1709 3047 1581 3028 
C 1350 2983 1152 2856 998 2684 
C 928 2602 845 2500 819 2392 
L 813 2392 
L 813 4416 
L 410 4416 
z
" transform="scale(0.015625)"/>
       <path id="HFBRSY10-0" d="M 627 1792 
C 512 1753 499 1580 627 1548 
C 659 1535 698 1542 736 1542 
L 4141 1542 
C 4218 1542 4339 1516 4403 1580 
C 4474 1651 4435 1779 4333 1798 
C 4256 1811 4166 1798 4090 1798 
L 730 1798 
C 698 1798 659 1804 627 1792 
z
" transform="scale(0.015625)"/>
       <path id="HFBR17-31" d="M 621 3840 
L 621 3520 
C 973 3520 1216 3584 1498 3705 
L 1498 320 
L 659 320 
L 659 0 
L 2752 0 
L 2752 320 
L 1914 320 
L 1914 4262 
C 1760 4262 1786 4224 1664 4134 
C 1402 3942 1037 3840 621 3840 
z
" transform="scale(0.015625)"/>
       <path id="CMSS17-5d" d="M 1146 4800 
L 128 4800 
L 128 4409 
L 678 4409 
L 678 -1210 
L 128 -1210 
L 128 -1600 
L 1146 -1600 
L 1146 4800 
z
" transform="scale(0.015625)"/>
      </defs>
      <use xlink:href="#CMSS17-50" transform="scale(0.996264)"/>
      <use xlink:href="#CMSS17-72" transform="translate(59.735586 0)scale(0.996264)"/>
      <use xlink:href="#CMSS17-65" transform="translate(91.645359 0)scale(0.996264)"/>
      <use xlink:href="#CMSS17-63" transform="translate(133.284181 0)scale(0.996264)"/>
      <use xlink:href="#CMSS17-69" transform="translate(174.923003 0)scale(0.996264)"/>
      <use xlink:href="#CMSS17-70" transform="translate(197.103726 0)scale(0.996264)"/>
      <use xlink:href="#CMSS17-69" transform="translate(245.308669 0)scale(0.996264)"/>
      <use xlink:href="#CMSS17-74" transform="translate(267.489392 0)scale(0.996264)"/>
      <use xlink:href="#CMSS17-61" transform="translate(301.320959 0)scale(0.996264)"/>
      <use xlink:href="#CMSS17-74" transform="translate(346.242879 0)scale(0.996264)"/>
      <use xlink:href="#CMSS17-69" transform="translate(380.074446 0)scale(0.996264)"/>
      <use xlink:href="#CMSS17-6f" transform="translate(402.255169 0)scale(0.996264)"/>
      <use xlink:href="#CMSS17-6e" transform="translate(449.098793 0)scale(0.996264)"/>
      <use xlink:href="#CMSS17-5b" transform="translate(528.532849 0)scale(0.996264)"/>
      <use xlink:href="#HFBR17-6d" transform="translate(555.718287 0)scale(0.996264)"/>
      <use xlink:href="#HFBR17-6d" transform="translate(632.928414 0)scale(0.996264)"/>
      <use xlink:href="#HFBR17-68" transform="translate(726.742945 0)scale(0.996264)"/>
      <use xlink:href="#HFBRSY10-0" transform="translate(774.895442 36.153639)scale(0.697382)"/>
      <use xlink:href="#HFBR17-31" transform="translate(829.136435 36.153639)scale(0.697382)"/>
      <use xlink:href="#CMSS17-5d" transform="translate(865.084653 0)scale(0.996264)"/>
     </g>
    </g>
   </g>
   <g id="line2d_27">
    <path d="M 51.783546 224.524732 
L 62.186701 224.524732 
L 72.589855 224.524732 
L 82.99301 224.524732 
L 93.396164 224.524732 
L 103.799319 224.524732 
L 114.202473 224.524732 
L 124.605628 224.524732 
L 135.008782 224.524732 
L 145.411937 224.524732 
L 155.815091 224.524732 
L 166.218246 224.524732 
L 176.6214 224.524732 
L 187.024555 224.524732 
L 197.42771 224.524732 
L 207.830864 222.748056 
L 218.234019 123.254206 
L 228.637173 196.986255 
L 239.040328 224.524732 
L 249.443482 39.750438 
L 259.846637 170.780286 
L 270.249791 121.033361 
L 280.652946 216.085521 
L 291.0561 221.859718 
L 301.459255 223.192225 
L 311.86241 224.524732 
L 322.265564 224.524732 
L 332.668719 220.527211 
L 343.071873 223.636394 
L 353.475028 224.524732 
L 363.878182 223.192225 
L 374.281337 224.524732 
L 384.684491 223.192225 
L 395.087646 223.636394 
L 405.4908 222.748056 
L 415.893955 221.859718 
L 426.29711 224.524732 
L 436.700264 224.524732 
L 447.103419 223.636394 
L 457.506573 224.524732 
L 467.909728 222.748056 
L 478.312882 218.306366 
L 488.716037 209.867156 
L 499.119191 211.643832 
L 509.522346 212.53217 
L 519.9255 220.97138 
L 530.328655 224.524732 
L 540.73181 224.524732 
" clip-path="url(#pe7f97ef233)" style="fill: none; stroke-dasharray: 7.4,3.2; stroke-dashoffset: 0; stroke: #696969; stroke-width: 2"/>
   </g>
   <g id="line2d_28">
    <path d="M 51.783546 224.524732 
L 62.186701 224.524732 
L 72.589855 224.524732 
L 82.99301 224.524732 
L 93.396164 224.524732 
L 103.799319 224.524732 
L 114.202473 224.524732 
L 124.605628 224.524732 
L 135.008782 224.255763 
L 145.411937 224.269523 
L 155.815091 224.524732 
L 166.218246 224.524732 
L 176.6214 224.524732 
L 187.024555 224.524732 
L 197.42771 221.25817 
L 207.830864 224.327323 
L 218.234019 222.63237 
L 228.637173 223.453003 
L 239.040328 217.89407 
L 249.443482 222.843779 
L 259.846637 222.886362 
L 270.249791 223.675875 
L 280.652946 224.524732 
L 291.0561 224.524732 
L 301.459255 224.524732 
L 311.86241 224.524732 
L 322.265564 224.524732 
L 332.668719 224.524732 
L 343.071873 224.524732 
L 353.475028 224.524732 
L 363.878182 224.524732 
L 374.281337 224.524732 
L 384.684491 224.524732 
L 395.087646 224.524732 
L 405.4908 224.524732 
L 415.893955 224.524732 
L 426.29711 224.524732 
L 436.700264 224.524732 
L 447.103419 224.524732 
L 457.506573 224.524732 
L 467.909728 224.524732 
L 478.312882 224.524732 
L 488.716037 224.524732 
L 499.119191 224.524732 
L 509.522346 224.524732 
L 519.9255 224.524732 
L 530.328655 224.524732 
L 540.73181 224.524732 
" clip-path="url(#pe7f97ef233)" style="fill: none; stroke: #5fd399; stroke-width: 2"/>
   </g>
   <g id="line2d_29">
    <path d="M 51.783546 224.524732 
L 62.186701 224.524732 
L 72.589855 224.524732 
L 82.99301 224.524732 
L 93.396164 224.524732 
L 103.799319 224.524732 
L 114.202473 224.524732 
L 124.605628 224.524732 
L 135.008782 224.524732 
L 145.411937 224.524732 
L 155.815091 224.524732 
L 166.218246 224.524732 
L 176.6214 224.524732 
L 187.024555 224.524732 
L 197.42771 224.524732 
L 207.830864 222.037341 
L 218.234019 223.247617 
L 228.637173 223.736925 
L 239.040328 224.524732 
L 249.443482 221.590908 
L 259.846637 223.30061 
L 270.249791 221.314202 
L 280.652946 216.205814 
L 291.0561 222.487179 
L 301.459255 224.524732 
L 311.86241 224.524732 
L 322.265564 224.524732 
L 332.668719 224.524732 
L 343.071873 224.524732 
L 353.475028 224.524732 
L 363.878182 224.524732 
L 374.281337 224.524732 
L 384.684491 224.524732 
L 395.087646 224.524732 
L 405.4908 224.524732 
L 415.893955 224.524732 
L 426.29711 224.524732 
L 436.700264 224.524732 
L 447.103419 224.524732 
L 457.506573 224.524732 
L 467.909728 224.524732 
L 478.312882 224.524732 
L 488.716037 224.524732 
L 499.119191 224.524732 
L 509.522346 224.524732 
L 519.9255 224.524732 
L 530.328655 224.524732 
L 540.73181 224.524732 
" clip-path="url(#pe7f97ef233)" style="fill: none; stroke: #1d4fa5; stroke-width: 2"/>
   </g>
   <g id="line2d_30">
    <path d="M 51.783546 224.524732 
L 62.186701 224.524732 
L 72.589855 224.524732 
L 82.99301 224.524732 
L 93.396164 224.524732 
L 103.799319 224.524732 
L 114.202473 224.524732 
L 124.605628 224.524732 
L 135.008782 224.524732 
L 145.411937 224.524732 
L 155.815091 224.437367 
L 166.218246 224.524732 
L 176.6214 224.524732 
L 187.024555 224.51008 
L 197.42771 222.286216 
L 207.830864 224.216463 
L 218.234019 223.76855 
L 228.637173 221.149002 
L 239.040328 213.157857 
L 249.443482 202.796965 
L 259.846637 202.340715 
L 270.249791 206.146655 
L 280.652946 219.830169 
L 291.0561 222.963626 
L 301.459255 224.348915 
L 311.86241 224.41481 
L 322.265564 224.490222 
L 332.668719 224.516254 
L 343.071873 224.524732 
L 353.475028 224.524732 
L 363.878182 224.524732 
L 374.281337 224.524732 
L 384.684491 224.524732 
L 395.087646 224.504629 
L 405.4908 224.457468 
L 415.893955 224.439164 
L 426.29711 224.524732 
L 436.700264 224.524732 
L 447.103419 224.524732 
L 457.506573 224.524732 
L 467.909728 224.524732 
L 478.312882 224.323798 
L 488.716037 223.695116 
L 499.119191 222.363442 
L 509.522346 221.776448 
L 519.9255 223.43651 
L 530.328655 224.213201 
L 540.73181 224.42294 
" clip-path="url(#pe7f97ef233)" style="fill: none; stroke: #fc646c; stroke-width: 2"/>
   </g>
   <g id="patch_3">
    <path d="M 51.783546 224.524732 
L 51.783546 35.752917 
" style="fill: none; stroke: #505050; stroke-width: 0.8; stroke-linejoin: miter; stroke-linecap: square"/>
   </g>
   <g id="patch_4">
    <path d="M 551.134964 224.524732 
L 551.134964 35.752917 
" style="fill: none; stroke: #505050; stroke-width: 0.8; stroke-linejoin: miter; stroke-linecap: square"/>
   </g>
   <g id="patch_5">
    <path d="M 51.783546 224.524732 
L 551.134964 224.524732 
" style="fill: none; stroke: #505050; stroke-width: 0.8; stroke-linejoin: miter; stroke-linecap: square"/>
   </g>
   <g id="patch_6">
    <path d="M 51.783546 35.752917 
L 551.134964 35.752917 
" style="fill: none; stroke: #505050; stroke-width: 0.8; stroke-linejoin: miter; stroke-linecap: square"/>
   </g>
   <g id="text_7">
    <!-- (a) Baseline products -->
    <g style="fill: #505050" transform="translate(51.783546 19.752917)scale(0.168 -0.168)">
     <defs>
      <path id="CMSS17-28" d="M 1613 4800 
C 1267 4447 474 3627 474 1603 
C 474 -428 1267 -1242 1613 -1600 
L 2003 -1600 
C 1216 -781 960 366 960 1596 
C 960 2820 1203 3973 2003 4800 
L 1613 4800 
z
" transform="scale(0.015625)"/>
      <path id="CMSS17-29" d="M 723 -1600 
C 1069 -1248 1862 -428 1862 1596 
C 1862 3627 1069 4440 723 4800 
L 333 4800 
C 1120 3979 1376 2833 1376 1603 
C 1376 379 1133 -774 333 -1600 
L 723 -1600 
z
" transform="scale(0.015625)"/>
      <path id="CMSS17-42" d="M 570 4416 
L 570 0 
L 2163 0 
C 3034 0 3667 575 3667 1200 
C 3667 1684 3251 2175 2502 2316 
C 3334 2559 3501 3039 3501 3311 
C 3501 3880 2874 4416 1997 4416 
L 570 4416 
z
M 1088 2496 
L 1088 4057 
L 1824 4057 
C 2483 4057 3002 3722 3002 3305 
C 3002 2925 2592 2496 1766 2496 
L 1088 2496 
z
M 1088 358 
L 1088 2105 
L 1939 2105 
C 2630 2105 3162 1678 3162 1206 
C 3162 772 2694 358 1984 358 
L 1088 358 
z
" transform="scale(0.015625)"/>
      <path id="CMSS17-73" d="M 2061 2623 
C 1683 2803 1389 2816 1197 2816 
C 742 2816 198 2655 198 2009 
C 198 1363 902 1222 1094 1183 
C 1389 1126 1715 1062 1715 742 
C 1715 339 1254 339 1171 339 
C 915 339 563 409 243 639 
L 166 211 
C 531 0 883 -64 1178 -64 
C 1965 -64 2163 416 2163 780 
C 2163 1094 1984 1305 1862 1401 
C 1651 1567 1574 1587 1050 1695 
C 960 1708 646 1779 646 2067 
C 646 2431 1050 2431 1139 2431 
C 1555 2431 1811 2303 1984 2207 
L 2061 2623 
z
" transform="scale(0.015625)"/>
      <path id="CMSS17-6c" d="M 947 4416 
L 474 4416 
L 474 0 
L 947 0 
L 947 4416 
z
" transform="scale(0.015625)"/>
      <path id="CMSS17-64" d="M 2611 4416 
L 2138 4416 
L 2138 2495 
C 1939 2662 1613 2816 1254 2816 
C 672 2816 211 2179 211 1375 
C 211 572 666 -64 1235 -64 
C 1677 -64 1971 172 2125 307 
L 2125 -13 
L 2611 -13 
L 2611 4416 
z
M 2125 851 
C 2125 760 2125 663 1926 488 
C 1798 378 1645 326 1498 326 
C 1152 326 698 585 698 1369 
C 698 2185 1210 2425 1562 2425 
C 1798 2425 1990 2308 2125 2114 
L 2125 851 
z
" transform="scale(0.015625)"/>
      <path id="CMSS17-75" d="M 2618 2752 
L 2131 2752 
L 2131 976 
C 2131 500 1786 307 1421 307 
C 998 307 960 448 960 712 
L 960 2752 
L 474 2752 
L 474 680 
C 474 179 646 -64 1088 -64 
C 1306 -64 1798 -13 2144 307 
L 2144 -13 
L 2618 -13 
L 2618 2752 
z
" transform="scale(0.015625)"/>
     </defs>
     <use xlink:href="#CMSS17-28" transform="scale(0.996264)"/>
     <use xlink:href="#CMSS17-61" transform="translate(36.433914 0)scale(0.996264)"/>
     <use xlink:href="#CMSS17-29" transform="translate(81.355835 0)scale(0.996264)"/>
     <use xlink:href="#CMSS17-42" transform="translate(149.018862 0)scale(0.996264)"/>
     <use xlink:href="#CMSS17-61" transform="translate(211.356902 0)scale(0.996264)"/>
     <use xlink:href="#CMSS17-73" transform="translate(256.278823 0)scale(0.996264)"/>
     <use xlink:href="#CMSS17-65" transform="translate(292.192365 0)scale(0.996264)"/>
     <use xlink:href="#CMSS17-6c" transform="translate(333.831187 0)scale(0.996264)"/>
     <use xlink:href="#CMSS17-69" transform="translate(356.01191 0)scale(0.996264)"/>
     <use xlink:href="#CMSS17-6e" transform="translate(378.192633 0)scale(0.996264)"/>
     <use xlink:href="#CMSS17-65" transform="translate(426.397576 0)scale(0.996264)"/>
     <use xlink:href="#CMSS17-70" transform="translate(499.265511 0)scale(0.996264)"/>
     <use xlink:href="#CMSS17-72" transform="translate(544.868 0)scale(0.996264)"/>
     <use xlink:href="#CMSS17-6f" transform="translate(576.777772 0)scale(0.996264)"/>
     <use xlink:href="#CMSS17-64" transform="translate(626.223835 0)scale(0.996264)"/>
     <use xlink:href="#CMSS17-75" transform="translate(674.428778 0)scale(0.996264)"/>
     <use xlink:href="#CMSS17-63" transform="translate(722.633721 0)scale(0.996264)"/>
     <use xlink:href="#CMSS17-74" transform="translate(764.272543 0)scale(0.996264)"/>
     <use xlink:href="#CMSS17-73" transform="translate(798.10411 0)scale(0.996264)"/>
    </g>
   </g>
   <g id="legend_1">
    <g id="line2d_31">
     <path d="M 427.059666 50.330417 
L 438.721666 50.330417 
L 450.383666 50.330417 
" style="fill: none; stroke-dasharray: 7.4,3.2; stroke-dashoffset: 0; stroke: #696969; stroke-width: 2"/>
    </g>
    <g id="text_8">
     <!-- Gauges -->
     <g transform="translate(459.713266 54.412117)scale(0.11662 -0.11662)">
      <defs>
       <path id="CMSS17-47" d="M 3610 1868 
L 2336 1868 
L 2336 1472 
L 3123 1472 
L 3123 473 
C 2874 403 2618 352 2362 352 
C 1466 352 934 1311 934 2220 
C 934 3123 1491 4070 2362 4070 
C 2854 4070 3130 3916 3469 3660 
L 3552 4172 
C 3130 4390 2867 4480 2387 4480 
C 1146 4480 397 3353 397 2201 
C 397 1100 1152 -64 2349 -64 
C 2797 -64 3213 51 3610 249 
L 3610 1868 
z
" transform="scale(0.015625)"/>
       <path id="CMSS17-67" d="M 2848 2816 
C 2483 2809 2170 2739 1914 2617 
C 1702 2783 1485 2816 1338 2816 
C 781 2816 358 2356 358 1824 
C 358 1481 550 1222 563 1209 
C 448 1049 384 876 384 684 
C 384 460 474 300 544 211 
C 211 6 166 -308 166 -429 
C 166 -896 749 -1280 1498 -1280 
C 2253 -1280 2835 -896 2835 -423 
C 2835 460 1856 467 1587 467 
L 1069 467 
C 973 467 717 467 717 793 
C 717 921 774 1004 781 1011 
C 877 940 1075 832 1338 832 
C 1869 832 2310 1279 2310 1824 
C 2310 2128 2170 2349 2112 2425 
L 2131 2425 
C 2150 2425 2419 2444 2515 2444 
C 2720 2444 2739 2438 2918 2419 
L 2848 2816 
z
M 1338 1184 
C 1120 1184 813 1317 813 1824 
C 813 2375 1165 2463 1331 2463 
C 1549 2463 1856 2330 1856 1824 
C 1856 1272 1504 1184 1338 1184 
z
M 1581 0 
C 1734 0 2381 0 2381 -436 
C 2381 -711 1984 -928 1504 -928 
C 1018 -928 621 -717 621 -429 
C 621 -397 621 0 1062 0 
L 1581 0 
z
" transform="scale(0.015625)"/>
      </defs>
      <use xlink:href="#CMSS17-47" transform="scale(0.996264)"/>
      <use xlink:href="#CMSS17-61" transform="translate(62.458226 0)scale(0.996264)"/>
      <use xlink:href="#CMSS17-75" transform="translate(107.380146 0)scale(0.996264)"/>
      <use xlink:href="#CMSS17-67" transform="translate(155.585089 0)scale(0.996264)"/>
      <use xlink:href="#CMSS17-65" transform="translate(202.428713 0)scale(0.996264)"/>
      <use xlink:href="#CMSS17-73" transform="translate(244.067535 0)scale(0.996264)"/>
     </g>
    </g>
    <g id="line2d_32">
     <path d="M 427.059666 66.583954 
L 438.721666 66.583954 
L 450.383666 66.583954 
" style="fill: none; stroke: #5fd399; stroke-width: 2"/>
    </g>
    <g id="text_9">
     <!-- PERSIANN CCS -->
     <g transform="translate(459.713266 70.665654)scale(0.11662 -0.11662)">
      <defs>
       <path id="CMSS17-45" d="M 1958 435 
C 1446 435 1216 435 1101 428 
L 1101 2105 
L 3085 2105 
L 3085 2496 
L 1101 2496 
L 1101 3993 
L 1926 3993 
C 2003 3993 2080 3987 2157 3987 
L 3251 3987 
L 3251 4403 
L 563 4403 
L 563 0 
L 3334 0 
L 3334 441 
L 1958 435 
z
" transform="scale(0.015625)"/>
       <path id="CMSS17-52" d="M 2522 2099 
L 2534 2105 
C 3533 2450 3539 3125 3539 3244 
C 3539 3838 2925 4416 2003 4416 
L 570 4416 
L 570 0 
L 1094 0 
L 1094 2041 
L 2035 2041 
L 3168 0 
L 3706 0 
L 2522 2099 
z
M 1094 2432 
L 1094 4057 
L 1933 4057 
C 2746 4057 3034 3607 3034 3244 
C 3034 2907 2778 2432 1933 2432 
L 1094 2432 
z
" transform="scale(0.015625)"/>
       <path id="CMSS17-53" d="M 2797 4230 
C 2515 4396 2208 4544 1690 4544 
C 864 4544 333 3934 333 3309 
C 333 3064 403 2787 653 2504 
C 902 2220 1184 2143 1542 2053 
C 1690 2014 1939 1943 1984 1924 
C 2342 1782 2515 1454 2515 1144 
C 2515 738 2202 307 1645 307 
C 1453 307 890 339 358 829 
L 269 320 
C 794 -64 1363 -128 1651 -128 
C 2438 -128 3002 494 3002 1202 
C 3002 1460 2925 1789 2656 2092 
C 2394 2381 2163 2446 1638 2588 
C 1338 2665 1146 2717 986 2916 
C 877 3058 819 3193 819 3367 
C 819 3728 1126 4121 1690 4121 
C 1971 4121 2336 4063 2707 3715 
L 2797 4230 
z
" transform="scale(0.015625)"/>
       <path id="CMSS17-49" d="M 1094 4416 
L 557 4416 
L 557 0 
L 1094 0 
L 1094 4416 
z
" transform="scale(0.015625)"/>
       <path id="CMSS17-41" d="M 2272 4416 
L 1722 4416 
L 166 0 
L 653 0 
L 1101 1280 
L 2816 1280 
L 3270 0 
L 3827 0 
L 2272 4416 
z
M 2694 1638 
L 1222 1638 
C 1530 2530 1914 3638 1958 3924 
L 1965 3924 
C 2010 3663 2138 3281 2246 2956 
L 2694 1638 
z
" transform="scale(0.015625)"/>
       <path id="CMSS17-4e" d="M 1466 4179 
L 1350 4416 
L 563 4416 
L 563 0 
L 1062 0 
L 1062 3925 
L 1069 3931 
C 1114 3817 1139 3759 1402 3193 
L 2771 236 
L 2886 0 
L 3674 0 
L 3674 4416 
L 3174 4416 
L 3174 490 
L 3168 484 
C 3123 598 3098 655 2835 1222 
L 1466 4179 
z
" transform="scale(0.015625)"/>
       <path id="CMSS17-43" d="M 3501 705 
C 3072 416 2874 332 2355 332 
C 1459 332 934 1304 934 2191 
C 934 3137 1472 4070 2381 4070 
C 2790 4070 3059 3954 3386 3748 
L 3475 4255 
C 3168 4409 2778 4480 2387 4480 
C 1158 4480 397 3343 397 2191 
C 397 924 1299 -77 2323 -77 
C 2874 -77 3066 -32 3539 268 
L 3501 705 
z
" transform="scale(0.015625)"/>
      </defs>
      <use xlink:href="#CMSS17-50" transform="scale(0.996264)"/>
      <use xlink:href="#CMSS17-45" transform="translate(59.735586 0)scale(0.996264)"/>
      <use xlink:href="#CMSS17-52" transform="translate(115.6276 0)scale(0.996264)"/>
      <use xlink:href="#CMSS17-53" transform="translate(176.043754 0)scale(0.996264)"/>
      <use xlink:href="#CMSS17-49" transform="translate(228.092271 0)scale(0.996264)"/>
      <use xlink:href="#CMSS17-41" transform="translate(253.876196 0)scale(0.996264)"/>
      <use xlink:href="#CMSS17-4e" transform="translate(316.094051 0)scale(0.996264)"/>
      <use xlink:href="#CMSS17-4e" transform="translate(382.15557 0)scale(0.996264)"/>
      <use xlink:href="#CMSS17-43" transform="translate(479.446202 0)scale(0.996264)"/>
      <use xlink:href="#CMSS17-43" transform="translate(539.301974 0)scale(0.996264)"/>
      <use xlink:href="#CMSS17-53" transform="translate(599.157745 0)scale(0.996264)"/>
     </g>
    </g>
    <g id="line2d_33">
     <path d="M 427.059666 82.837491 
L 438.721666 82.837491 
L 450.383666 82.837491 
" style="fill: none; stroke: #1d4fa5; stroke-width: 2"/>
    </g>
    <g id="text_10">
     <!-- HYDRO -->
     <g transform="translate(459.713266 86.919191)scale(0.11662 -0.11662)">
      <defs>
       <path id="CMSS17-48" d="M 3674 4416 
L 3136 4416 
L 3136 2496 
L 1101 2496 
L 1101 4416 
L 563 4416 
L 563 0 
L 1101 0 
L 1101 2105 
L 3136 2105 
L 3136 0 
L 3674 0 
L 3674 4416 
z
" transform="scale(0.015625)"/>
       <path id="CMSS17-59" d="M 3974 4416 
L 3424 4416 
L 2432 2875 
C 2355 2754 2138 2424 2035 2239 
L 1722 2742 
L 646 4416 
L 19 4416 
L 1734 1769 
L 1734 0 
L 2259 0 
L 2259 1762 
L 3974 4416 
z
" transform="scale(0.015625)"/>
       <path id="CMSS17-44" d="M 570 4416 
L 570 0 
L 2144 0 
C 3194 0 4000 981 4000 2169 
C 4000 3396 3194 4416 2144 4416 
L 570 4416 
z
M 1094 358 
L 1094 4057 
L 2003 4057 
C 2861 4057 3475 3275 3475 2169 
C 3475 1108 2867 358 2003 358 
L 1094 358 
z
" transform="scale(0.015625)"/>
       <path id="CMSS17-4f" d="M 4096 2201 
C 4096 3541 3219 4544 2214 4544 
C 1210 4544 333 3535 333 2201 
C 333 855 1222 -128 2214 -128 
C 3206 -128 4096 855 4096 2201 
z
M 2214 275 
C 1510 275 870 1067 870 2285 
C 870 3470 1549 4140 2214 4140 
C 2880 4140 3558 3470 3558 2285 
C 3558 1061 2912 275 2214 275 
z
" transform="scale(0.015625)"/>
      </defs>
      <use xlink:href="#CMSS17-48" transform="scale(0.996264)"/>
      <use xlink:href="#CMSS17-59" transform="translate(66.061519 0)scale(0.996264)"/>
      <use xlink:href="#CMSS17-44" transform="translate(128.279374 0)scale(0.996264)"/>
      <use xlink:href="#CMSS17-52" transform="translate(195.822216 0)scale(0.996264)"/>
      <use xlink:href="#CMSS17-4f" transform="translate(256.238371 0)scale(0.996264)"/>
     </g>
    </g>
    <g id="line2d_34">
     <path d="M 427.059666 99.091028 
L 438.721666 99.091028 
L 450.383666 99.091028 
" style="fill: none; stroke: #fc646c; stroke-width: 2"/>
    </g>
    <g id="text_11">
     <!-- IMERG -->
     <g transform="translate(459.713266 103.172728)scale(0.11662 -0.11662)">
      <defs>
       <path id="CMSS17-4d" d="M 3194 2373 
L 2886 1476 
C 2835 1311 2662 795 2624 592 
L 2618 592 
C 2598 719 2560 853 2458 1177 
C 2400 1368 2336 1565 2272 1743 
L 1325 4416 
L 576 4416 
L 576 0 
L 1075 0 
L 1075 3899 
L 1082 3899 
C 1082 3893 1139 3613 1530 2500 
L 2374 102 
L 2848 102 
L 3610 2233 
C 3661 2379 3821 2843 3891 3066 
C 3955 3257 4115 3728 4154 3912 
L 4160 3912 
L 4160 0 
L 4666 0 
L 4666 4416 
L 3923 4416 
L 3194 2373 
z
" transform="scale(0.015625)"/>
      </defs>
      <use xlink:href="#CMSS17-49" transform="scale(0.996264)"/>
      <use xlink:href="#CMSS17-4d" transform="translate(25.783926 0)scale(0.996264)"/>
      <use xlink:href="#CMSS17-45" transform="translate(107.459955 0)scale(0.996264)"/>
      <use xlink:href="#CMSS17-52" transform="translate(163.351969 0)scale(0.996264)"/>
      <use xlink:href="#CMSS17-47" transform="translate(223.768124 0)scale(0.996264)"/>
     </g>
    </g>
   </g>
  </g>
  <g id="axes_2">
   <g id="patch_7">
    <path d="M 51.783546 464.52443 
L 551.134964 464.52443 
L 551.134964 275.752616 
L 51.783546 275.752616 
z
" style="fill: #dbdbdb"/>
   </g>
   <g id="matplotlib.axis_3">
    <g id="xtick_9">
     <g id="line2d_35">
      <path d="M 81.813985 464.52443 
L 81.813985 275.752616 
" clip-path="url(#pd7710ba045)" style="fill: none; stroke: #ffffff"/>
     </g>
     <g id="line2d_36">
      <g>
       <use xlink:href="#m7c105ca8fb" x="81.813985" y="464.52443" style="fill: #505050; stroke: #505050; stroke-width: 0.8"/>
      </g>
     </g>
     <g id="text_12">
      <!-- $\mathdefault{12/22\;00{:}00}$ -->
      <g style="fill: #505050" transform="translate(58.431832 530.890831)rotate(-45)scale(0.14 -0.14)">
       <defs>
        <path id="HFBRMI10-3d" d="M 2675 4793 
C 2605 4774 2586 4717 2560 4653 
L 2502 4493 
L 416 -1114 
C 384 -1197 314 -1319 403 -1389 
C 429 -1415 467 -1421 506 -1421 
C 570 -1409 602 -1357 621 -1300 
L 2458 3635 
L 2810 4582 
C 2822 4614 2835 4653 2835 4691 
C 2822 4761 2746 4819 2675 4793 
z
" transform="scale(0.015625)"/>
        <path id="HFBR17-3a" d="M 634 3008 
L 634 2508 
L 1133 2508 
L 1133 3008 
L 634 3008 
z
M 634 499 
L 634 0 
L 1133 0 
L 1133 499 
L 634 499 
z
" transform="scale(0.015625)"/>
       </defs>
       <use xlink:href="#HFBR17-31" transform="scale(0.996264)"/>
       <use xlink:href="#HFBR17-32" transform="translate(50.643218 0)scale(0.996264)"/>
       <use xlink:href="#HFBRMI10-3d" transform="translate(101.286436 0)scale(0.996264)"/>
       <use xlink:href="#HFBR17-32" transform="translate(151.099819 0)scale(0.996264)"/>
       <use xlink:href="#HFBR17-32" transform="translate(201.743036 0)scale(0.996264)"/>
       <use xlink:href="#HFBR17-30" transform="translate(280.060263 0)scale(0.996264)"/>
       <use xlink:href="#HFBR17-30" transform="translate(330.703481 0)scale(0.996264)"/>
       <use xlink:href="#HFBR17-3a" transform="translate(381.346699 0)scale(0.996264)"/>
       <use xlink:href="#HFBR17-30" transform="translate(408.743822 0)scale(0.996264)"/>
       <use xlink:href="#HFBR17-30" transform="translate(459.38704 0)scale(0.996264)"/>
      </g>
     </g>
    </g>
    <g id="xtick_10">
     <g id="line2d_37">
      <path d="M 144.232913 464.52443 
L 144.232913 275.752616 
" clip-path="url(#pd7710ba045)" style="fill: none; stroke: #ffffff"/>
     </g>
     <g id="line2d_38">
      <g>
       <use xlink:href="#m7c105ca8fb" x="144.232913" y="464.52443" style="fill: #505050; stroke: #505050; stroke-width: 0.8"/>
      </g>
     </g>
     <g id="text_13">
      <!-- $\mathdefault{12/22\;06{:}00}$ -->
      <g style="fill: #505050" transform="translate(120.85076 530.890831)rotate(-45)scale(0.14 -0.14)">
       <use xlink:href="#HFBR17-31" transform="scale(0.996264)"/>
       <use xlink:href="#HFBR17-32" transform="translate(50.643218 0)scale(0.996264)"/>
       <use xlink:href="#HFBRMI10-3d" transform="translate(101.286436 0)scale(0.996264)"/>
       <use xlink:href="#HFBR17-32" transform="translate(151.099819 0)scale(0.996264)"/>
       <use xlink:href="#HFBR17-32" transform="translate(201.743036 0)scale(0.996264)"/>
       <use xlink:href="#HFBR17-30" transform="translate(280.060263 0)scale(0.996264)"/>
       <use xlink:href="#HFBR17-36" transform="translate(330.703481 0)scale(0.996264)"/>
       <use xlink:href="#HFBR17-3a" transform="translate(381.346699 0)scale(0.996264)"/>
       <use xlink:href="#HFBR17-30" transform="translate(408.743822 0)scale(0.996264)"/>
       <use xlink:href="#HFBR17-30" transform="translate(459.38704 0)scale(0.996264)"/>
      </g>
     </g>
    </g>
    <g id="xtick_11">
     <g id="line2d_39">
      <path d="M 206.65184 464.52443 
L 206.65184 275.752616 
" clip-path="url(#pd7710ba045)" style="fill: none; stroke: #ffffff"/>
     </g>
     <g id="line2d_40">
      <g>
       <use xlink:href="#m7c105ca8fb" x="206.65184" y="464.52443" style="fill: #505050; stroke: #505050; stroke-width: 0.8"/>
      </g>
     </g>
     <g id="text_14">
      <!-- $\mathdefault{12/22\;12{:}00}$ -->
      <g style="fill: #505050" transform="translate(183.269687 530.890831)rotate(-45)scale(0.14 -0.14)">
       <use xlink:href="#HFBR17-31" transform="scale(0.996264)"/>
       <use xlink:href="#HFBR17-32" transform="translate(50.643218 0)scale(0.996264)"/>
       <use xlink:href="#HFBRMI10-3d" transform="translate(101.286436 0)scale(0.996264)"/>
       <use xlink:href="#HFBR17-32" transform="translate(151.099819 0)scale(0.996264)"/>
       <use xlink:href="#HFBR17-32" transform="translate(201.743036 0)scale(0.996264)"/>
       <use xlink:href="#HFBR17-31" transform="translate(280.060263 0)scale(0.996264)"/>
       <use xlink:href="#HFBR17-32" transform="translate(330.703481 0)scale(0.996264)"/>
       <use xlink:href="#HFBR17-3a" transform="translate(381.346699 0)scale(0.996264)"/>
       <use xlink:href="#HFBR17-30" transform="translate(408.743822 0)scale(0.996264)"/>
       <use xlink:href="#HFBR17-30" transform="translate(459.38704 0)scale(0.996264)"/>
      </g>
     </g>
    </g>
    <g id="xtick_12">
     <g id="line2d_41">
      <path d="M 269.070767 464.52443 
L 269.070767 275.752616 
" clip-path="url(#pd7710ba045)" style="fill: none; stroke: #ffffff"/>
     </g>
     <g id="line2d_42">
      <g>
       <use xlink:href="#m7c105ca8fb" x="269.070767" y="464.52443" style="fill: #505050; stroke: #505050; stroke-width: 0.8"/>
      </g>
     </g>
     <g id="text_15">
      <!-- $\mathdefault{12/22\;18{:}00}$ -->
      <g style="fill: #505050" transform="translate(245.688614 530.890831)rotate(-45)scale(0.14 -0.14)">
       <use xlink:href="#HFBR17-31" transform="scale(0.996264)"/>
       <use xlink:href="#HFBR17-32" transform="translate(50.643218 0)scale(0.996264)"/>
       <use xlink:href="#HFBRMI10-3d" transform="translate(101.286436 0)scale(0.996264)"/>
       <use xlink:href="#HFBR17-32" transform="translate(151.099819 0)scale(0.996264)"/>
       <use xlink:href="#HFBR17-32" transform="translate(201.743036 0)scale(0.996264)"/>
       <use xlink:href="#HFBR17-31" transform="translate(280.060263 0)scale(0.996264)"/>
       <use xlink:href="#HFBR17-38" transform="translate(330.703481 0)scale(0.996264)"/>
       <use xlink:href="#HFBR17-3a" transform="translate(381.346699 0)scale(0.996264)"/>
       <use xlink:href="#HFBR17-30" transform="translate(408.743822 0)scale(0.996264)"/>
       <use xlink:href="#HFBR17-30" transform="translate(459.38704 0)scale(0.996264)"/>
      </g>
     </g>
    </g>
    <g id="xtick_13">
     <g id="line2d_43">
      <path d="M 331.489694 464.52443 
L 331.489694 275.752616 
" clip-path="url(#pd7710ba045)" style="fill: none; stroke: #ffffff"/>
     </g>
     <g id="line2d_44">
      <g>
       <use xlink:href="#m7c105ca8fb" x="331.489694" y="464.52443" style="fill: #505050; stroke: #505050; stroke-width: 0.8"/>
      </g>
     </g>
     <g id="text_16">
      <!-- $\mathdefault{12/23\;00{:}00}$ -->
      <g style="fill: #505050" transform="translate(308.107541 530.890831)rotate(-45)scale(0.14 -0.14)">
       <defs>
        <path id="HFBR17-33" d="M 518 3235 
C 570 3312 608 3396 666 3473 
C 800 3653 986 3794 1197 3877 
C 1530 4012 2016 4025 2278 3730 
C 2509 3466 2413 3055 2202 2811 
C 2010 2587 1760 2477 1389 2458 
C 1280 2452 1178 2439 1069 2433 
L 1069 2111 
L 1510 2111 
C 1882 2111 2125 2054 2330 1835 
C 2682 1463 2650 801 2259 461 
C 2061 294 1786 243 1530 262 
C 1030 300 589 564 294 975 
C 262 911 262 821 250 750 
C 230 647 230 647 294 564 
C 480 313 845 83 1133 -1 
C 1645 -154 2240 -84 2637 307 
C 2714 384 2784 467 2842 557 
C 3078 930 3085 1418 2822 1777 
C 2714 1925 2573 2041 2413 2131 
C 2304 2195 2176 2259 2048 2272 
C 2419 2445 2765 2741 2829 3222 
C 2886 3672 2624 3948 2355 4108 
C 1939 4352 1395 4339 966 4127 
C 768 4031 589 3890 454 3717 
C 429 3685 333 3576 333 3524 
C 333 3492 358 3460 378 3434 
L 518 3235 
z
" transform="scale(0.015625)"/>
       </defs>
       <use xlink:href="#HFBR17-31" transform="scale(0.996264)"/>
       <use xlink:href="#HFBR17-32" transform="translate(50.643218 0)scale(0.996264)"/>
       <use xlink:href="#HFBRMI10-3d" transform="translate(101.286436 0)scale(0.996264)"/>
       <use xlink:href="#HFBR17-32" transform="translate(151.099819 0)scale(0.996264)"/>
       <use xlink:href="#HFBR17-33" transform="translate(201.743036 0)scale(0.996264)"/>
       <use xlink:href="#HFBR17-30" transform="translate(280.060263 0)scale(0.996264)"/>
       <use xlink:href="#HFBR17-30" transform="translate(330.703481 0)scale(0.996264)"/>
       <use xlink:href="#HFBR17-3a" transform="translate(381.346699 0)scale(0.996264)"/>
       <use xlink:href="#HFBR17-30" transform="translate(408.743822 0)scale(0.996264)"/>
       <use xlink:href="#HFBR17-30" transform="translate(459.38704 0)scale(0.996264)"/>
      </g>
     </g>
    </g>
    <g id="xtick_14">
     <g id="line2d_45">
      <path d="M 393.908622 464.52443 
L 393.908622 275.752616 
" clip-path="url(#pd7710ba045)" style="fill: none; stroke: #ffffff"/>
     </g>
     <g id="line2d_46">
      <g>
       <use xlink:href="#m7c105ca8fb" x="393.908622" y="464.52443" style="fill: #505050; stroke: #505050; stroke-width: 0.8"/>
      </g>
     </g>
     <g id="text_17">
      <!-- $\mathdefault{12/23\;06{:}00}$ -->
      <g style="fill: #505050" transform="translate(370.526469 530.890831)rotate(-45)scale(0.14 -0.14)">
       <use xlink:href="#HFBR17-31" transform="scale(0.996264)"/>
       <use xlink:href="#HFBR17-32" transform="translate(50.643218 0)scale(0.996264)"/>
       <use xlink:href="#HFBRMI10-3d" transform="translate(101.286436 0)scale(0.996264)"/>
       <use xlink:href="#HFBR17-32" transform="translate(151.099819 0)scale(0.996264)"/>
       <use xlink:href="#HFBR17-33" transform="translate(201.743036 0)scale(0.996264)"/>
       <use xlink:href="#HFBR17-30" transform="translate(280.060263 0)scale(0.996264)"/>
       <use xlink:href="#HFBR17-36" transform="translate(330.703481 0)scale(0.996264)"/>
       <use xlink:href="#HFBR17-3a" transform="translate(381.346699 0)scale(0.996264)"/>
       <use xlink:href="#HFBR17-30" transform="translate(408.743822 0)scale(0.996264)"/>
       <use xlink:href="#HFBR17-30" transform="translate(459.38704 0)scale(0.996264)"/>
      </g>
     </g>
    </g>
    <g id="xtick_15">
     <g id="line2d_47">
      <path d="M 456.327549 464.52443 
L 456.327549 275.752616 
" clip-path="url(#pd7710ba045)" style="fill: none; stroke: #ffffff"/>
     </g>
     <g id="line2d_48">
      <g>
       <use xlink:href="#m7c105ca8fb" x="456.327549" y="464.52443" style="fill: #505050; stroke: #505050; stroke-width: 0.8"/>
      </g>
     </g>
     <g id="text_18">
      <!-- $\mathdefault{12/23\;12{:}00}$ -->
      <g style="fill: #505050" transform="translate(432.945396 530.890831)rotate(-45)scale(0.14 -0.14)">
       <use xlink:href="#HFBR17-31" transform="scale(0.996264)"/>
       <use xlink:href="#HFBR17-32" transform="translate(50.643218 0)scale(0.996264)"/>
       <use xlink:href="#HFBRMI10-3d" transform="translate(101.286436 0)scale(0.996264)"/>
       <use xlink:href="#HFBR17-32" transform="translate(151.099819 0)scale(0.996264)"/>
       <use xlink:href="#HFBR17-33" transform="translate(201.743036 0)scale(0.996264)"/>
       <use xlink:href="#HFBR17-31" transform="translate(280.060263 0)scale(0.996264)"/>
       <use xlink:href="#HFBR17-32" transform="translate(330.703481 0)scale(0.996264)"/>
       <use xlink:href="#HFBR17-3a" transform="translate(381.346699 0)scale(0.996264)"/>
       <use xlink:href="#HFBR17-30" transform="translate(408.743822 0)scale(0.996264)"/>
       <use xlink:href="#HFBR17-30" transform="translate(459.38704 0)scale(0.996264)"/>
      </g>
     </g>
    </g>
    <g id="xtick_16">
     <g id="line2d_49">
      <path d="M 518.746476 464.52443 
L 518.746476 275.752616 
" clip-path="url(#pd7710ba045)" style="fill: none; stroke: #ffffff"/>
     </g>
     <g id="line2d_50">
      <g>
       <use xlink:href="#m7c105ca8fb" x="518.746476" y="464.52443" style="fill: #505050; stroke: #505050; stroke-width: 0.8"/>
      </g>
     </g>
     <g id="text_19">
      <!-- $\mathdefault{12/23\;18{:}00}$ -->
      <g style="fill: #505050" transform="translate(495.364323 530.890831)rotate(-45)scale(0.14 -0.14)">
       <use xlink:href="#HFBR17-31" transform="scale(0.996264)"/>
       <use xlink:href="#HFBR17-32" transform="translate(50.643218 0)scale(0.996264)"/>
       <use xlink:href="#HFBRMI10-3d" transform="translate(101.286436 0)scale(0.996264)"/>
       <use xlink:href="#HFBR17-32" transform="translate(151.099819 0)scale(0.996264)"/>
       <use xlink:href="#HFBR17-33" transform="translate(201.743036 0)scale(0.996264)"/>
       <use xlink:href="#HFBR17-31" transform="translate(280.060263 0)scale(0.996264)"/>
       <use xlink:href="#HFBR17-38" transform="translate(330.703481 0)scale(0.996264)"/>
       <use xlink:href="#HFBR17-3a" transform="translate(381.346699 0)scale(0.996264)"/>
       <use xlink:href="#HFBR17-30" transform="translate(408.743822 0)scale(0.996264)"/>
       <use xlink:href="#HFBR17-30" transform="translate(459.38704 0)scale(0.996264)"/>
      </g>
     </g>
    </g>
    <g id="text_20">
     <!-- Local time -->
     <g style="fill: #505050" transform="translate(265.47656 549.705557)scale(0.168 -0.168)">
      <defs>
       <path id="CMSS17-4c" d="M 1670 416 
C 1594 416 1517 409 1440 409 
L 1101 409 
L 1101 4416 
L 563 4416 
L 563 0 
L 3002 0 
L 3002 416 
L 1670 416 
z
" transform="scale(0.015625)"/>
       <path id="CMSS17-6d" d="M 4288 1878 
C 4288 2309 4179 2816 3462 2816 
C 2982 2816 2694 2515 2566 2328 
C 2451 2668 2182 2816 1798 2816 
C 1363 2816 1088 2566 941 2386 
L 941 2783 
L 474 2783 
L 474 0 
L 960 0 
L 960 1556 
C 960 1936 1101 2425 1555 2425 
C 2138 2425 2138 2013 2138 1826 
L 2138 0 
L 2624 0 
L 2624 1556 
C 2624 1936 2765 2425 3219 2425 
C 3802 2425 3802 2013 3802 1826 
L 3802 0 
L 4288 0 
L 4288 1878 
z
" transform="scale(0.015625)"/>
      </defs>
      <use xlink:href="#CMSS17-4c" transform="scale(0.996264)"/>
      <use xlink:href="#CMSS17-6f" transform="translate(50.687105 0)scale(0.996264)"/>
      <use xlink:href="#CMSS17-63" transform="translate(100.133168 0)scale(0.996264)"/>
      <use xlink:href="#CMSS17-61" transform="translate(141.77199 0)scale(0.996264)"/>
      <use xlink:href="#CMSS17-6c" transform="translate(186.69391 0)scale(0.996264)"/>
      <use xlink:href="#CMSS17-74" transform="translate(240.103746 0)scale(0.996264)"/>
      <use xlink:href="#CMSS17-69" transform="translate(273.935313 0)scale(0.996264)"/>
      <use xlink:href="#CMSS17-6d" transform="translate(296.116036 0)scale(0.996264)"/>
      <use xlink:href="#CMSS17-65" transform="translate(370.34529 0)scale(0.996264)"/>
     </g>
    </g>
   </g>
   <g id="matplotlib.axis_4">
    <g id="ytick_6">
     <g id="line2d_51">
      <path d="M 51.783546 464.52443 
L 551.134964 464.52443 
" clip-path="url(#pd7710ba045)" style="fill: none; stroke: #ffffff"/>
     </g>
     <g id="line2d_52">
      <g>
       <use xlink:href="#mc176942120" x="51.783546" y="464.52443" style="fill: #505050; stroke: #505050; stroke-width: 0.8"/>
      </g>
     </g>
     <g id="text_21">
      <!-- $\mathdefault{0}$ -->
      <g style="fill: #505050" transform="translate(37.461075 469.367368)scale(0.14 -0.14)">
       <use xlink:href="#HFBR17-30" transform="scale(0.996264)"/>
      </g>
     </g>
    </g>
    <g id="ytick_7">
     <g id="line2d_53">
      <path d="M 51.783546 420.107533 
L 551.134964 420.107533 
" clip-path="url(#pd7710ba045)" style="fill: none; stroke: #ffffff"/>
     </g>
     <g id="line2d_54">
      <g>
       <use xlink:href="#mc176942120" x="51.783546" y="420.107533" style="fill: #505050; stroke: #505050; stroke-width: 0.8"/>
      </g>
     </g>
     <g id="text_22">
      <!-- $\mathdefault{20}$ -->
      <g style="fill: #505050" transform="translate(30.138605 424.950471)scale(0.14 -0.14)">
       <use xlink:href="#HFBR17-32" transform="scale(0.996264)"/>
       <use xlink:href="#HFBR17-30" transform="translate(50.643218 0)scale(0.996264)"/>
      </g>
     </g>
    </g>
    <g id="ytick_8">
     <g id="line2d_55">
      <path d="M 51.783546 375.690635 
L 551.134964 375.690635 
" clip-path="url(#pd7710ba045)" style="fill: none; stroke: #ffffff"/>
     </g>
     <g id="line2d_56">
      <g>
       <use xlink:href="#mc176942120" x="51.783546" y="375.690635" style="fill: #505050; stroke: #505050; stroke-width: 0.8"/>
      </g>
     </g>
     <g id="text_23">
      <!-- $\mathdefault{40}$ -->
      <g style="fill: #505050" transform="translate(30.138605 380.533573)scale(0.14 -0.14)">
       <use xlink:href="#HFBR17-34" transform="scale(0.996264)"/>
       <use xlink:href="#HFBR17-30" transform="translate(50.643218 0)scale(0.996264)"/>
      </g>
     </g>
    </g>
    <g id="ytick_9">
     <g id="line2d_57">
      <path d="M 51.783546 331.273738 
L 551.134964 331.273738 
" clip-path="url(#pd7710ba045)" style="fill: none; stroke: #ffffff"/>
     </g>
     <g id="line2d_58">
      <g>
       <use xlink:href="#mc176942120" x="51.783546" y="331.273738" style="fill: #505050; stroke: #505050; stroke-width: 0.8"/>
      </g>
     </g>
     <g id="text_24">
      <!-- $\mathdefault{60}$ -->
      <g style="fill: #505050" transform="translate(30.138605 336.116676)scale(0.14 -0.14)">
       <use xlink:href="#HFBR17-36" transform="scale(0.996264)"/>
       <use xlink:href="#HFBR17-30" transform="translate(50.643218 0)scale(0.996264)"/>
      </g>
     </g>
    </g>
    <g id="ytick_10">
     <g id="line2d_59">
      <path d="M 51.783546 286.85684 
L 551.134964 286.85684 
" clip-path="url(#pd7710ba045)" style="fill: none; stroke: #ffffff"/>
     </g>
     <g id="line2d_60">
      <g>
       <use xlink:href="#mc176942120" x="51.783546" y="286.85684" style="fill: #505050; stroke: #505050; stroke-width: 0.8"/>
      </g>
     </g>
     <g id="text_25">
      <!-- $\mathdefault{80}$ -->
      <g style="fill: #505050" transform="translate(30.138605 291.699778)scale(0.14 -0.14)">
       <use xlink:href="#HFBR17-38" transform="scale(0.996264)"/>
       <use xlink:href="#HFBR17-30" transform="translate(50.643218 0)scale(0.996264)"/>
      </g>
     </g>
    </g>
    <g id="text_26">
     <!-- Precipitation [$\si{\milli \meter \per \hour}$] -->
     <g style="fill: #505050" transform="translate(20.954299 448.141536)rotate(-90)scale(0.168 -0.168)">
      <use xlink:href="#CMSS17-50" transform="scale(0.996264)"/>
      <use xlink:href="#CMSS17-72" transform="translate(59.735586 0)scale(0.996264)"/>
      <use xlink:href="#CMSS17-65" transform="translate(91.645359 0)scale(0.996264)"/>
      <use xlink:href="#CMSS17-63" transform="translate(133.284181 0)scale(0.996264)"/>
      <use xlink:href="#CMSS17-69" transform="translate(174.923003 0)scale(0.996264)"/>
      <use xlink:href="#CMSS17-70" transform="translate(197.103726 0)scale(0.996264)"/>
      <use xlink:href="#CMSS17-69" transform="translate(245.308669 0)scale(0.996264)"/>
      <use xlink:href="#CMSS17-74" transform="translate(267.489392 0)scale(0.996264)"/>
      <use xlink:href="#CMSS17-61" transform="translate(301.320959 0)scale(0.996264)"/>
      <use xlink:href="#CMSS17-74" transform="translate(346.242879 0)scale(0.996264)"/>
      <use xlink:href="#CMSS17-69" transform="translate(380.074446 0)scale(0.996264)"/>
      <use xlink:href="#CMSS17-6f" transform="translate(402.255169 0)scale(0.996264)"/>
      <use xlink:href="#CMSS17-6e" transform="translate(449.098793 0)scale(0.996264)"/>
      <use xlink:href="#CMSS17-5b" transform="translate(528.532849 0)scale(0.996264)"/>
      <use xlink:href="#HFBR17-6d" transform="translate(555.718287 0)scale(0.996264)"/>
      <use xlink:href="#HFBR17-6d" transform="translate(632.928414 0)scale(0.996264)"/>
      <use xlink:href="#HFBR17-68" transform="translate(726.742945 0)scale(0.996264)"/>
      <use xlink:href="#HFBRSY10-0" transform="translate(774.895442 36.153639)scale(0.697382)"/>
      <use xlink:href="#HFBR17-31" transform="translate(829.136435 36.153639)scale(0.697382)"/>
      <use xlink:href="#CMSS17-5d" transform="translate(865.084653 0)scale(0.996264)"/>
     </g>
    </g>
   </g>
   <g id="PolyCollection_1">
    <path d="M 51.783546 464.51865 
L 51.783546 464.517761 
L 62.186701 464.517749 
L 72.589855 464.517758 
L 82.99301 464.517752 
L 93.396164 464.517759 
L 103.799319 464.517762 
L 114.202473 464.517758 
L 124.605628 464.517758 
L 135.008782 464.517755 
L 145.411937 464.517741 
L 155.815091 464.517729 
L 166.218246 464.517661 
L 176.6214 464.517688 
L 187.024555 464.517478 
L 197.42771 464.515184 
L 207.830864 464.513637 
L 218.234019 463.876672 
L 228.637173 464.13316 
L 239.040328 455.66614 
L 249.443482 452.623077 
L 259.846637 455.582193 
L 270.249791 462.946748 
L 280.652946 463.778445 
L 291.0561 464.514258 
L 301.459255 464.515383 
L 311.86241 464.517111 
L 322.265564 464.517452 
L 332.668719 464.517524 
L 343.073318 464.517656 
L 353.475028 464.517742 
L 363.878182 464.517749 
L 374.281337 464.51775 
L 384.684491 464.517754 
L 395.087646 464.51771 
L 405.4908 464.513645 
L 415.893955 464.515844 
L 426.29711 464.517684 
L 436.700264 464.517752 
L 447.103419 464.517731 
L 457.506573 464.517544 
L 467.909728 464.516026 
L 478.312882 462.536521 
L 488.716037 462.568727 
L 499.119191 458.456206 
L 509.522346 462.60722 
L 519.9255 464.514885 
L 530.328655 464.517143 
L 540.73181 464.517168 
L 540.73181 464.518175 
L 540.73181 464.518175 
L 530.328655 464.518155 
L 519.9255 464.516344 
L 509.522346 463.331494 
L 499.119191 459.758328 
L 488.716037 463.251042 
L 478.312882 463.226647 
L 467.909728 464.517259 
L 457.506573 464.518478 
L 447.103419 464.518627 
L 436.700264 464.518644 
L 426.29711 464.518592 
L 415.893955 464.517113 
L 405.4908 464.515379 
L 395.087646 464.518611 
L 384.684491 464.518645 
L 374.281337 464.518642 
L 363.878182 464.518641 
L 353.475028 464.518636 
L 343.073318 464.518565 
L 332.668719 464.518459 
L 322.265564 464.518402 
L 311.86241 464.51813 
L 301.459255 464.516745 
L 291.0561 464.515842 
L 280.652946 463.970599 
L 270.249791 463.617385 
L 259.846637 457.218927 
L 249.443482 456.215383 
L 239.040328 458.369414 
L 228.637173 464.263426 
L 218.234019 464.152117 
L 207.830864 464.515374 
L 197.42771 464.516586 
L 187.024555 464.518424 
L 176.6214 464.518591 
L 166.218246 464.518569 
L 155.815091 464.518624 
L 145.411937 464.518634 
L 135.008782 464.518645 
L 124.605628 464.518648 
L 114.202473 464.518648 
L 103.799319 464.51865 
L 93.396164 464.518648 
L 82.99301 464.518643 
L 72.589855 464.518648 
L 62.186701 464.518641 
L 51.783546 464.51865 
z
" clip-path="url(#pd7710ba045)" style="fill: #1d4fa5; fill-opacity: 0.7"/>
   </g>
   <g id="PolyCollection_2">
    <path d="M 51.783546 464.517761 
L 51.783546 464.516871 
L 62.186701 464.516858 
L 72.589855 464.516868 
L 82.99301 464.516861 
L 93.396164 464.51687 
L 103.799319 464.516872 
L 114.202473 464.516869 
L 124.605628 464.516869 
L 135.008782 464.516866 
L 145.411937 464.516849 
L 155.815091 464.516833 
L 166.218246 464.516751 
L 176.6214 464.516784 
L 187.024555 464.516532 
L 197.42771 464.513773 
L 207.830864 463.968844 
L 218.234019 462.815801 
L 228.637173 463.958254 
L 239.040328 451.793072 
L 249.443482 448.011085 
L 259.846637 453.567308 
L 270.249791 462.091631 
L 280.652946 463.371225 
L 291.0561 464.197065 
L 301.459255 464.514023 
L 311.86241 464.516091 
L 322.265564 464.516501 
L 332.668719 464.516588 
L 343.073318 464.516746 
L 353.475028 464.51685 
L 363.878182 464.516858 
L 374.281337 464.516859 
L 384.684491 464.516864 
L 395.087646 464.516812 
L 405.4908 463.186077 
L 415.893955 464.514574 
L 426.29711 464.516779 
L 436.700264 464.516861 
L 447.103419 464.516836 
L 457.506573 464.516612 
L 467.909728 464.514794 
L 478.312882 461.601899 
L 488.716037 461.662062 
L 499.119191 456.918919 
L 509.522346 461.762155 
L 519.9255 464.513334 
L 530.328655 464.516131 
L 540.73181 464.516161 
L 540.73181 464.517168 
L 540.73181 464.517168 
L 530.328655 464.517143 
L 519.9255 464.514885 
L 509.522346 462.60722 
L 499.119191 458.456206 
L 488.716037 462.568727 
L 478.312882 462.536521 
L 467.909728 464.516026 
L 457.506573 464.517544 
L 447.103419 464.517731 
L 436.700264 464.517752 
L 426.29711 464.517684 
L 415.893955 464.515844 
L 405.4908 464.513645 
L 395.087646 464.51771 
L 384.684491 464.517754 
L 374.281337 464.51775 
L 363.878182 464.517749 
L 353.475028 464.517742 
L 343.073318 464.517656 
L 332.668719 464.517524 
L 322.265564 464.517452 
L 311.86241 464.517111 
L 301.459255 464.515383 
L 291.0561 464.514258 
L 280.652946 463.778445 
L 270.249791 462.946748 
L 259.846637 455.582193 
L 249.443482 452.623077 
L 239.040328 455.66614 
L 228.637173 464.13316 
L 218.234019 463.876672 
L 207.830864 464.513637 
L 197.42771 464.515184 
L 187.024555 464.517478 
L 176.6214 464.517688 
L 166.218246 464.517661 
L 155.815091 464.517729 
L 145.411937 464.517741 
L 135.008782 464.517755 
L 124.605628 464.517758 
L 114.202473 464.517758 
L 103.799319 464.517762 
L 93.396164 464.517759 
L 82.99301 464.517752 
L 72.589855 464.517758 
L 62.186701 464.517749 
L 51.783546 464.517761 
z
" clip-path="url(#pd7710ba045)" style="fill: #1d4fa5; fill-opacity: 0.7"/>
   </g>
   <g id="PolyCollection_3">
    <path d="M 51.783546 464.519538 
L 51.783546 464.51865 
L 62.186701 464.518641 
L 72.589855 464.518648 
L 82.99301 464.518643 
L 93.396164 464.518648 
L 103.799319 464.51865 
L 114.202473 464.518648 
L 124.605628 464.518648 
L 135.008782 464.518645 
L 145.411937 464.518634 
L 155.815091 464.518624 
L 166.218246 464.518569 
L 176.6214 464.518591 
L 187.024555 464.518424 
L 197.42771 464.516586 
L 207.830864 464.515374 
L 218.234019 464.152117 
L 228.637173 464.263426 
L 239.040328 458.369414 
L 249.443482 456.215383 
L 259.846637 457.218927 
L 270.249791 463.617385 
L 280.652946 463.970599 
L 291.0561 464.515842 
L 301.459255 464.516745 
L 311.86241 464.51813 
L 322.265564 464.518402 
L 332.668719 464.518459 
L 343.073318 464.518565 
L 353.475028 464.518636 
L 363.878182 464.518641 
L 374.281337 464.518642 
L 384.684491 464.518645 
L 395.087646 464.518611 
L 405.4908 464.515379 
L 415.893955 464.517113 
L 426.29711 464.518592 
L 436.700264 464.518644 
L 447.103419 464.518627 
L 457.506573 464.518478 
L 467.909728 464.517259 
L 478.312882 463.226647 
L 488.716037 463.251042 
L 499.119191 459.758328 
L 509.522346 463.331494 
L 519.9255 464.516344 
L 530.328655 464.518155 
L 540.73181 464.518175 
L 540.73181 464.519184 
L 540.73181 464.519184 
L 530.328655 464.519169 
L 519.9255 464.517811 
L 509.522346 463.876632 
L 499.119191 460.934666 
L 488.716037 463.793693 
L 478.312882 463.765967 
L 467.909728 464.518499 
L 457.506573 464.51941 
L 447.103419 464.519521 
L 436.700264 464.519534 
L 426.29711 464.519495 
L 415.893955 464.518388 
L 405.4908 464.517084 
L 395.087646 464.51951 
L 384.684491 464.519535 
L 374.281337 464.519533 
L 363.878182 464.519533 
L 353.475028 464.519528 
L 343.073318 464.519475 
L 332.668719 464.519396 
L 322.265564 464.519353 
L 311.86241 464.51915 
L 301.459255 464.518113 
L 291.0561 464.517434 
L 280.652946 464.108225 
L 270.249791 463.973275 
L 259.846637 458.776446 
L 249.443482 459.024942 
L 239.040328 460.534191 
L 228.637173 464.515043 
L 218.234019 464.514371 
L 207.830864 464.517082 
L 197.42771 464.517993 
L 187.024555 464.519369 
L 176.6214 464.519494 
L 166.218246 464.519478 
L 155.815091 464.519519 
L 145.411937 464.519526 
L 135.008782 464.519535 
L 124.605628 464.519537 
L 114.202473 464.519537 
L 103.799319 464.519539 
L 93.396164 464.519537 
L 82.99301 464.519534 
L 72.589855 464.519537 
L 62.186701 464.519532 
L 51.783546 464.519538 
z
" clip-path="url(#pd7710ba045)" style="fill: #1d4fa5; fill-opacity: 0.6"/>
   </g>
   <g id="PolyCollection_4">
    <path d="M 51.783546 464.516871 
L 51.783546 464.515982 
L 62.186701 464.515967 
L 72.589855 464.515978 
L 82.99301 464.515971 
L 93.396164 464.515981 
L 103.799319 464.515982 
L 114.202473 464.515981 
L 124.605628 464.51598 
L 135.008782 464.515977 
L 145.411937 464.515957 
L 155.815091 464.515939 
L 166.218246 464.515843 
L 176.6214 464.515882 
L 187.024555 464.515588 
L 197.42771 464.119376 
L 207.830864 463.292911 
L 218.234019 460.671491 
L 228.637173 463.391951 
L 239.040328 446.265292 
L 249.443482 441.733694 
L 259.846637 450.097439 
L 270.249791 460.933897 
L 280.652946 462.852597 
L 291.0561 464.094188 
L 301.459255 464.189443 
L 311.86241 464.515076 
L 322.265564 464.515552 
L 332.668719 464.515653 
L 343.073318 464.515837 
L 353.475028 464.515959 
L 363.878182 464.515968 
L 374.281337 464.515969 
L 384.684491 464.515975 
L 395.087646 464.515914 
L 405.4908 461.801718 
L 415.893955 464.223058 
L 426.29711 464.515879 
L 436.700264 464.515973 
L 447.103419 464.515943 
L 457.506573 464.515683 
L 467.909728 464.513502 
L 478.312882 460.247257 
L 488.716037 460.373682 
L 499.119191 454.909533 
L 509.522346 460.678817 
L 519.9255 464.054167 
L 530.328655 464.515122 
L 540.73181 464.515157 
L 540.73181 464.516161 
L 540.73181 464.516161 
L 530.328655 464.516131 
L 519.9255 464.513334 
L 509.522346 461.762155 
L 499.119191 456.918919 
L 488.716037 461.662062 
L 478.312882 461.601899 
L 467.909728 464.514794 
L 457.506573 464.516612 
L 447.103419 464.516836 
L 436.700264 464.516861 
L 426.29711 464.516779 
L 415.893955 464.514574 
L 405.4908 463.186077 
L 395.087646 464.516812 
L 384.684491 464.516864 
L 374.281337 464.516859 
L 363.878182 464.516858 
L 353.475028 464.51685 
L 343.073318 464.516746 
L 332.668719 464.516588 
L 322.265564 464.516501 
L 311.86241 464.516091 
L 301.459255 464.514023 
L 291.0561 464.197065 
L 280.652946 463.371225 
L 270.249791 462.091631 
L 259.846637 453.567308 
L 249.443482 448.011085 
L 239.040328 451.793072 
L 228.637173 463.958254 
L 218.234019 462.815801 
L 207.830864 463.968844 
L 197.42771 464.513773 
L 187.024555 464.516532 
L 176.6214 464.516784 
L 166.218246 464.516751 
L 155.815091 464.516833 
L 145.411937 464.516849 
L 135.008782 464.516866 
L 124.605628 464.516869 
L 114.202473 464.516869 
L 103.799319 464.516872 
L 93.396164 464.51687 
L 82.99301 464.516861 
L 72.589855 464.516868 
L 62.186701 464.516858 
L 51.783546 464.516871 
z
" clip-path="url(#pd7710ba045)" style="fill: #1d4fa5; fill-opacity: 0.6"/>
   </g>
   <g id="PolyCollection_5">
    <path d="M 51.783546 464.520428 
L 51.783546 464.519538 
L 62.186701 464.519532 
L 72.589855 464.519537 
L 82.99301 464.519534 
L 93.396164 464.519537 
L 103.799319 464.519539 
L 114.202473 464.519537 
L 124.605628 464.519537 
L 135.008782 464.519535 
L 145.411937 464.519526 
L 155.815091 464.519519 
L 166.218246 464.519478 
L 176.6214 464.519494 
L 187.024555 464.519369 
L 197.42771 464.517993 
L 207.830864 464.517082 
L 218.234019 464.514371 
L 228.637173 464.515043 
L 239.040328 460.534191 
L 249.443482 459.024942 
L 259.846637 458.776446 
L 270.249791 463.973275 
L 280.652946 464.108225 
L 291.0561 464.517434 
L 301.459255 464.518113 
L 311.86241 464.51915 
L 322.265564 464.519353 
L 332.668719 464.519396 
L 343.073318 464.519475 
L 353.475028 464.519528 
L 363.878182 464.519533 
L 374.281337 464.519533 
L 384.684491 464.519535 
L 395.087646 464.51951 
L 405.4908 464.517084 
L 415.893955 464.518388 
L 426.29711 464.519495 
L 436.700264 464.519534 
L 447.103419 464.519521 
L 457.506573 464.51941 
L 467.909728 464.518499 
L 478.312882 463.765967 
L 488.716037 463.793693 
L 499.119191 460.934666 
L 509.522346 463.876632 
L 519.9255 464.517811 
L 530.328655 464.519169 
L 540.73181 464.519184 
L 540.73181 464.52019 
L 540.73181 464.52019 
L 530.328655 464.52018 
L 519.9255 464.519277 
L 509.522346 464.068328 
L 499.119191 462.108244 
L 488.716037 464.176323 
L 478.312882 464.129454 
L 467.909728 464.519733 
L 457.506573 464.520342 
L 447.103419 464.520416 
L 436.700264 464.520425 
L 426.29711 464.520397 
L 415.893955 464.51966 
L 405.4908 464.518795 
L 395.087646 464.520409 
L 384.684491 464.520426 
L 374.281337 464.520425 
L 363.878182 464.520425 
L 353.475028 464.520422 
L 343.073318 464.520386 
L 332.668719 464.520332 
L 322.265564 464.520303 
L 311.86241 464.520167 
L 301.459255 464.519478 
L 291.0561 464.519028 
L 280.652946 464.236897 
L 270.249791 464.157773 
L 259.846637 460.392474 
L 249.443482 461.608303 
L 239.040328 462.628269 
L 228.637173 464.517427 
L 218.234019 464.516979 
L 207.830864 464.518792 
L 197.42771 464.519397 
L 187.024555 464.520315 
L 176.6214 464.5204 
L 166.218246 464.520388 
L 155.815091 464.520416 
L 145.411937 464.520421 
L 135.008782 464.520426 
L 124.605628 464.520427 
L 114.202473 464.520428 
L 103.799319 464.520428 
L 93.396164 464.520427 
L 82.99301 464.520425 
L 72.589855 464.520428 
L 62.186701 464.520425 
L 51.783546 464.520428 
z
" clip-path="url(#pd7710ba045)" style="fill: #1d4fa5; fill-opacity: 0.5"/>
   </g>
   <g id="PolyCollection_6">
    <path d="M 51.783546 464.515982 
L 51.783546 464.515093 
L 62.186701 464.515076 
L 72.589855 464.515089 
L 82.99301 464.515081 
L 93.396164 464.515092 
L 103.799319 464.515093 
L 114.202473 464.515092 
L 124.605628 464.515092 
L 135.008782 464.515087 
L 145.411937 464.515065 
L 155.815091 464.515044 
L 166.218246 464.514935 
L 176.6214 464.514978 
L 187.024555 464.514645 
L 197.42771 463.775886 
L 207.830864 461.818562 
L 218.234019 456.501424 
L 228.637173 461.495702 
L 239.040328 437.767218 
L 249.443482 432.786575 
L 259.846637 444.722762 
L 270.249791 459.051223 
L 280.652946 462.175508 
L 291.0561 463.963749 
L 301.459255 464.073581 
L 311.86241 464.514059 
L 322.265564 464.514605 
L 332.668719 464.514719 
L 343.073318 464.514928 
L 353.475028 464.515067 
L 363.878182 464.515077 
L 374.281337 464.515078 
L 384.684491 464.515085 
L 395.087646 464.515017 
L 405.4908 459.966213 
L 415.893955 463.390297 
L 426.29711 464.514977 
L 436.700264 464.515084 
L 447.103419 464.51505 
L 457.506573 464.514754 
L 467.909728 463.654441 
L 478.312882 458.123476 
L 488.716037 458.448502 
L 499.119191 451.80821 
L 509.522346 459.140618 
L 519.9255 463.852713 
L 530.328655 464.514112 
L 540.73181 464.514153 
L 540.73181 464.515157 
L 540.73181 464.515157 
L 530.328655 464.515122 
L 519.9255 464.054167 
L 509.522346 460.678817 
L 499.119191 454.909533 
L 488.716037 460.373682 
L 478.312882 460.247257 
L 467.909728 464.513502 
L 457.506573 464.515683 
L 447.103419 464.515943 
L 436.700264 464.515973 
L 426.29711 464.515879 
L 415.893955 464.223058 
L 405.4908 461.801718 
L 395.087646 464.515914 
L 384.684491 464.515975 
L 374.281337 464.515969 
L 363.878182 464.515968 
L 353.475028 464.515959 
L 343.073318 464.515837 
L 332.668719 464.515653 
L 322.265564 464.515552 
L 311.86241 464.515076 
L 301.459255 464.189443 
L 291.0561 464.094188 
L 280.652946 462.852597 
L 270.249791 460.933897 
L 259.846637 450.097439 
L 249.443482 441.733694 
L 239.040328 446.265292 
L 228.637173 463.391951 
L 218.234019 460.671491 
L 207.830864 463.292911 
L 197.42771 464.119376 
L 187.024555 464.515588 
L 176.6214 464.515882 
L 166.218246 464.515843 
L 155.815091 464.515939 
L 145.411937 464.515957 
L 135.008782 464.515977 
L 124.605628 464.51598 
L 114.202473 464.515981 
L 103.799319 464.515982 
L 93.396164 464.515981 
L 82.99301 464.515971 
L 72.589855 464.515978 
L 62.186701 464.515967 
L 51.783546 464.515982 
z
" clip-path="url(#pd7710ba045)" style="fill: #1d4fa5; fill-opacity: 0.5"/>
   </g>
   <g id="PolyCollection_7">
    <path d="M 51.783546 464.521317 
L 51.783546 464.520428 
L 62.186701 464.520425 
L 72.589855 464.520428 
L 82.99301 464.520425 
L 93.396164 464.520427 
L 103.799319 464.520428 
L 114.202473 464.520428 
L 124.605628 464.520427 
L 135.008782 464.520426 
L 145.411937 464.520421 
L 155.815091 464.520416 
L 166.218246 464.520388 
L 176.6214 464.5204 
L 187.024555 464.520315 
L 197.42771 464.519397 
L 207.830864 464.518792 
L 218.234019 464.516979 
L 228.637173 464.517427 
L 239.040328 462.628269 
L 249.443482 461.608303 
L 259.846637 460.392474 
L 270.249791 464.157773 
L 280.652946 464.236897 
L 291.0561 464.519028 
L 301.459255 464.519478 
L 311.86241 464.520167 
L 322.265564 464.520303 
L 332.668719 464.520332 
L 343.073318 464.520386 
L 353.475028 464.520422 
L 363.878182 464.520425 
L 374.281337 464.520425 
L 384.684491 464.520426 
L 395.087646 464.520409 
L 405.4908 464.518795 
L 415.893955 464.51966 
L 426.29711 464.520397 
L 436.700264 464.520425 
L 447.103419 464.520416 
L 457.506573 464.520342 
L 467.909728 464.519733 
L 478.312882 464.129454 
L 488.716037 464.176323 
L 499.119191 462.108244 
L 509.522346 464.068328 
L 519.9255 464.519277 
L 530.328655 464.52018 
L 540.73181 464.52019 
L 540.73181 464.5212 
L 540.73181 464.5212 
L 530.328655 464.521195 
L 519.9255 464.520742 
L 509.522346 464.513435 
L 499.119191 463.5018 
L 488.716037 464.517496 
L 478.312882 464.517268 
L 467.909728 464.520972 
L 457.506573 464.521276 
L 447.103419 464.521313 
L 436.700264 464.521317 
L 426.29711 464.521303 
L 415.893955 464.520935 
L 405.4908 464.5205 
L 395.087646 464.521309 
L 384.684491 464.521318 
L 374.281337 464.521317 
L 363.878182 464.521317 
L 353.475028 464.521315 
L 343.073318 464.521298 
L 332.668719 464.521271 
L 322.265564 464.521256 
L 311.86241 464.521188 
L 301.459255 464.520843 
L 291.0561 464.520617 
L 280.652946 464.517408 
L 270.249791 464.515651 
L 259.846637 462.475491 
L 249.443482 464.005838 
L 239.040328 464.136663 
L 228.637173 464.519816 
L 218.234019 464.519593 
L 207.830864 464.520499 
L 197.42771 464.520803 
L 187.024555 464.521263 
L 176.6214 464.521305 
L 166.218246 464.521299 
L 155.815091 464.521313 
L 145.411937 464.521315 
L 135.008782 464.521317 
L 124.605628 464.521318 
L 114.202473 464.521317 
L 103.799319 464.521317 
L 93.396164 464.521317 
L 82.99301 464.521316 
L 72.589855 464.521317 
L 62.186701 464.521316 
L 51.783546 464.521317 
z
" clip-path="url(#pd7710ba045)" style="fill: #1d4fa5; fill-opacity: 0.4"/>
   </g>
   <g id="PolyCollection_8">
    <path d="M 51.783546 464.515093 
L 51.783546 464.514204 
L 62.186701 464.514186 
L 72.589855 464.514201 
L 82.99301 464.514192 
L 93.396164 464.514204 
L 103.799319 464.514205 
L 114.202473 464.514205 
L 124.605628 464.514205 
L 135.008782 464.514199 
L 145.411937 464.514174 
L 155.815091 464.514151 
L 166.218246 464.514029 
L 176.6214 464.514077 
L 187.024555 464.513676 
L 197.42771 461.140822 
L 207.830864 458.437897 
L 218.234019 448.330153 
L 228.637173 455.551519 
L 239.040328 423.614574 
L 249.443482 418.26022 
L 259.846637 435.588201 
L 270.249791 455.026996 
L 280.652946 460.963735 
L 291.0561 463.617376 
L 301.459255 463.897673 
L 311.86241 464.158206 
L 322.265564 464.513621 
L 332.668719 464.513778 
L 343.073318 464.51402 
L 353.475028 464.514176 
L 363.878182 464.514188 
L 374.281337 464.514189 
L 384.684491 464.514197 
L 395.087646 464.514119 
L 405.4908 456.760766 
L 415.893955 461.789686 
L 426.29711 464.514077 
L 436.700264 464.514196 
L 447.103419 464.514159 
L 457.506573 464.513824 
L 467.909728 462.931617 
L 478.312882 453.7179 
L 488.716037 454.778257 
L 499.119191 445.832219 
L 509.522346 456.358075 
L 519.9255 463.075685 
L 530.328655 464.142014 
L 540.73181 464.167449 
L 540.73181 464.514153 
L 540.73181 464.514153 
L 530.328655 464.514112 
L 519.9255 463.852713 
L 509.522346 459.140618 
L 499.119191 451.80821 
L 488.716037 458.448502 
L 478.312882 458.123476 
L 467.909728 463.654441 
L 457.506573 464.514754 
L 447.103419 464.51505 
L 436.700264 464.515084 
L 426.29711 464.514977 
L 415.893955 463.390297 
L 405.4908 459.966213 
L 395.087646 464.515017 
L 384.684491 464.515085 
L 374.281337 464.515078 
L 363.878182 464.515077 
L 353.475028 464.515067 
L 343.073318 464.514928 
L 332.668719 464.514719 
L 322.265564 464.514605 
L 311.86241 464.514059 
L 301.459255 464.073581 
L 291.0561 463.963749 
L 280.652946 462.175508 
L 270.249791 459.051223 
L 259.846637 444.722762 
L 249.443482 432.786575 
L 239.040328 437.767218 
L 228.637173 461.495702 
L 218.234019 456.501424 
L 207.830864 461.818562 
L 197.42771 463.775886 
L 187.024555 464.514645 
L 176.6214 464.514978 
L 166.218246 464.514935 
L 155.815091 464.515044 
L 145.411937 464.515065 
L 135.008782 464.515087 
L 124.605628 464.515092 
L 114.202473 464.515092 
L 103.799319 464.515093 
L 93.396164 464.515092 
L 82.99301 464.515081 
L 72.589855 464.515089 
L 62.186701 464.515076 
L 51.783546 464.515093 
z
" clip-path="url(#pd7710ba045)" style="fill: #1d4fa5; fill-opacity: 0.4"/>
   </g>
   <g id="PolyCollection_9">
    <path d="M 51.783546 464.521763 
L 51.783546 464.521317 
L 62.186701 464.521316 
L 72.589855 464.521317 
L 82.99301 464.521316 
L 93.396164 464.521317 
L 103.799319 464.521317 
L 114.202473 464.521317 
L 124.605628 464.521318 
L 135.008782 464.521317 
L 145.411937 464.521315 
L 155.815091 464.521313 
L 166.218246 464.521299 
L 176.6214 464.521305 
L 187.024555 464.521263 
L 197.42771 464.520803 
L 207.830864 464.520499 
L 218.234019 464.519593 
L 228.637173 464.519816 
L 239.040328 464.136663 
L 249.443482 464.005838 
L 259.846637 462.475491 
L 270.249791 464.515651 
L 280.652946 464.517408 
L 291.0561 464.520617 
L 301.459255 464.520843 
L 311.86241 464.521188 
L 322.265564 464.521256 
L 332.668719 464.521271 
L 343.073318 464.521298 
L 353.475028 464.521315 
L 363.878182 464.521317 
L 374.281337 464.521317 
L 384.684491 464.521318 
L 395.087646 464.521309 
L 405.4908 464.5205 
L 415.893955 464.520935 
L 426.29711 464.521303 
L 436.700264 464.521317 
L 447.103419 464.521313 
L 457.506573 464.521276 
L 467.909728 464.520972 
L 478.312882 464.517268 
L 488.716037 464.517496 
L 499.119191 463.5018 
L 509.522346 464.513435 
L 519.9255 464.520742 
L 530.328655 464.521195 
L 540.73181 464.5212 
L 540.73181 464.521705 
L 540.73181 464.521705 
L 530.328655 464.521703 
L 519.9255 464.521476 
L 509.522346 464.517855 
L 499.119191 464.032516 
L 488.716037 464.519852 
L 478.312882 464.519739 
L 467.909728 464.52159 
L 457.506573 464.521742 
L 447.103419 464.521762 
L 436.700264 464.521764 
L 426.29711 464.521756 
L 415.893955 464.521572 
L 405.4908 464.521355 
L 395.087646 464.521759 
L 384.684491 464.521764 
L 374.281337 464.521763 
L 363.878182 464.521763 
L 353.475028 464.521763 
L 343.073318 464.521754 
L 332.668719 464.521741 
L 322.265564 464.521733 
L 311.86241 464.521699 
L 301.459255 464.521527 
L 291.0561 464.521414 
L 280.652946 464.519808 
L 270.249791 464.518932 
L 259.846637 463.950013 
L 249.443482 464.267033 
L 239.040328 464.271049 
L 228.637173 464.521013 
L 218.234019 464.5209 
L 207.830864 464.521355 
L 197.42771 464.521507 
L 187.024555 464.521736 
L 176.6214 464.521758 
L 166.218246 464.521755 
L 155.815091 464.521761 
L 145.411937 464.521763 
L 135.008782 464.521764 
L 124.605628 464.521764 
L 114.202473 464.521764 
L 103.799319 464.521763 
L 93.396164 464.521763 
L 82.99301 464.521763 
L 72.589855 464.521764 
L 62.186701 464.521763 
L 51.783546 464.521763 
z
" clip-path="url(#pd7710ba045)" style="fill: #1d4fa5; fill-opacity: 0.3"/>
   </g>
   <g id="PolyCollection_10">
    <path d="M 51.783546 464.514204 
L 51.783546 464.513752 
L 62.186701 464.513726 
L 72.589855 464.513746 
L 82.99301 464.513733 
L 93.396164 464.513751 
L 103.799319 464.513753 
L 114.202473 464.513752 
L 124.605628 464.513751 
L 135.008782 464.513743 
L 145.411937 464.51371 
L 155.815091 464.513681 
L 166.218246 464.513523 
L 176.6214 464.513586 
L 187.024555 464.055132 
L 197.42771 456.594492 
L 207.830864 453.891401 
L 218.234019 439.63273 
L 228.637173 447.383 
L 239.040328 409.307215 
L 249.443482 403.748207 
L 259.846637 425.879926 
L 270.249791 449.253023 
L 280.652946 459.480975 
L 291.0561 463.078563 
L 301.459255 463.516351 
L 311.86241 463.98478 
L 322.265564 464.142683 
L 332.668719 464.27662 
L 343.073318 464.513511 
L 353.475028 464.513713 
L 363.878182 464.513728 
L 374.281337 464.51373 
L 384.684491 464.51374 
L 395.087646 464.51364 
L 405.4908 453.109641 
L 415.893955 459.597601 
L 426.29711 464.513586 
L 436.700264 464.51374 
L 447.103419 464.513692 
L 457.506573 464.513259 
L 467.909728 462.070598 
L 478.312882 448.539845 
L 488.716037 450.656293 
L 499.119191 438.41954 
L 509.522346 453.142174 
L 519.9255 462.121131 
L 530.328655 463.860035 
L 540.73181 463.890656 
L 540.73181 464.167449 
L 540.73181 464.167449 
L 530.328655 464.142014 
L 519.9255 463.075685 
L 509.522346 456.358075 
L 499.119191 445.832219 
L 488.716037 454.778257 
L 478.312882 453.7179 
L 467.909728 462.931617 
L 457.506573 464.513824 
L 447.103419 464.514159 
L 436.700264 464.514196 
L 426.29711 464.514077 
L 415.893955 461.789686 
L 405.4908 456.760766 
L 395.087646 464.514119 
L 384.684491 464.514197 
L 374.281337 464.514189 
L 363.878182 464.514188 
L 353.475028 464.514176 
L 343.073318 464.51402 
L 332.668719 464.513778 
L 322.265564 464.513621 
L 311.86241 464.158206 
L 301.459255 463.897673 
L 291.0561 463.617376 
L 280.652946 460.963735 
L 270.249791 455.026996 
L 259.846637 435.588201 
L 249.443482 418.26022 
L 239.040328 423.614574 
L 228.637173 455.551519 
L 218.234019 448.330153 
L 207.830864 458.437897 
L 197.42771 461.140822 
L 187.024555 464.513676 
L 176.6214 464.514077 
L 166.218246 464.514029 
L 155.815091 464.514151 
L 145.411937 464.514174 
L 135.008782 464.514199 
L 124.605628 464.514205 
L 114.202473 464.514205 
L 103.799319 464.514205 
L 93.396164 464.514204 
L 82.99301 464.514192 
L 72.589855 464.514201 
L 62.186701 464.514186 
L 51.783546 464.514204 
z
" clip-path="url(#pd7710ba045)" style="fill: #1d4fa5; fill-opacity: 0.3"/>
   </g>
   <g id="PolyCollection_11">
    <path d="M 51.783546 464.522121 
L 51.783546 464.521763 
L 62.186701 464.521763 
L 72.589855 464.521764 
L 82.99301 464.521763 
L 93.396164 464.521763 
L 103.799319 464.521763 
L 114.202473 464.521764 
L 124.605628 464.521764 
L 135.008782 464.521764 
L 145.411937 464.521763 
L 155.815091 464.521761 
L 166.218246 464.521755 
L 176.6214 464.521758 
L 187.024555 464.521736 
L 197.42771 464.521507 
L 207.830864 464.521355 
L 218.234019 464.5209 
L 228.637173 464.521013 
L 239.040328 464.271049 
L 249.443482 464.267033 
L 259.846637 463.950013 
L 270.249791 464.518932 
L 280.652946 464.519808 
L 291.0561 464.521414 
L 301.459255 464.521527 
L 311.86241 464.521699 
L 322.265564 464.521733 
L 332.668719 464.521741 
L 343.073318 464.521754 
L 353.475028 464.521763 
L 363.878182 464.521763 
L 374.281337 464.521763 
L 384.684491 464.521764 
L 395.087646 464.521759 
L 405.4908 464.521355 
L 415.893955 464.521572 
L 426.29711 464.521756 
L 436.700264 464.521764 
L 447.103419 464.521762 
L 457.506573 464.521742 
L 467.909728 464.52159 
L 478.312882 464.519739 
L 488.716037 464.519852 
L 499.119191 464.032516 
L 509.522346 464.517855 
L 519.9255 464.521476 
L 530.328655 464.521703 
L 540.73181 464.521705 
L 540.73181 464.522109 
L 540.73181 464.522109 
L 530.328655 464.522109 
L 519.9255 464.522064 
L 509.522346 464.521339 
L 499.119191 464.518132 
L 488.716037 464.521738 
L 478.312882 464.521714 
L 467.909728 464.522085 
L 457.506573 464.522116 
L 447.103419 464.52212 
L 436.700264 464.522121 
L 426.29711 464.522119 
L 415.893955 464.522082 
L 405.4908 464.522039 
L 395.087646 464.52212 
L 384.684491 464.522121 
L 374.281337 464.522121 
L 363.878182 464.522121 
L 353.475028 464.522121 
L 343.073318 464.522119 
L 332.668719 464.522116 
L 322.265564 464.522115 
L 311.86241 464.522108 
L 301.459255 464.522073 
L 291.0561 464.52205 
L 280.652946 464.52173 
L 270.249791 464.521554 
L 259.846637 464.515478 
L 249.443482 464.51917 
L 239.040328 464.519341 
L 228.637173 464.521971 
L 218.234019 464.521949 
L 207.830864 464.522039 
L 197.42771 464.52207 
L 187.024555 464.522115 
L 176.6214 464.52212 
L 166.218246 464.522119 
L 155.815091 464.52212 
L 145.411937 464.522121 
L 135.008782 464.522121 
L 124.605628 464.522121 
L 114.202473 464.522121 
L 103.799319 464.52212 
L 93.396164 464.522121 
L 82.99301 464.522121 
L 72.589855 464.522121 
L 62.186701 464.522121 
L 51.783546 464.522121 
z
" clip-path="url(#pd7710ba045)" style="fill: #1d4fa5; fill-opacity: 0.2"/>
   </g>
   <g id="PolyCollection_12">
    <path d="M 51.783546 464.513752 
L 51.783546 464.51332 
L 62.186701 464.513292 
L 72.589855 464.513314 
L 82.99301 464.5133 
L 93.396164 464.513318 
L 103.799319 464.513321 
L 114.202473 464.51332 
L 124.605628 464.513318 
L 135.008782 464.51331 
L 145.411937 464.513275 
L 155.815091 464.513245 
L 166.218246 463.539987 
L 176.6214 463.820723 
L 187.024555 461.512518 
L 197.42771 442.272072 
L 207.830864 441.622946 
L 218.234019 418.951756 
L 228.637173 425.064163 
L 239.040328 375.79816 
L 249.443482 369.458335 
L 259.846637 398.776899 
L 270.249791 429.964495 
L 280.652946 454.070825 
L 291.0561 461.428784 
L 301.459255 462.201293 
L 311.86241 463.123202 
L 322.265564 463.392474 
L 332.668719 463.688197 
L 343.073318 463.943212 
L 353.475028 464.513279 
L 363.878182 464.513294 
L 374.281337 464.513296 
L 384.684491 464.513307 
L 395.087646 464.000784 
L 405.4908 443.834173 
L 415.893955 451.816313 
L 426.29711 463.726681 
L 436.700264 464.513307 
L 447.103419 464.513256 
L 457.506573 463.07071 
L 467.909728 459.29972 
L 478.312882 431.736906 
L 488.716037 437.824736 
L 499.119191 416.810547 
L 509.522346 442.776971 
L 519.9255 458.828354 
L 530.328655 462.4208 
L 540.73181 462.592634 
L 540.73181 463.890656 
L 540.73181 463.890656 
L 530.328655 463.860035 
L 519.9255 462.121131 
L 509.522346 453.142174 
L 499.119191 438.41954 
L 488.716037 450.656293 
L 478.312882 448.539845 
L 467.909728 462.070598 
L 457.506573 464.513259 
L 447.103419 464.513692 
L 436.700264 464.51374 
L 426.29711 464.513586 
L 415.893955 459.597601 
L 405.4908 453.109641 
L 395.087646 464.51364 
L 384.684491 464.51374 
L 374.281337 464.51373 
L 363.878182 464.513728 
L 353.475028 464.513713 
L 343.073318 464.513511 
L 332.668719 464.27662 
L 322.265564 464.142683 
L 311.86241 463.98478 
L 301.459255 463.516351 
L 291.0561 463.078563 
L 280.652946 459.480975 
L 270.249791 449.253023 
L 259.846637 425.879926 
L 249.443482 403.748207 
L 239.040328 409.307215 
L 228.637173 447.383 
L 218.234019 439.63273 
L 207.830864 453.891401 
L 197.42771 456.594492 
L 187.024555 464.055132 
L 176.6214 464.513586 
L 166.218246 464.513523 
L 155.815091 464.513681 
L 145.411937 464.51371 
L 135.008782 464.513743 
L 124.605628 464.513751 
L 114.202473 464.513752 
L 103.799319 464.513753 
L 93.396164 464.513751 
L 82.99301 464.513733 
L 72.589855 464.513746 
L 62.186701 464.513726 
L 51.783546 464.513752 
z
" clip-path="url(#pd7710ba045)" style="fill: #1d4fa5; fill-opacity: 0.2"/>
   </g>
   <g id="line2d_61">
    <path d="M 51.783546 464.52443 
L 62.186701 464.52443 
L 72.589855 464.52443 
L 82.99301 464.52443 
L 93.396164 464.52443 
L 103.799319 464.52443 
L 114.202473 464.52443 
L 124.605628 464.52443 
L 135.008782 464.52443 
L 145.411937 464.52443 
L 155.815091 464.52443 
L 166.218246 464.52443 
L 176.6214 464.52443 
L 187.024555 464.52443 
L 197.42771 464.52443 
L 207.830864 462.747754 
L 218.234019 363.253904 
L 228.637173 436.985954 
L 239.040328 464.52443 
L 249.443482 279.750137 
L 259.846637 410.779984 
L 270.249791 361.033059 
L 280.652946 456.08522 
L 291.0561 461.859416 
L 301.459255 463.191923 
L 311.86241 464.52443 
L 322.265564 464.52443 
L 332.668719 460.526909 
L 343.071873 463.636092 
L 353.475028 464.52443 
L 363.878182 463.191923 
L 374.281337 464.52443 
L 384.684491 463.191923 
L 395.087646 463.636092 
L 405.4908 462.747754 
L 415.893955 461.859416 
L 426.29711 464.52443 
L 436.700264 464.52443 
L 447.103419 463.636092 
L 457.506573 464.52443 
L 467.909728 462.747754 
L 478.312882 458.306065 
L 488.716037 449.866854 
L 499.119191 451.64353 
L 509.522346 452.531868 
L 519.9255 460.971078 
L 530.328655 464.52443 
L 540.73181 464.52443 
" clip-path="url(#pd7710ba045)" style="fill: none; stroke-dasharray: 7.4,3.2; stroke-dashoffset: 0; stroke: #696969; stroke-width: 2"/>
   </g>
   <g id="line2d_62">
    <path d="M 51.783546 464.518678 
L 62.186701 464.514808 
L 72.589855 464.517924 
L 82.99301 464.516316 
L 93.396164 464.518562 
L 103.799319 464.518793 
L 114.202473 464.518728 
L 124.605628 464.518576 
L 135.008782 464.517803 
L 145.411937 464.513351 
L 155.815091 464.506559 
L 166.218246 464.479156 
L 176.6214 464.489701 
L 187.024555 464.405227 
L 197.42771 463.223513 
L 207.830864 462.537928 
L 218.234019 459.831868 
L 228.637173 461.41916 
L 239.040328 449.820287 
L 249.443482 447.00732 
L 259.846637 452.95842 
L 270.249791 460.457626 
L 280.652946 462.695704 
L 291.0561 464.181232 
L 301.459255 464.319248 
L 311.86241 464.452178 
L 322.265564 464.468299 
L 332.668719 464.483831 
L 343.073318 464.498636 
L 353.475028 464.512687 
L 363.878182 464.51567 
L 374.281337 464.515867 
L 384.684491 464.517174 
L 395.087646 464.504588 
L 405.4908 462.065788 
L 415.893955 463.597706 
L 426.29711 464.502953 
L 436.700264 464.517316 
L 447.103419 464.513023 
L 457.506573 464.468762 
L 467.909728 464.021468 
L 478.312882 460.422985 
L 488.716037 460.71577 
L 499.119191 456.578957 
L 509.522346 460.781197 
L 519.9255 463.980284 
L 530.328655 464.415599 
L 540.73181 464.425951 
" clip-path="url(#pd7710ba045)" style="fill: none; stroke: #1d4fa5; stroke-width: 2"/>
   </g>
   <g id="patch_8">
    <path d="M 51.783546 464.52443 
L 51.783546 275.752616 
" style="fill: none; stroke: #505050; stroke-width: 0.8; stroke-linejoin: miter; stroke-linecap: square"/>
   </g>
   <g id="patch_9">
    <path d="M 551.134964 464.52443 
L 551.134964 275.752616 
" style="fill: none; stroke: #505050; stroke-width: 0.8; stroke-linejoin: miter; stroke-linecap: square"/>
   </g>
   <g id="patch_10">
    <path d="M 51.783546 464.52443 
L 551.134964 464.52443 
" style="fill: none; stroke: #505050; stroke-width: 0.8; stroke-linejoin: miter; stroke-linecap: square"/>
   </g>
   <g id="patch_11">
    <path d="M 51.783546 275.752616 
L 551.134964 275.752616 
" style="fill: none; stroke: #505050; stroke-width: 0.8; stroke-linejoin: miter; stroke-linecap: square"/>
   </g>
   <g id="text_27">
    <!-- (b) Hydronn -->
    <g style="fill: #505050" transform="translate(51.783546 259.752616)scale(0.168 -0.168)">
     <defs>
      <path id="CMSS17-62" d="M 954 4416 
L 480 4416 
L 480 -13 
L 966 -13 
L 966 275 
C 1210 38 1504 -64 1766 -64 
C 2381 -64 2880 559 2880 1382 
C 2880 2133 2496 2816 1926 2816 
C 1523 2816 1165 2649 954 2476 
L 954 4416 
z
M 966 2095 
C 1107 2276 1306 2425 1587 2425 
C 1965 2425 2394 2146 2394 1382 
C 2394 566 1882 326 1530 326 
C 1402 326 1267 358 1139 468 
C 966 624 966 721 966 812 
L 966 2095 
z
" transform="scale(0.015625)"/>
      <path id="CMSS17-79" d="M 2675 2752 
L 2176 2752 
C 1632 1293 1446 701 1434 383 
L 1427 383 
C 1408 695 1126 1459 902 2006 
L 602 2752 
L 83 2752 
L 1216 14 
C 1146 -177 1043 -464 1011 -527 
C 870 -884 774 -884 672 -884 
C 646 -884 442 -877 211 -807 
L 250 -1229 
C 410 -1261 570 -1280 685 -1280 
C 845 -1280 1165 -1280 1459 -495 
L 2675 2752 
z
" transform="scale(0.015625)"/>
     </defs>
     <use xlink:href="#CMSS17-28" transform="scale(0.996264)"/>
     <use xlink:href="#CMSS17-62" transform="translate(36.433914 0)scale(0.996264)"/>
     <use xlink:href="#CMSS17-29" transform="translate(84.638857 0)scale(0.996264)"/>
     <use xlink:href="#CMSS17-48" transform="translate(152.301884 0)scale(0.996264)"/>
     <use xlink:href="#CMSS17-79" transform="translate(218.363403 0)scale(0.996264)"/>
     <use xlink:href="#CMSS17-64" transform="translate(261.363545 0)scale(0.996264)"/>
     <use xlink:href="#CMSS17-72" transform="translate(309.568488 0)scale(0.996264)"/>
     <use xlink:href="#CMSS17-6f" transform="translate(341.478261 0)scale(0.996264)"/>
     <use xlink:href="#CMSS17-6e" transform="translate(388.321884 0)scale(0.996264)"/>
     <use xlink:href="#CMSS17-6e" transform="translate(436.526827 0)scale(0.996264)"/>
    </g>
   </g>
   <g id="legend_2">
    <g id="line2d_63">
     <path d="M 473.227023 290.330116 
L 484.889023 290.330116 
L 496.551023 290.330116 
" style="fill: none; stroke-dasharray: 7.4,3.2; stroke-dashoffset: 0; stroke: #696969; stroke-width: 2"/>
    </g>
    <g id="text_28">
     <!-- Gauges -->
     <g transform="translate(505.880623 294.411816)scale(0.11662 -0.11662)">
      <use xlink:href="#CMSS17-47" transform="scale(0.996264)"/>
      <use xlink:href="#CMSS17-61" transform="translate(62.458226 0)scale(0.996264)"/>
      <use xlink:href="#CMSS17-75" transform="translate(107.380146 0)scale(0.996264)"/>
      <use xlink:href="#CMSS17-67" transform="translate(155.585089 0)scale(0.996264)"/>
      <use xlink:href="#CMSS17-65" transform="translate(202.428713 0)scale(0.996264)"/>
      <use xlink:href="#CMSS17-73" transform="translate(244.067535 0)scale(0.996264)"/>
     </g>
    </g>
   </g>
  </g>
 </g>
 <defs>
  <clipPath id="pe7f97ef233">
   <rect x="51.783546" y="35.752917" width="499.351418" height="188.771814"/>
  </clipPath>
  <clipPath id="pd7710ba045">
   <rect x="51.783546" y="275.752616" width="499.351418" height="188.771814"/>
  </clipPath>
 </defs>
</svg>
