<?xml version="1.0" encoding="utf-8" standalone="no"?>
<!DOCTYPE svg PUBLIC "-//W3C//DTD SVG 1.1//EN"
  "http://www.w3.org/Graphics/SVG/1.1/DTD/svg11.dtd">
<svg xmlns:xlink="http://www.w3.org/1999/xlink" width="622.803263pt" height="311.089618pt" viewBox="0 0 622.803263 311.089618" xmlns="http://www.w3.org/2000/svg" version="1.1">
 <metadata>
  <rdf:RDF xmlns:dc="http://purl.org/dc/elements/1.1/" xmlns:cc="http://creativecommons.org/ns#" xmlns:rdf="http://www.w3.org/1999/02/22-rdf-syntax-ns#">
   <cc:Work>
    <dc:type rdf:resource="http://purl.org/dc/dcmitype/StillImage"/>
    <dc:date>2022-05-13T11:32:05.183903</dc:date>
    <dc:format>image/svg+xml</dc:format>
    <dc:creator>
     <cc:Agent>
      <dc:title>Matplotlib v3.5.1, https://matplotlib.org/</dc:title>
     </cc:Agent>
    </dc:creator>
   </cc:Work>
  </rdf:RDF>
 </metadata>
 <defs>
  <style type="text/css">*{stroke-linejoin: round; stroke-linecap: butt}</style>
 </defs>
 <g id="figure_1">
  <g id="patch_1">
   <path d="M 0 311.089618 
L 622.803263 311.089618 
L 622.803263 0 
L 0 0 
L 0 311.089618 
z
" style="fill: none"/>
  </g>
  <g id="axes_1">
   <g id="patch_2">
    <path d="M 57.603263 258.04665 
L 395.785081 258.04665 
L 395.785081 13.42665 
L 57.603263 13.42665 
z
" style="fill: #ffffff"/>
   </g>
   <g id="matplotlib.axis_1">
    <g id="xtick_1">
     <g id="line2d_1">
      <path d="M 57.603263 258.04665 
L 57.603263 13.42665 
" clip-path="url(#pdf6c6728bf)" style="fill: none; stroke: #b0b0b0; stroke-width: 0.8; stroke-linecap: square"/>
     </g>
     <g id="line2d_2">
      <defs>
       <path id="md18246eb7f" d="M 0 0 
L 0 3.5 
" style="stroke: #000000; stroke-width: 0.8"/>
      </defs>
      <g>
       <use xlink:href="#md18246eb7f" x="57.603263" y="258.04665" style="stroke: #000000; stroke-width: 0.8"/>
      </g>
     </g>
     <g id="text_1">
      <!-- $\mathdefault{0}$ -->
      <g transform="translate(53.045374 277.49995)scale(0.18 -0.18)">
       <defs>
        <path id="HFBR17-30" d="M 947 4083 
C 762 3955 634 3782 538 3584 
C 307 3136 282 2611 282 2041 
C 282 1324 410 665 768 288 
C 1107 -65 1645 -154 2099 31 
C 2381 140 2586 377 2714 633 
C 2944 1088 2970 1632 2970 2195 
C 2970 2374 2963 2553 2944 2732 
C 2899 3161 2752 3635 2515 3897 
C 2125 4326 1427 4422 947 4083 
z
M 2234 3718 
C 2534 3398 2560 2784 2560 2201 
L 2560 1856 
C 2560 1561 2509 1177 2445 960 
C 2355 659 2208 441 1914 307 
C 1555 179 1184 300 979 582 
C 704 947 691 1593 691 2163 
C 691 2700 698 3296 960 3648 
C 1248 4031 1869 4095 2234 3718 
z
" transform="scale(0.015625)"/>
       </defs>
       <use xlink:href="#HFBR17-30" transform="scale(0.996264)"/>
      </g>
     </g>
    </g>
    <g id="xtick_2">
     <g id="line2d_3">
      <path d="M 147.785081 258.04665 
L 147.785081 13.42665 
" clip-path="url(#pdf6c6728bf)" style="fill: none; stroke: #b0b0b0; stroke-width: 0.8; stroke-linecap: square"/>
     </g>
     <g id="line2d_4">
      <g>
       <use xlink:href="#md18246eb7f" x="147.785081" y="258.04665" style="stroke: #000000; stroke-width: 0.8"/>
      </g>
     </g>
     <g id="text_2">
      <!-- $\mathdefault{20}$ -->
      <g transform="translate(138.669302 277.49995)scale(0.18 -0.18)">
       <defs>
        <path id="HFBR17-32" d="M 467 2937 
C 557 3296 710 3705 1075 3865 
C 1229 3929 1395 3942 1562 3929 
C 1875 3904 2182 3776 2374 3520 
C 2515 3328 2566 3091 2541 2860 
C 2464 2195 1811 1715 1389 1356 
C 1146 1152 454 499 454 499 
L 346 396 
C 288 339 282 339 282 224 
L 282 0 
L 2970 0 
L 2970 358 
L 653 358 
C 858 556 1709 1305 1824 1395 
C 2195 1696 2611 1996 2835 2432 
C 3085 2931 2976 3558 2554 3929 
C 2298 4153 1946 4262 1606 4275 
C 1293 4281 973 4217 723 4019 
C 531 3859 371 3622 282 3379 
C 262 3341 230 3277 237 3232 
C 243 3193 282 3161 301 3136 
C 352 3072 403 2995 467 2937 
z
" transform="scale(0.015625)"/>
       </defs>
       <use xlink:href="#HFBR17-32" transform="scale(0.996264)"/>
       <use xlink:href="#HFBR17-30" transform="translate(50.643218 0)scale(0.996264)"/>
      </g>
     </g>
    </g>
    <g id="xtick_3">
     <g id="line2d_5">
      <path d="M 237.9669 258.04665 
L 237.9669 13.42665 
" clip-path="url(#pdf6c6728bf)" style="fill: none; stroke: #b0b0b0; stroke-width: 0.8; stroke-linecap: square"/>
     </g>
     <g id="line2d_6">
      <g>
       <use xlink:href="#md18246eb7f" x="237.9669" y="258.04665" style="stroke: #000000; stroke-width: 0.8"/>
      </g>
     </g>
     <g id="text_3">
      <!-- $\mathdefault{40}$ -->
      <g transform="translate(228.85112 277.49995)scale(0.18 -0.18)">
       <defs>
        <path id="HFBR17-34" d="M 134 1152 
L 1984 1152 
L 1984 0 
L 2387 0 
L 2387 1152 
L 3117 1152 
L 3117 1491 
L 2387 1491 
L 2387 4230 
L 2042 4230 
C 1926 4230 1894 4236 1843 4140 
C 1587 3724 237 1644 192 1587 
C 141 1497 134 1504 134 1369 
L 134 1152 
z
M 2003 3884 
L 2003 1491 
L 550 1491 
C 595 1580 659 1664 717 1753 
C 1037 2246 1798 3417 1958 3782 
C 1978 3814 1984 3852 2003 3884 
z
" transform="scale(0.015625)"/>
       </defs>
       <use xlink:href="#HFBR17-34" transform="scale(0.996264)"/>
       <use xlink:href="#HFBR17-30" transform="translate(50.643218 0)scale(0.996264)"/>
      </g>
     </g>
    </g>
    <g id="xtick_4">
     <g id="line2d_7">
      <path d="M 328.148718 258.04665 
L 328.148718 13.42665 
" clip-path="url(#pdf6c6728bf)" style="fill: none; stroke: #b0b0b0; stroke-width: 0.8; stroke-linecap: square"/>
     </g>
     <g id="line2d_8">
      <g>
       <use xlink:href="#md18246eb7f" x="328.148718" y="258.04665" style="stroke: #000000; stroke-width: 0.8"/>
      </g>
     </g>
     <g id="text_4">
      <!-- $\mathdefault{60}$ -->
      <g transform="translate(319.032938 277.49995)scale(0.18 -0.18)">
       <defs>
        <path id="HFBR17-36" d="M 723 2099 
L 717 2099 
C 717 2683 819 3364 1318 3736 
C 1594 3935 1965 4038 2445 3922 
C 2547 3897 2643 3858 2739 3832 
L 2739 4057 
C 2739 4083 2746 4127 2726 4153 
C 2682 4211 2323 4268 2310 4268 
C 1754 4332 1389 4211 1050 3922 
C 640 3569 403 3049 326 2522 
C 256 2099 314 1418 397 1084 
C 531 589 787 153 1261 -13 
C 1542 -116 1888 -97 2157 31 
C 2374 134 2554 313 2694 506 
C 2918 814 2976 1187 2950 1566 
C 2938 1752 2912 1938 2835 2111 
C 2714 2388 2509 2677 2246 2805 
C 2125 2856 1997 2863 1869 2863 
C 1530 2856 1210 2709 973 2465 
C 870 2362 768 2233 723 2099 
z
M 1562 2542 
C 1805 2561 2061 2522 2246 2349 
C 2490 2118 2534 1790 2534 1476 
C 2534 1264 2541 1045 2477 846 
C 2438 744 2387 654 2330 570 
C 2189 384 2010 294 1715 256 
C 1427 236 1139 352 973 596 
C 870 737 819 911 787 1078 
C 749 1251 723 1431 736 1604 
C 768 2060 1088 2477 1562 2542 
z
" transform="scale(0.015625)"/>
       </defs>
       <use xlink:href="#HFBR17-36" transform="scale(0.996264)"/>
       <use xlink:href="#HFBR17-30" transform="translate(50.643218 0)scale(0.996264)"/>
      </g>
     </g>
    </g>
    <g id="text_5">
     <!-- Wavelength [km] -->
     <g transform="translate(167.155882 299.421434)scale(0.18 -0.18)">
      <defs>
       <path id="CMSS17-57" d="M 5581 4416 
L 5094 4416 
L 4557 2436 
C 4474 2118 4397 1800 4320 1482 
C 4205 1012 4122 681 4109 516 
L 4102 516 
C 4090 687 4006 1050 3904 1457 
C 3827 1794 3744 2131 3654 2462 
L 3123 4416 
L 2586 4416 
L 2080 2564 
L 1824 1552 
C 1632 751 1626 636 1613 509 
L 1606 509 
C 1606 547 1581 757 1402 1501 
C 1312 1870 1222 2246 1126 2602 
L 634 4416 
L 83 4416 
L 1299 0 
L 1830 0 
L 2336 1838 
L 2592 2850 
C 2765 3562 2803 3740 2816 3899 
L 2822 3899 
C 2822 3874 2880 3473 3130 2544 
L 3808 0 
L 4365 0 
L 5581 4416 
z
" transform="scale(0.015625)"/>
       <path id="CMSS17-61" d="M 2406 1789 
C 2406 2399 1978 2816 1402 2816 
C 1120 2816 813 2764 461 2559 
L 499 2133 
C 659 2250 934 2438 1395 2438 
C 1722 2438 1920 2185 1920 1782 
L 1920 1536 
C 896 1504 256 1209 256 711 
C 256 452 416 -64 947 -64 
C 1043 -64 1562 -52 1933 224 
L 1933 -13 
L 2406 -13 
L 2406 1789 
z
M 1920 824 
C 1920 711 1920 559 1728 446 
C 1562 339 1350 326 1261 326 
C 941 326 723 503 723 723 
C 723 1165 1722 1209 1920 1216 
L 1920 824 
z
" transform="scale(0.015625)"/>
       <path id="CMSS17-76" d="M 2675 2752 
L 2176 2752 
L 1747 1555 
C 1613 1164 1421 627 1389 352 
L 1382 352 
C 1370 467 1318 633 1286 748 
C 1248 889 1197 1056 1158 1171 
L 595 2752 
L 83 2752 
L 1094 0 
L 1664 0 
L 2675 2752 
z
" transform="scale(0.015625)"/>
       <path id="CMSS17-65" d="M 2502 1375 
C 2502 1587 2490 2001 2285 2347 
C 2061 2713 1696 2816 1421 2816 
C 755 2816 192 2184 192 1363 
C 192 579 774 -64 1510 -64 
C 1798 -64 2150 19 2470 249 
C 2470 275 2458 414 2451 421 
C 2451 433 2432 629 2432 655 
C 2125 408 1773 326 1517 326 
C 1107 326 666 667 646 1375 
L 2502 1375 
z
M 698 1728 
C 781 2086 1062 2425 1421 2425 
C 1517 2425 1965 2412 2080 1728 
L 698 1728 
z
" transform="scale(0.015625)"/>
       <path id="CMSS17-6c" d="M 947 4416 
L 474 4416 
L 474 0 
L 947 0 
L 947 4416 
z
" transform="scale(0.015625)"/>
       <path id="CMSS17-6e" d="M 2618 1878 
C 2618 2283 2522 2816 1798 2816 
C 1389 2816 1120 2604 941 2386 
L 941 2783 
L 474 2783 
L 474 0 
L 960 0 
L 960 1556 
C 960 1962 1114 2425 1549 2425 
C 2112 2425 2131 2045 2131 1826 
L 2131 0 
L 2618 0 
L 2618 1878 
z
" transform="scale(0.015625)"/>
       <path id="CMSS17-67" d="M 2848 2816 
C 2483 2809 2170 2739 1914 2617 
C 1702 2783 1485 2816 1338 2816 
C 781 2816 358 2356 358 1824 
C 358 1481 550 1222 563 1209 
C 448 1049 384 876 384 684 
C 384 460 474 300 544 211 
C 211 6 166 -308 166 -429 
C 166 -896 749 -1280 1498 -1280 
C 2253 -1280 2835 -896 2835 -423 
C 2835 460 1856 467 1587 467 
L 1069 467 
C 973 467 717 467 717 793 
C 717 921 774 1004 781 1011 
C 877 940 1075 832 1338 832 
C 1869 832 2310 1279 2310 1824 
C 2310 2128 2170 2349 2112 2425 
L 2131 2425 
C 2150 2425 2419 2444 2515 2444 
C 2720 2444 2739 2438 2918 2419 
L 2848 2816 
z
M 1338 1184 
C 1120 1184 813 1317 813 1824 
C 813 2375 1165 2463 1331 2463 
C 1549 2463 1856 2330 1856 1824 
C 1856 1272 1504 1184 1338 1184 
z
M 1581 0 
C 1734 0 2381 0 2381 -436 
C 2381 -711 1984 -928 1504 -928 
C 1018 -928 621 -717 621 -429 
C 621 -397 621 0 1062 0 
L 1581 0 
z
" transform="scale(0.015625)"/>
       <path id="CMSS17-74" d="M 1069 2380 
L 1901 2380 
L 1901 2752 
L 1069 2752 
L 1069 3520 
L 614 3520 
L 614 2752 
L 109 2752 
L 109 2380 
L 602 2380 
L 602 751 
C 602 384 685 -64 1107 -64 
C 1427 -64 1722 25 2003 172 
L 1901 551 
C 1747 416 1562 339 1363 339 
C 1082 339 1069 699 1069 860 
L 1069 2380 
z
" transform="scale(0.015625)"/>
       <path id="CMSS17-68" d="M 2618 1878 
C 2618 2283 2522 2816 1798 2816 
C 1395 2816 1133 2617 947 2399 
L 947 4416 
L 474 4416 
L 474 0 
L 960 0 
L 960 1556 
C 960 1962 1114 2425 1549 2425 
C 2112 2425 2131 2045 2131 1826 
L 2131 0 
L 2618 0 
L 2618 1878 
z
" transform="scale(0.015625)"/>
       <path id="CMSS17-5b" d="M 1613 -1600 
L 1613 -1210 
L 1062 -1210 
L 1062 4409 
L 1613 4409 
L 1613 4800 
L 595 4800 
L 595 -1600 
L 1613 -1600 
z
" transform="scale(0.015625)"/>
       <path id="CMSS17-6b" d="M 1696 1686 
L 2688 2735 
L 2074 2735 
L 954 1552 
L 954 4416 
L 480 4416 
L 480 0 
L 947 0 
L 947 891 
L 1376 1342 
L 2278 0 
L 2822 0 
L 1696 1686 
z
" transform="scale(0.015625)"/>
       <path id="CMSS17-6d" d="M 4288 1878 
C 4288 2309 4179 2816 3462 2816 
C 2982 2816 2694 2515 2566 2328 
C 2451 2668 2182 2816 1798 2816 
C 1363 2816 1088 2566 941 2386 
L 941 2783 
L 474 2783 
L 474 0 
L 960 0 
L 960 1556 
C 960 1936 1101 2425 1555 2425 
C 2138 2425 2138 2013 2138 1826 
L 2138 0 
L 2624 0 
L 2624 1556 
C 2624 1936 2765 2425 3219 2425 
C 3802 2425 3802 2013 3802 1826 
L 3802 0 
L 4288 0 
L 4288 1878 
z
" transform="scale(0.015625)"/>
       <path id="CMSS17-5d" d="M 1146 4800 
L 128 4800 
L 128 4409 
L 678 4409 
L 678 -1210 
L 128 -1210 
L 128 -1600 
L 1146 -1600 
L 1146 4800 
z
" transform="scale(0.015625)"/>
      </defs>
      <use xlink:href="#CMSS17-57" transform="scale(0.996264)"/>
      <use xlink:href="#CMSS17-61" transform="translate(85.639712 0)scale(0.996264)"/>
      <use xlink:href="#CMSS17-76" transform="translate(130.561633 0)scale(0.996264)"/>
      <use xlink:href="#CMSS17-65" transform="translate(173.561775 0)scale(0.996264)"/>
      <use xlink:href="#CMSS17-6c" transform="translate(215.200597 0)scale(0.996264)"/>
      <use xlink:href="#CMSS17-65" transform="translate(237.38132 0)scale(0.996264)"/>
      <use xlink:href="#CMSS17-6e" transform="translate(279.020142 0)scale(0.996264)"/>
      <use xlink:href="#CMSS17-67" transform="translate(327.225085 0)scale(0.996264)"/>
      <use xlink:href="#CMSS17-74" transform="translate(374.068708 0)scale(0.996264)"/>
      <use xlink:href="#CMSS17-68" transform="translate(407.900275 0)scale(0.996264)"/>
      <use xlink:href="#CMSS17-5b" transform="translate(487.334331 0)scale(0.996264)"/>
      <use xlink:href="#CMSS17-6b" transform="translate(514.51977 0)scale(0.996264)"/>
      <use xlink:href="#CMSS17-6d" transform="translate(560.122259 0)scale(0.996264)"/>
      <use xlink:href="#CMSS17-5d" transform="translate(634.351513 0)scale(0.996264)"/>
     </g>
    </g>
   </g>
   <g id="matplotlib.axis_2">
    <g id="ytick_1">
     <g id="line2d_9">
      <path d="M 57.603263 258.04665 
L 395.785081 258.04665 
" clip-path="url(#pdf6c6728bf)" style="fill: none; stroke: #b0b0b0; stroke-width: 0.8; stroke-linecap: square"/>
     </g>
     <g id="line2d_10">
      <defs>
       <path id="m443be15123" d="M 0 0 
L -2.5 0 
" style="stroke: #000000; stroke-width: 0.8"/>
      </defs>
      <g>
       <use xlink:href="#m443be15123" x="57.603263" y="258.04665" style="stroke: #000000; stroke-width: 0.8"/>
      </g>
     </g>
     <g id="text_6">
      <!-- $\mathdefault{0.0}$ -->
      <g transform="translate(28.141364 264.2733)scale(0.18 -0.18)">
       <defs>
        <path id="HFBRMI10-3a" d="M 685 499 
L 685 0 
L 1184 0 
L 1184 499 
L 685 499 
z
" transform="scale(0.015625)"/>
       </defs>
       <use xlink:href="#HFBR17-30" transform="scale(0.996264)"/>
       <use xlink:href="#HFBRMI10-3a" transform="translate(50.643218 0)scale(0.996264)"/>
       <use xlink:href="#HFBR17-30" transform="translate(79.700665 0)scale(0.996264)"/>
      </g>
     </g>
    </g>
    <g id="ytick_2">
     <g id="line2d_11">
      <path d="M 57.603263 209.12265 
L 395.785081 209.12265 
" clip-path="url(#pdf6c6728bf)" style="fill: none; stroke: #b0b0b0; stroke-width: 0.8; stroke-linecap: square"/>
     </g>
     <g id="line2d_12">
      <g>
       <use xlink:href="#m443be15123" x="57.603263" y="209.12265" style="stroke: #000000; stroke-width: 0.8"/>
      </g>
     </g>
     <g id="text_7">
      <!-- $\mathdefault{0.2}$ -->
      <g transform="translate(28.141364 215.3493)scale(0.18 -0.18)">
       <use xlink:href="#HFBR17-30" transform="scale(0.996264)"/>
       <use xlink:href="#HFBRMI10-3a" transform="translate(50.643218 0)scale(0.996264)"/>
       <use xlink:href="#HFBR17-32" transform="translate(79.700665 0)scale(0.996264)"/>
      </g>
     </g>
    </g>
    <g id="ytick_3">
     <g id="line2d_13">
      <path d="M 57.603263 160.19865 
L 395.785081 160.19865 
" clip-path="url(#pdf6c6728bf)" style="fill: none; stroke: #b0b0b0; stroke-width: 0.8; stroke-linecap: square"/>
     </g>
     <g id="line2d_14">
      <g>
       <use xlink:href="#m443be15123" x="57.603263" y="160.19865" style="stroke: #000000; stroke-width: 0.8"/>
      </g>
     </g>
     <g id="text_8">
      <!-- $\mathdefault{0.4}$ -->
      <g transform="translate(28.141364 166.4253)scale(0.18 -0.18)">
       <use xlink:href="#HFBR17-30" transform="scale(0.996264)"/>
       <use xlink:href="#HFBRMI10-3a" transform="translate(50.643218 0)scale(0.996264)"/>
       <use xlink:href="#HFBR17-34" transform="translate(79.700665 0)scale(0.996264)"/>
      </g>
     </g>
    </g>
    <g id="ytick_4">
     <g id="line2d_15">
      <path d="M 57.603263 111.27465 
L 395.785081 111.27465 
" clip-path="url(#pdf6c6728bf)" style="fill: none; stroke: #b0b0b0; stroke-width: 0.8; stroke-linecap: square"/>
     </g>
     <g id="line2d_16">
      <g>
       <use xlink:href="#m443be15123" x="57.603263" y="111.27465" style="stroke: #000000; stroke-width: 0.8"/>
      </g>
     </g>
     <g id="text_9">
      <!-- $\mathdefault{0.6}$ -->
      <g transform="translate(28.141364 117.5013)scale(0.18 -0.18)">
       <use xlink:href="#HFBR17-30" transform="scale(0.996264)"/>
       <use xlink:href="#HFBRMI10-3a" transform="translate(50.643218 0)scale(0.996264)"/>
       <use xlink:href="#HFBR17-36" transform="translate(79.700665 0)scale(0.996264)"/>
      </g>
     </g>
    </g>
    <g id="ytick_5">
     <g id="line2d_17">
      <path d="M 57.603263 62.35065 
L 395.785081 62.35065 
" clip-path="url(#pdf6c6728bf)" style="fill: none; stroke: #b0b0b0; stroke-width: 0.8; stroke-linecap: square"/>
     </g>
     <g id="line2d_18">
      <g>
       <use xlink:href="#m443be15123" x="57.603263" y="62.35065" style="stroke: #000000; stroke-width: 0.8"/>
      </g>
     </g>
     <g id="text_10">
      <!-- $\mathdefault{0.8}$ -->
      <g transform="translate(28.141364 68.5773)scale(0.18 -0.18)">
       <defs>
        <path id="HFBR17-38" d="M 1197 2275 
L 1197 2269 
C 800 2153 467 1935 307 1563 
C 141 1172 256 698 538 390 
C 838 70 1248 -84 1683 -77 
C 2323 -65 2938 403 3014 1057 
C 3027 1153 3021 1256 3008 1352 
C 2893 1845 2528 2140 2054 2269 
C 2106 2288 2163 2301 2214 2320 
C 2483 2429 2707 2589 2848 2846 
C 3059 3256 2854 3737 2509 4000 
C 2163 4262 1696 4332 1274 4243 
C 768 4134 288 3705 320 3153 
C 333 2961 416 2801 512 2685 
C 659 2506 947 2313 1197 2275 
z
M 1523 3961 
C 1805 3980 2157 3929 2362 3711 
C 2605 3448 2618 2974 2374 2705 
C 2221 2538 1997 2455 1773 2435 
C 1459 2410 1101 2461 877 2705 
C 627 2980 646 3480 915 3737 
C 1082 3891 1306 3942 1523 3961 
z
M 1517 2108 
C 1818 2128 2144 2057 2362 1839 
C 2445 1749 2509 1640 2547 1525 
C 2656 1192 2605 768 2355 512 
C 2182 339 1946 275 1709 256 
C 1421 236 1088 307 883 525 
C 602 833 544 1467 877 1826 
C 1043 1999 1280 2089 1517 2108 
z
" transform="scale(0.015625)"/>
       </defs>
       <use xlink:href="#HFBR17-30" transform="scale(0.996264)"/>
       <use xlink:href="#HFBRMI10-3a" transform="translate(50.643218 0)scale(0.996264)"/>
       <use xlink:href="#HFBR17-38" transform="translate(79.700665 0)scale(0.996264)"/>
      </g>
     </g>
    </g>
    <g id="ytick_6">
     <g id="line2d_19">
      <path d="M 57.603263 13.42665 
L 395.785081 13.42665 
" clip-path="url(#pdf6c6728bf)" style="fill: none; stroke: #b0b0b0; stroke-width: 0.8; stroke-linecap: square"/>
     </g>
     <g id="line2d_20">
      <g>
       <use xlink:href="#m443be15123" x="57.603263" y="13.42665" style="stroke: #000000; stroke-width: 0.8"/>
      </g>
     </g>
     <g id="text_11">
      <!-- $\mathdefault{1.0}$ -->
      <g transform="translate(28.141364 19.6533)scale(0.18 -0.18)">
       <defs>
        <path id="HFBR17-31" d="M 621 3840 
L 621 3520 
C 973 3520 1216 3584 1498 3705 
L 1498 320 
L 659 320 
L 659 0 
L 2752 0 
L 2752 320 
L 1914 320 
L 1914 4262 
C 1760 4262 1786 4224 1664 4134 
C 1402 3942 1037 3840 621 3840 
z
" transform="scale(0.015625)"/>
       </defs>
       <use xlink:href="#HFBR17-31" transform="scale(0.996264)"/>
       <use xlink:href="#HFBRMI10-3a" transform="translate(50.643218 0)scale(0.996264)"/>
       <use xlink:href="#HFBR17-30" transform="translate(79.700665 0)scale(0.996264)"/>
      </g>
     </g>
    </g>
    <g id="text_12">
     <!-- Spectral coherence -->
     <g transform="translate(19.6533 201.757352)rotate(-90)scale(0.18 -0.18)">
      <defs>
       <path id="CMSS17-53" d="M 2797 4230 
C 2515 4396 2208 4544 1690 4544 
C 864 4544 333 3934 333 3309 
C 333 3064 403 2787 653 2504 
C 902 2220 1184 2143 1542 2053 
C 1690 2014 1939 1943 1984 1924 
C 2342 1782 2515 1454 2515 1144 
C 2515 738 2202 307 1645 307 
C 1453 307 890 339 358 829 
L 269 320 
C 794 -64 1363 -128 1651 -128 
C 2438 -128 3002 494 3002 1202 
C 3002 1460 2925 1789 2656 2092 
C 2394 2381 2163 2446 1638 2588 
C 1338 2665 1146 2717 986 2916 
C 877 3058 819 3193 819 3367 
C 819 3728 1126 4121 1690 4121 
C 1971 4121 2336 4063 2707 3715 
L 2797 4230 
z
" transform="scale(0.015625)"/>
       <path id="CMSS17-70" d="M 966 275 
C 1178 70 1466 -64 1773 -64 
C 2368 -64 2880 553 2880 1382 
C 2880 2147 2496 2816 1946 2816 
C 1626 2816 1242 2700 954 2470 
L 954 2764 
L 480 2764 
L 480 -1280 
L 966 -1280 
L 966 275 
z
M 966 2088 
C 1018 2166 1235 2412 1587 2412 
C 2035 2412 2394 1946 2394 1382 
C 2394 741 1958 326 1530 326 
C 1402 326 1267 358 1139 468 
C 966 624 966 721 966 812 
L 966 2088 
z
" transform="scale(0.015625)"/>
       <path id="CMSS17-63" d="M 2464 2540 
C 2464 2585 2170 2713 2093 2739 
C 1882 2816 1613 2816 1542 2816 
C 710 2816 211 2092 211 1363 
C 211 595 768 -64 1517 -64 
C 1946 -64 2253 76 2502 243 
L 2464 665 
C 2189 454 1869 339 1523 339 
C 1024 339 698 774 698 1369 
C 698 1830 909 2412 1549 2412 
C 1901 2412 2099 2342 2394 2143 
L 2464 2540 
z
" transform="scale(0.015625)"/>
       <path id="CMSS17-72" d="M 954 1369 
C 954 1974 1395 2379 1958 2392 
L 1958 2816 
C 1549 2809 1165 2604 934 2270 
L 934 2783 
L 480 2783 
L 480 0 
L 954 0 
L 954 1369 
z
" transform="scale(0.015625)"/>
       <path id="CMSS17-6f" d="M 2829 1356 
C 2829 2175 2221 2816 1504 2816 
C 768 2816 173 2156 173 1356 
C 173 544 787 -64 1498 -64 
C 2227 -64 2829 563 2829 1356 
z
M 1504 339 
C 1050 339 659 710 659 1407 
C 659 2150 1114 2425 1498 2425 
C 1914 2425 2342 2124 2342 1407 
C 2342 684 1926 339 1504 339 
z
" transform="scale(0.015625)"/>
      </defs>
      <use xlink:href="#CMSS17-53" transform="scale(0.996264)"/>
      <use xlink:href="#CMSS17-70" transform="translate(52.048516 0)scale(0.996264)"/>
      <use xlink:href="#CMSS17-65" transform="translate(102.855898 0)scale(0.996264)"/>
      <use xlink:href="#CMSS17-63" transform="translate(144.49472 0)scale(0.996264)"/>
      <use xlink:href="#CMSS17-74" transform="translate(186.133542 0)scale(0.996264)"/>
      <use xlink:href="#CMSS17-72" transform="translate(219.965109 0)scale(0.996264)"/>
      <use xlink:href="#CMSS17-61" transform="translate(251.874881 0)scale(0.996264)"/>
      <use xlink:href="#CMSS17-6c" transform="translate(296.796802 0)scale(0.996264)"/>
      <use xlink:href="#CMSS17-63" transform="translate(350.206638 0)scale(0.996264)"/>
      <use xlink:href="#CMSS17-6f" transform="translate(391.84546 0)scale(0.996264)"/>
      <use xlink:href="#CMSS17-68" transform="translate(438.689083 0)scale(0.996264)"/>
      <use xlink:href="#CMSS17-65" transform="translate(486.894027 0)scale(0.996264)"/>
      <use xlink:href="#CMSS17-72" transform="translate(528.532849 0)scale(0.996264)"/>
      <use xlink:href="#CMSS17-65" transform="translate(560.442621 0)scale(0.996264)"/>
      <use xlink:href="#CMSS17-6e" transform="translate(602.081443 0)scale(0.996264)"/>
      <use xlink:href="#CMSS17-63" transform="translate(650.286386 0)scale(0.996264)"/>
      <use xlink:href="#CMSS17-65" transform="translate(691.925208 0)scale(0.996264)"/>
     </g>
    </g>
   </g>
   <g id="line2d_21">
    <path d="M 57.603263 85.074189 
L 395.785081 85.074189 
" clip-path="url(#pdf6c6728bf)" style="fill: none; stroke-dasharray: 7.4,3.2; stroke-dashoffset: 0; stroke: #000000; stroke-width: 2"/>
   </g>
   <g id="line2d_22">
    <path d="M 623.803263 69.460768 
L 508.512354 74.849141 
L 418.330536 79.233544 
L 358.209324 82.766997 
L 315.265601 87.057011 
L 283.057809 91.364769 
L 258.007304 96.377303 
L 237.9669 101.56238 
L 221.570205 106.081363 
L 207.906293 111.138956 
L 196.344522 116.428654 
L 186.434432 122.303792 
L 177.845687 127.458035 
L 170.330536 132.946264 
L 163.69952 138.958493 
L 157.805283 145.104806 
L 152.531493 151.439842 
L 147.785081 157.076116 
L 143.490709 163.341489 
L 139.586734 168.847852 
L 136.022235 174.094684 
L 132.754778 179.814363 
L 129.748718 184.733752 
L 126.973893 190.012011 
L 124.40461 195.018477 
L 122.018848 199.305028 
L 119.797621 203.714585 
L 117.724475 207.899023 
L 115.785081 212.080108 
L 113.9669 215.437096 
L 112.258911 218.39888 
L 110.651391 221.346259 
L 109.135731 223.688542 
L 107.704273 226.513362 
L 106.350192 229.010033 
L 105.067378 231.666 
L 103.850349 233.933574 
L 102.694172 235.955559 
L 101.594394 237.831373 
L 100.546986 239.083384 
L 99.548295 240.03896 
L 98.594999 241.222857 
L 97.684071 241.959735 
L 96.812749 242.560006 
L 95.978505 243.051707 
L 95.179021 243.70833 
L 94.412169 244.301143 
L 93.67599 244.399825 
L 92.968682 244.891572 
L 92.288578 245.451693 
L 91.634138 245.992085 
L 91.003937 246.167956 
L 90.396652 246.6334 
L 89.811055 247.296542 
L 89.246006 247.154696 
L 88.700442 246.69342 
L 88.173371 246.5933 
L 87.663869 246.92925 
L 87.171072 247.221845 
L 86.694172 247.482437 
L 86.232412 247.704217 
L 85.785081 247.775574 
L 85.351515 247.834997 
L 84.931087 248.124757 
L 84.523209 248.093539 
L 84.127327 248.364333 
L 83.742921 248.043988 
L 83.369497 247.404987 
L 83.006592 247.157171 
L 82.653768 247.438626 
L 82.310611 247.602792 
L 81.976728 247.472617 
L 81.651748 247.286443 
L 81.335321 247.421541 
L 81.027112 247.743764 
L 80.726806 248.365626 
" clip-path="url(#pdf6c6728bf)" style="fill: none; stroke: #377eb8; stroke-width: 2; stroke-linecap: square"/>
   </g>
   <g id="line2d_23">
    <path d="M 623.803263 70.428498 
L 508.512354 75.650964 
L 418.330536 79.7766 
L 358.209324 83.08283 
L 315.265601 87.097106 
L 283.057809 91.030105 
L 258.007304 95.347868 
L 237.9669 99.641145 
L 221.570205 103.345184 
L 207.906293 107.485194 
L 196.344522 112.121184 
L 186.434432 117.660011 
L 177.845687 122.486764 
L 170.330536 127.305931 
L 163.69952 132.4346 
L 157.805283 137.839144 
L 152.531493 143.190783 
L 147.785081 148.045401 
L 143.490709 153.822325 
L 139.586734 159.045248 
L 136.022235 163.820185 
L 132.754778 168.918864 
L 129.748718 174.081508 
L 126.973893 179.456338 
L 124.40461 184.374611 
L 122.018848 188.832654 
L 119.797621 192.865488 
L 117.724475 196.520172 
L 115.785081 200.688731 
L 113.9669 204.157385 
L 112.258911 207.477125 
L 110.651391 210.72182 
L 109.135731 213.185299 
L 107.704273 215.902443 
L 106.350192 218.38538 
L 105.067378 221.450336 
L 103.850349 224.117096 
L 102.694172 226.481934 
L 101.594394 229.038832 
L 100.546986 230.903808 
L 99.548295 232.11444 
L 98.594999 233.621502 
L 97.684071 235.060326 
L 96.812749 236.183502 
L 95.978505 237.14406 
L 95.179021 238.317592 
L 94.412169 239.561984 
L 93.67599 240.920759 
L 92.968682 242.153442 
L 92.288578 242.501987 
L 91.634138 243.138939 
L 91.003937 243.70886 
L 90.396652 244.261809 
L 89.811055 244.639572 
L 89.246006 244.685052 
L 88.700442 244.917035 
L 88.173371 245.278262 
L 87.663869 245.632266 
L 87.171072 245.776079 
L 86.694172 245.938871 
L 86.232412 246.192705 
L 85.785081 246.070913 
L 85.351515 246.08589 
L 84.931087 246.236179 
L 84.523209 246.22124 
L 84.127327 246.7659 
L 83.742921 246.793437 
L 83.369497 246.554208 
L 83.006592 246.693342 
L 82.653768 246.979257 
L 82.310611 247.199854 
L 81.976728 247.272447 
L 81.651748 247.243553 
L 81.335321 246.922677 
L 81.027112 246.770785 
L 80.726806 247.425031 
" clip-path="url(#pdf6c6728bf)" style="fill: none; stroke: #214c6e; stroke-width: 2; stroke-linecap: square"/>
   </g>
   <g id="line2d_24">
    <path d="M 623.803263 54.474896 
L 508.512354 57.788846 
L 418.330536 60.309834 
L 358.209324 62.354277 
L 315.265601 64.876673 
L 283.057809 67.505516 
L 258.007304 70.511617 
L 237.9669 73.664224 
L 221.570205 76.546408 
L 207.906293 79.66773 
L 196.344522 82.950311 
L 186.434432 86.602989 
L 177.845687 89.880211 
L 170.330536 93.328052 
L 163.69952 97.415071 
L 157.805283 101.254526 
L 152.531493 105.04387 
L 147.785081 108.450834 
L 143.490709 112.398265 
L 139.586734 116.369968 
L 136.022235 120.235861 
L 132.754778 124.265512 
L 129.748718 128.279398 
L 126.973893 132.564993 
L 124.40461 136.667732 
L 122.018848 140.480602 
L 119.797621 144.630861 
L 117.724475 148.828613 
L 115.785081 153.623946 
L 113.9669 158.009918 
L 112.258911 162.276885 
L 110.651391 166.695229 
L 109.135731 170.87053 
L 107.704273 175.493456 
L 106.350192 179.375713 
L 105.067378 184.021947 
L 103.850349 188.180352 
L 102.694172 191.896042 
L 101.594394 196.138252 
L 100.546986 200.076091 
L 99.548295 203.566865 
L 98.594999 206.884042 
L 97.684071 209.636708 
L 96.812749 212.547746 
L 95.978505 215.459421 
L 95.179021 218.300818 
L 94.412169 221.015995 
L 93.67599 223.38638 
L 92.968682 225.318384 
L 92.288578 226.699451 
L 91.634138 228.429269 
L 91.003937 230.1025 
L 90.396652 231.806723 
L 89.811055 233.189111 
L 89.246006 233.934117 
L 88.700442 234.524309 
L 88.173371 235.494584 
L 87.663869 236.551703 
L 87.171072 237.163306 
L 86.694172 237.629849 
L 86.232412 238.77808 
L 85.785081 239.727057 
L 85.351515 240.386186 
L 84.931087 240.770085 
L 84.523209 240.479882 
L 84.127327 240.928255 
L 83.742921 241.117205 
L 83.369497 241.330403 
L 83.006592 241.695456 
L 82.653768 242.189514 
L 82.310611 242.649105 
L 81.976728 242.738954 
L 81.651748 242.649397 
L 81.335321 242.567868 
L 81.027112 242.630993 
L 80.726806 243.154653 
" clip-path="url(#pdf6c6728bf)" style="fill: none; stroke: #e41a1c; stroke-width: 2; stroke-linecap: square"/>
   </g>
   <g id="line2d_25">
    <path d="M 623.803263 53.539532 
L 508.512354 56.838732 
L 418.330536 58.939382 
L 358.209324 60.3891 
L 315.265601 62.285483 
L 283.057809 64.565684 
L 258.007304 67.2307 
L 237.9669 69.838199 
L 221.570205 72.222781 
L 207.906293 74.734247 
L 196.344522 77.494147 
L 186.434432 80.545104 
L 177.845687 83.26879 
L 170.330536 86.273519 
L 163.69952 89.825939 
L 157.805283 93.496943 
L 152.531493 97.128394 
L 147.785081 100.669132 
L 143.490709 104.763187 
L 139.586734 108.684389 
L 136.022235 112.635099 
L 132.754778 116.902334 
L 129.748718 121.366478 
L 126.973893 126.233752 
L 124.40461 130.887498 
L 122.018848 135.436433 
L 119.797621 139.977829 
L 117.724475 144.543123 
L 115.785081 149.845697 
L 113.9669 154.871858 
L 112.258911 160.040792 
L 110.651391 165.165281 
L 109.135731 169.997707 
L 107.704273 175.352562 
L 106.350192 179.916596 
L 105.067378 185.208352 
L 103.850349 190.07172 
L 102.694172 194.792665 
L 101.594394 199.792774 
L 100.546986 204.484172 
L 99.548295 208.930199 
L 98.594999 213.048528 
L 97.684071 216.216781 
L 96.812749 219.101453 
L 95.978505 221.940261 
L 95.179021 224.617867 
L 94.412169 227.19439 
L 93.67599 229.251225 
L 92.968682 230.707499 
L 92.288578 231.586034 
L 91.634138 232.991199 
L 91.003937 234.329604 
L 90.396652 235.521739 
L 89.811055 236.572018 
L 89.246006 236.693614 
L 88.700442 236.667448 
L 88.173371 237.1951 
L 87.663869 237.723219 
L 87.171072 237.828368 
L 86.694172 237.837187 
L 86.232412 238.525838 
L 85.785081 239.239725 
L 85.351515 239.583625 
L 84.931087 239.798254 
L 84.523209 239.677486 
L 84.127327 240.268143 
L 83.742921 240.141614 
L 83.369497 240.040718 
L 83.006592 240.197618 
L 82.653768 240.438746 
L 82.310611 240.595073 
L 81.976728 240.434707 
L 81.651748 240.221358 
L 81.335321 240.065401 
L 81.027112 240.073798 
L 80.726806 240.665091 
" clip-path="url(#pdf6c6728bf)" style="fill: none; stroke: #891011; stroke-width: 2; stroke-linecap: square"/>
   </g>
   <g id="patch_3">
    <path d="M 57.603263 258.04665 
L 57.603263 13.42665 
" style="fill: none; stroke: #000000; stroke-width: 0.8; stroke-linejoin: miter; stroke-linecap: square"/>
   </g>
   <g id="patch_4">
    <path d="M 57.603263 258.04665 
L 395.785081 258.04665 
" style="fill: none; stroke: #000000; stroke-width: 0.8; stroke-linejoin: miter; stroke-linecap: square"/>
   </g>
  </g>
  <g id="axes_2">
   <g id="legend_1">
    <g id="patch_5">
     <path d="M 456.24257 179.780529 
L 605.873047 179.780529 
L 605.873047 91.692771 
L 456.24257 91.692771 
z
" style="fill: #ffffff; stroke: #ffffff; stroke-linejoin: miter"/>
    </g>
    <g id="line2d_26">
     <path d="M 462.24017 102.938271 
L 477.23417 102.938271 
L 492.22817 102.938271 
" style="fill: none; stroke: #377eb8; stroke-width: 2; stroke-linecap: square"/>
    </g>
    <g id="text_13">
     <!-- GPROF V5 -->
     <g transform="translate(504.22337 108.186171)scale(0.14994 -0.14994)">
      <defs>
       <path id="CMSS17-47" d="M 3610 1868 
L 2336 1868 
L 2336 1472 
L 3123 1472 
L 3123 473 
C 2874 403 2618 352 2362 352 
C 1466 352 934 1311 934 2220 
C 934 3123 1491 4070 2362 4070 
C 2854 4070 3130 3916 3469 3660 
L 3552 4172 
C 3130 4390 2867 4480 2387 4480 
C 1146 4480 397 3353 397 2201 
C 397 1100 1152 -64 2349 -64 
C 2797 -64 3213 51 3610 249 
L 3610 1868 
z
" transform="scale(0.015625)"/>
       <path id="CMSS17-50" d="M 2106 1856 
C 2874 1856 3501 2447 3501 3139 
C 3501 3818 2899 4416 2067 4416 
L 570 4416 
L 570 0 
L 1107 0 
L 1107 1856 
L 2106 1856 
z
M 1926 4057 
C 2669 4057 2995 3598 2995 3139 
C 2995 2711 2694 2227 1926 2227 
L 1094 2227 
L 1094 4057 
L 1926 4057 
z
" transform="scale(0.015625)"/>
       <path id="CMSS17-52" d="M 2522 2099 
L 2534 2105 
C 3533 2450 3539 3125 3539 3244 
C 3539 3838 2925 4416 2003 4416 
L 570 4416 
L 570 0 
L 1094 0 
L 1094 2041 
L 2035 2041 
L 3168 0 
L 3706 0 
L 2522 2099 
z
M 1094 2432 
L 1094 4057 
L 1933 4057 
C 2746 4057 3034 3607 3034 3244 
C 3034 2907 2778 2432 1933 2432 
L 1094 2432 
z
" transform="scale(0.015625)"/>
       <path id="CMSS17-4f" d="M 4096 2201 
C 4096 3541 3219 4544 2214 4544 
C 1210 4544 333 3535 333 2201 
C 333 855 1222 -128 2214 -128 
C 3206 -128 4096 855 4096 2201 
z
M 2214 275 
C 1510 275 870 1067 870 2285 
C 870 3470 1549 4140 2214 4140 
C 2880 4140 3558 3470 3558 2285 
C 3558 1061 2912 275 2214 275 
z
" transform="scale(0.015625)"/>
       <path id="CMSS17-46" d="M 2918 1984 
L 2918 2374 
L 1101 2374 
L 1101 3993 
L 1882 3993 
C 1958 3993 2035 3987 2112 3987 
L 3168 3987 
L 3168 4403 
L 563 4403 
L 563 0 
L 1101 0 
L 1101 1984 
L 2918 1984 
z
" transform="scale(0.015625)"/>
       <path id="CMSS17-56" d="M 3910 4416 
L 3411 4416 
L 2304 1361 
C 2272 1272 2074 687 2035 484 
L 2029 484 
C 1978 725 1773 1291 1664 1603 
L 922 3670 
L 646 4416 
L 83 4416 
L 1715 0 
L 2278 0 
L 3910 4416 
z
" transform="scale(0.015625)"/>
       <path id="CMSS17-35" d="M 934 3814 
L 2502 3814 
L 2502 4224 
L 467 4224 
L 467 1830 
L 896 1830 
C 1011 2103 1248 2304 1555 2304 
C 1843 2304 2163 2044 2163 1299 
C 2163 502 1709 268 1376 268 
C 966 268 589 521 422 871 
L 218 508 
C 512 51 992 -128 1376 -128 
C 2118 -128 2701 508 2701 1286 
C 2701 2083 2182 2694 1562 2694 
C 1338 2694 1120 2617 934 2464 
L 934 3814 
z
" transform="scale(0.015625)"/>
      </defs>
      <use xlink:href="#CMSS17-47" transform="scale(0.996264)"/>
      <use xlink:href="#CMSS17-50" transform="translate(62.458226 0)scale(0.996264)"/>
      <use xlink:href="#CMSS17-52" transform="translate(122.193812 0)scale(0.996264)"/>
      <use xlink:href="#CMSS17-4f" transform="translate(182.609967 0)scale(0.996264)"/>
      <use xlink:href="#CMSS17-46" transform="translate(251.634222 0)scale(0.996264)"/>
      <use xlink:href="#CMSS17-56" transform="translate(336.152894 0)scale(0.996264)"/>
      <use xlink:href="#CMSS17-35" transform="translate(398.370749 0)scale(0.996264)"/>
     </g>
    </g>
    <g id="line2d_27">
     <path d="M 462.24017 123.835661 
L 477.23417 123.835661 
L 492.22817 123.835661 
" style="fill: none; stroke: #214c6e; stroke-width: 2; stroke-linecap: square"/>
    </g>
    <g id="text_14">
     <!-- GPROF V7 -->
     <g transform="translate(504.22337 129.083561)scale(0.14994 -0.14994)">
      <defs>
       <path id="CMSS17-37" d="M 1389 3788 
C 1466 3788 1542 3795 1619 3795 
L 2355 3795 
C 1440 2715 915 1350 915 -64 
L 1427 -64 
C 1427 1305 1875 2695 2752 3807 
L 2752 4224 
L 250 4224 
L 250 3788 
L 1389 3788 
z
" transform="scale(0.015625)"/>
      </defs>
      <use xlink:href="#CMSS17-47" transform="scale(0.996264)"/>
      <use xlink:href="#CMSS17-50" transform="translate(62.458226 0)scale(0.996264)"/>
      <use xlink:href="#CMSS17-52" transform="translate(122.193812 0)scale(0.996264)"/>
      <use xlink:href="#CMSS17-4f" transform="translate(182.609967 0)scale(0.996264)"/>
      <use xlink:href="#CMSS17-46" transform="translate(251.634222 0)scale(0.996264)"/>
      <use xlink:href="#CMSS17-56" transform="translate(336.152894 0)scale(0.996264)"/>
      <use xlink:href="#CMSS17-37" transform="translate(398.370749 0)scale(0.996264)"/>
     </g>
    </g>
    <g id="line2d_28">
     <path d="M 462.24017 144.73305 
L 477.23417 144.73305 
L 492.22817 144.73305 
" style="fill: none; stroke: #e41a1c; stroke-width: 2; stroke-linecap: square"/>
    </g>
    <g id="text_15">
     <!-- GPROF-NN 1D -->
     <g transform="translate(504.22337 149.98095)scale(0.14994 -0.14994)">
      <defs>
       <path id="CMSS17-2d" d="M 1664 1216 
L 1664 1587 
L 64 1587 
L 64 1216 
L 1664 1216 
z
" transform="scale(0.015625)"/>
       <path id="CMSS17-4e" d="M 1466 4179 
L 1350 4416 
L 563 4416 
L 563 0 
L 1062 0 
L 1062 3925 
L 1069 3931 
C 1114 3817 1139 3759 1402 3193 
L 2771 236 
L 2886 0 
L 3674 0 
L 3674 4416 
L 3174 4416 
L 3174 490 
L 3168 484 
C 3123 598 3098 655 2835 1222 
L 1466 4179 
z
" transform="scale(0.015625)"/>
       <path id="CMSS17-31" d="M 1818 4288 
L 1696 4288 
C 1350 3949 947 3902 538 3891 
L 538 3520 
C 723 3526 1024 3539 1325 3673 
L 1325 371 
L 570 371 
L 570 0 
L 2573 0 
L 2573 371 
L 1818 371 
L 1818 4288 
z
" transform="scale(0.015625)"/>
       <path id="CMSS17-44" d="M 570 4416 
L 570 0 
L 2144 0 
C 3194 0 4000 981 4000 2169 
C 4000 3396 3194 4416 2144 4416 
L 570 4416 
z
M 1094 358 
L 1094 4057 
L 2003 4057 
C 2861 4057 3475 3275 3475 2169 
C 3475 1108 2867 358 2003 358 
L 1094 358 
z
" transform="scale(0.015625)"/>
      </defs>
      <use xlink:href="#CMSS17-47" transform="scale(0.996264)"/>
      <use xlink:href="#CMSS17-50" transform="translate(62.458226 0)scale(0.996264)"/>
      <use xlink:href="#CMSS17-52" transform="translate(122.193812 0)scale(0.996264)"/>
      <use xlink:href="#CMSS17-4f" transform="translate(182.609967 0)scale(0.996264)"/>
      <use xlink:href="#CMSS17-46" transform="translate(251.634222 0)scale(0.996264)"/>
      <use xlink:href="#CMSS17-2d" transform="translate(304.923781 0)scale(0.996264)"/>
      <use xlink:href="#CMSS17-4e" transform="translate(336.152894 0)scale(0.996264)"/>
      <use xlink:href="#CMSS17-4e" transform="translate(402.214413 0)scale(0.996264)"/>
      <use xlink:href="#CMSS17-31" transform="translate(499.505045 0)scale(0.996264)"/>
      <use xlink:href="#CMSS17-44" transform="translate(546.348669 0)scale(0.996264)"/>
     </g>
    </g>
    <g id="line2d_29">
     <path d="M 462.24017 165.630439 
L 477.23417 165.630439 
L 492.22817 165.630439 
" style="fill: none; stroke: #891011; stroke-width: 2; stroke-linecap: square"/>
    </g>
    <g id="text_16">
     <!-- GPROF-NN 3D -->
     <g transform="translate(504.22337 170.878339)scale(0.14994 -0.14994)">
      <defs>
       <path id="CMSS17-33" d="M 1005 2060 
L 1440 2060 
C 2042 2060 2214 1532 2214 1164 
C 2214 662 1933 268 1472 268 
C 1114 268 608 449 320 926 
C 275 700 275 687 250 533 
C 550 89 1037 -128 1485 -128 
C 2214 -128 2752 481 2752 1158 
C 2752 1667 2400 2092 1920 2252 
C 2304 2463 2586 2860 2586 3321 
C 2586 3859 2093 4288 1491 4288 
C 941 4288 512 3948 333 3583 
C 378 3519 493 3334 550 3238 
C 691 3615 1056 3897 1485 3897 
C 1843 3897 2080 3660 2080 3321 
C 2080 2969 1856 2585 1478 2496 
C 1453 2496 1056 2457 1005 2451 
L 1005 2060 
z
" transform="scale(0.015625)"/>
      </defs>
      <use xlink:href="#CMSS17-47" transform="scale(0.996264)"/>
      <use xlink:href="#CMSS17-50" transform="translate(62.458226 0)scale(0.996264)"/>
      <use xlink:href="#CMSS17-52" transform="translate(122.193812 0)scale(0.996264)"/>
      <use xlink:href="#CMSS17-4f" transform="translate(182.609967 0)scale(0.996264)"/>
      <use xlink:href="#CMSS17-46" transform="translate(251.634222 0)scale(0.996264)"/>
      <use xlink:href="#CMSS17-2d" transform="translate(304.923781 0)scale(0.996264)"/>
      <use xlink:href="#CMSS17-4e" transform="translate(336.152894 0)scale(0.996264)"/>
      <use xlink:href="#CMSS17-4e" transform="translate(402.214413 0)scale(0.996264)"/>
      <use xlink:href="#CMSS17-33" transform="translate(499.505045 0)scale(0.996264)"/>
      <use xlink:href="#CMSS17-44" transform="translate(546.348669 0)scale(0.996264)"/>
     </g>
    </g>
   </g>
  </g>
 </g>
 <defs>
  <clipPath id="pdf6c6728bf">
   <rect x="57.603263" y="13.42665" width="338.181818" height="244.62"/>
  </clipPath>
 </defs>
</svg>
