<?xml version="1.0" encoding="UTF-8" standalone="no"?>
<!-- Created with Inkscape (http://www.inkscape.org/) -->

<svg
   version="1.1"
   id="svg12254"
   xml:space="preserve"
   width="703.41077"
   height="445.80219"
   viewBox="0 0 703.41077 445.80219"
   sodipodi:docname="spectrum.svg"
   inkscape:version="1.1.1 (3bf5ae0d25, 2021-09-20)"
   xmlns:inkscape="http://www.inkscape.org/namespaces/inkscape"
   xmlns:sodipodi="http://sodipodi.sourceforge.net/DTD/sodipodi-0.dtd"
   xmlns="http://www.w3.org/2000/svg"
   xmlns:svg="http://www.w3.org/2000/svg"><defs
     id="defs12258"><clipPath
       clipPathUnits="userSpaceOnUse"
       id="clipPath12286"><path
         d="M 0,0 H 527 V 318 H 0 Z"
         id="path12284" /></clipPath><clipPath
       clipPathUnits="userSpaceOnUse"
       id="clipPath12306"><path
         d="M 0,0 H 527 V 318 H 0 Z"
         id="path12304" /></clipPath><clipPath
       clipPathUnits="userSpaceOnUse"
       id="clipPath12338"><path
         d="M 0,0 H 527 V 318 H 0 Z"
         id="path12336" /></clipPath><clipPath
       clipPathUnits="userSpaceOnUse"
       id="clipPath12342"><path
         d="m 146.969,33.191 h 30.402 l -0.91,156.157 c -1.52,0.765 -5.258,16.332 -5.41,21.019 -1.778,8.242 -5.813,21.246 -17.117,14.231 -5.391,-2.485 -2.934,-19.364 -3.887,-29.985 -0.371,-17.152 2.98,-40.851 -0.754,-56.621 z"
         clip-rule="evenodd"
         id="path12340" /></clipPath><clipPath
       clipPathUnits="userSpaceOnUse"
       id="clipPath12346"><path
         d="m 778.88843,1236.7251 h 42.66667 v 503.691 h -42.66667 z"
         id="path12344" /></clipPath><linearGradient
       x1="778.64282"
       y1="1488.3981"
       x2="821.71429"
       y2="1488.3981"
       gradientUnits="userSpaceOnUse"
       spreadMethod="pad"
       id="linearGradient12364"><stop
         style="stop-opacity:0;stop-color:#ffffff"
         offset="0"
         id="stop12348" /><stop
         style="stop-opacity:1;stop-color:#ffffff"
         offset="0.0795192"
         id="stop12350" /><stop
         style="stop-opacity:1;stop-color:#ffffff"
         offset="0.26078"
         id="stop12352" /><stop
         style="stop-opacity:1;stop-color:#ffffff"
         offset="0.435531"
         id="stop12354" /><stop
         style="stop-opacity:1;stop-color:#ffffff"
         offset="0.597534"
         id="stop12356" /><stop
         style="stop-opacity:1;stop-color:#ffffff"
         offset="0.755234"
         id="stop12358" /><stop
         style="stop-opacity:1;stop-color:#ffffff"
         offset="0.912858"
         id="stop12360" /><stop
         style="stop-opacity:0;stop-color:#ffffff"
         offset="1"
         id="stop12362" /></linearGradient><mask
       maskUnits="userSpaceOnUse"
       x="0"
       y="0"
       width="1"
       height="1"
       id="mask12366"><g
         id="g12372"><g
           clip-path="url(#clipPath12346)"
           id="g12370"><path
             d="m 778.88843,1236.7251 h 42.66667 v 503.691 h -42.66667 z"
             style="fill:url(#linearGradient12364);stroke:none"
             id="path12368" /></g></g></mask><linearGradient
       x1="778.64282"
       y1="1488.3981"
       x2="821.71429"
       y2="1488.3981"
       gradientUnits="userSpaceOnUse"
       spreadMethod="pad"
       id="linearGradient12390"><stop
         style="stop-opacity:1;stop-color:#ce519f"
         offset="0"
         id="stop12374" /><stop
         style="stop-opacity:1;stop-color:#ce519f"
         offset="0.0795192"
         id="stop12376" /><stop
         style="stop-opacity:1;stop-color:#2a3382"
         offset="0.26078"
         id="stop12378" /><stop
         style="stop-opacity:1;stop-color:#66cbd7"
         offset="0.435531"
         id="stop12380" /><stop
         style="stop-opacity:1;stop-color:#1ab24e"
         offset="0.597534"
         id="stop12382" /><stop
         style="stop-opacity:1;stop-color:#f8ea29"
         offset="0.755234"
         id="stop12384" /><stop
         style="stop-opacity:1;stop-color:#e3281f"
         offset="0.912858"
         id="stop12386" /><stop
         style="stop-opacity:1;stop-color:#e3281f"
         offset="1"
         id="stop12388" /></linearGradient></defs><sodipodi:namedview
     id="namedview12256"
     pagecolor="#ffffff"
     bordercolor="#666666"
     borderopacity="1.0"
     inkscape:pageshadow="2"
     inkscape:pageopacity="0.0"
     inkscape:pagecheckerboard="0"
     showgrid="false"
     fit-margin-top="0"
     fit-margin-left="0"
     fit-margin-right="0"
     fit-margin-bottom="0"
     inkscape:zoom="0.90585708"
     inkscape:cx="385.82245"
     inkscape:cy="274.8778"
     inkscape:window-width="1900"
     inkscape:window-height="989"
     inkscape:window-x="1928"
     inkscape:window-y="62"
     inkscape:window-maximized="1"
     inkscape:current-layer="g12262" /><g
     id="g12260"
     inkscape:groupmode="layer"
     inkscape:label="spectrum"
     transform="matrix(1.3333333,0,0,1.3333333,3.7499999e-6,-4.2838134e-6)"><g
       id="g12262"><g
         id="g12264"><path
           d="m 415.305,31.859 c 0,209.141 1.14,209.161 1.14,209.161"
           style="fill:none;stroke:#ffffff;stroke-width:1.49953;stroke-linecap:butt;stroke-linejoin:miter;stroke-miterlimit:4;stroke-dasharray:4.49858, 1.49953;stroke-dashoffset:0;stroke-opacity:1"
           id="path12266" /></g><g
         id="g12268"><path
           d="m 399.508,32.457 c 0,209.141 1.137,209.16 1.137,209.16"
           style="fill:none;stroke:#ffffff;stroke-width:1.49953;stroke-linecap:butt;stroke-linejoin:miter;stroke-miterlimit:4;stroke-dasharray:4.49858, 1.49953;stroke-dashoffset:0;stroke-opacity:1"
           id="path12270" /></g><g
         id="g12272"><path
           d="m 379.617,32.285 c 0,209.137 1.141,209.156 1.141,209.156"
           style="fill:none;stroke:#ffffff;stroke-width:1.49953;stroke-linecap:butt;stroke-linejoin:miter;stroke-miterlimit:4;stroke-dasharray:4.49858, 1.49953;stroke-dashoffset:0;stroke-opacity:1"
           id="path12274" /></g><g
         id="g12276"><path
           d="m 389.188,32.398 c 0,209.137 1.14,209.157 1.14,209.157"
           style="fill:none;stroke:#ffffff;stroke-width:1.49953;stroke-linecap:butt;stroke-linejoin:miter;stroke-miterlimit:4;stroke-dasharray:4.49858, 1.49953;stroke-dashoffset:0;stroke-opacity:1"
           id="path12278" /></g><g
         id="g12280"
         style="fill:#999999;stroke:none;stroke-width:0.995921"
         transform="matrix(1,0,0,1.0082089,0,-0.26252166)"><g
           id="g12282"
           style="fill:#999999;stroke:none;stroke-width:0.991858" /><g
           id="g12298"
           style="fill:#999999;stroke:none;stroke-width:0.991858"><g
             clip-path="url(#clipPath12286)"
             opacity="0.508"
             id="g12296"
             style="fill:#999999;stroke:none;stroke-width:0.987812"><g
               id="g12294"
               style="fill:#999999;stroke:none;stroke-width:0.995921"><g
                 id="g12290"
                 style="fill:#999999;stroke:none;stroke-width:0.995921"><path
                   d="m 432.195,31.98 h 94.094 v 208.535 h -94.094 z"
                   style="fill:#999999;stroke:none;stroke-width:1.28368;stroke-linecap:round;stroke-linejoin:round;stroke-miterlimit:4;stroke-dasharray:none;stroke-opacity:0.968326"
                   id="path12288" /></g><path
                 d="m 432.195,31.98 h 94.094 v 208.535 h -94.094 z"
                 style="fill:#999999;fill-opacity:1;fill-rule:nonzero;stroke:none;stroke-width:0.995921"
                 id="path12292" /></g></g></g></g><g
         id="g12300"
         style="fill:#999999;stroke:none;stroke-width:0.993025"
         transform="matrix(1.0053395,0,0,1.0087116,-1.4759249,-1.4040045)"><g
           id="g12302"
           style="fill:#999999;stroke:none;stroke-width:0.993025" /><g
           id="g12318"
           style="fill:#999999;stroke:none;stroke-width:0.993025"><g
             clip-path="url(#clipPath12306)"
             opacity="0.508"
             id="g12316"
             style="fill:#999999;stroke:none;stroke-width:0.987751"><g
               id="g12314"
               style="fill:#999999;stroke:none;stroke-width:0.993025"><g
                 id="g12310"
                 style="fill:#999999;stroke:none;stroke-width:0.993025"><path
                   d="M 148.441,33.969 H 276.414 V 241.492 H 148.441 Z"
                   style="fill:#999999;stroke:none;stroke-width:1.48907;stroke-linecap:round;stroke-linejoin:round;stroke-miterlimit:4;stroke-dasharray:none;stroke-opacity:0.968326"
                   id="path12308" /></g><path
                 d="M 148.441,33.969 H 276.414 V 241.492 H 148.441 Z"
                 style="fill:#999999;fill-opacity:1;fill-rule:nonzero;stroke:none;stroke-width:0.993025"
                 id="path12312" /></g></g></g></g><g
         id="g12320"
         style="stroke-width:0.45;stroke-miterlimit:4;stroke-dasharray:none"><path
           d="M 106.227,242.32 H 92.699"
           style="fill:none;stroke:#000000;stroke-width:0.45;stroke-linecap:butt;stroke-linejoin:round;stroke-miterlimit:4;stroke-dasharray:none;stroke-opacity:1"
           id="path12322" /></g><g
         id="g12324"
         style="stroke-width:0.45;stroke-miterlimit:4;stroke-dasharray:none"><path
           d="M 107.727,33.07 H 94.199"
           style="fill:none;stroke:#000000;stroke-width:0.45;stroke-linecap:butt;stroke-linejoin:round;stroke-miterlimit:4;stroke-dasharray:none;stroke-opacity:1"
           id="path12326" /></g><g
         id="g12328"
         style="stroke-width:0.45;stroke-miterlimit:4;stroke-dasharray:none"><path
           d="M 106.977,138.07 H 93.449"
           style="fill:none;stroke:#000000;stroke-width:0.45;stroke-linecap:butt;stroke-linejoin:round;stroke-miterlimit:4;stroke-dasharray:none;stroke-opacity:1"
           id="path12330" /></g><g
         id="g12332"><g
           id="g12334" /><g
           id="g12408"><g
             clip-path="url(#clipPath12338)"
             opacity="0.508"
             id="g12406"><g
               id="g12404"><g
                 id="g12402"><g
                   clip-path="url(#clipPath12342)"
                   id="g12400"><g
                     transform="matrix(0.75,0,0,0.385157,-438.16632,-443.33305)"
                     id="g12398"><g
                       id="g12392" /><g
                       mask="url(#mask12366)"
                       id="g12396"><path
                         d="m 146.969,33.191 h 30.402 l -0.91,156.157 c -1.52,0.765 -5.258,16.332 -5.41,21.019 -1.778,8.242 -5.813,21.246 -17.117,14.231 -5.391,-2.485 -2.934,-19.364 -3.887,-29.985 -0.371,-17.152 2.98,-40.851 -0.754,-56.621 z"
                         style="fill:url(#linearGradient12390);fill-rule:evenodd;stroke:none"
                         id="path12394" /></g></g></g></g></g></g></g></g><g
         id="g12410"><path
           d="m 526.227,242.32 -4.77,-0.547 c -8.371,-10.027 -12.875,-23.777 -18.211,-36.726 -5.894,-11.789 -2.203,-60.695 -2.68,-64.945 -3.05,-26.625 -7.289,-29.356 -16.07,0.386 -5.144,13.266 -8.484,2.649 -9.215,-14.699 -0.812,-19.293 1.223,-46.949 -0.429,-60.301 -3.305,-24.918 -20.934,-6.32 -26.25,37.887 -1.5,11.434 -5.293,16.133 -5.895,0 -1.223,-38.73 -8.598,-70.363 -24.105,-70.363 l -98.036,-0.387 c -11.55,0 -13.941,2.738 -19.257,20.234 -3.301,10.856 -9.575,35.996 -10.61,45.489 -0.851,8.769 -3.183,16.054 -4.418,2.32 -0.976,-12.039 -0.254,-25.02 -2.812,-36.148 -1.805,-12.786 -3.422,-11.239 -4.153,1.742 l -4.554,95.488 c -0.051,50.008 -14.282,47.906 -24.508,44.844 -2.234,-43.426 -1.117,-87.629 -1.742,-131.055 0.23,-6.543 -2.321,-23.727 -6.028,-0.387 -2.285,24.743 -4.093,49.485 -8.703,74.227 -1.504,7.809 -4.304,20.941 -5.09,2.707 -0.359,-25.258 -2.285,-50.516 -4.019,-75.774 -1.035,-13.867 -3.527,-7.289 -4.82,-3.093 -1.497,7.437 -3.028,14.797 -3.481,24.742 l -3.484,102.254 c -1.696,-43.125 -2.836,-86.07 -3.481,-129.703 -0.461,-13.258 -3.472,-15.246 -4.824,-0.774 -2.445,40.723 -3.73,81.446 -7.766,122.168 l -5.757,-41.562 c -2.676,18.308 -9.262,86.894 -12.457,49.293 -1.028,-14.36 -3.79,-19.246 -8.84,11.597 -2.45,22.68 -19.567,19.477 -19.285,-2.898 0.433,-38.953 -1.258,-84.465 -1.301,-108.449 -0.102,-52.891 -17.383,-68.16 -28.969,-67.067 l -13.566,0.028"
           style="fill:none;stroke:#2b0000;stroke-width:1.5;stroke-linecap:round;stroke-linejoin:round;stroke-miterlimit:4;stroke-dasharray:none;stroke-opacity:1"
           id="path12412" /></g><g
         id="g12414"
         style="stroke-width:0.45;stroke-miterlimit:4;stroke-dasharray:none"><path
           d="M 106.641,256.699 V 242.008"
           style="fill:none;stroke:#000000;stroke-width:0.45;stroke-linecap:butt;stroke-linejoin:round;stroke-miterlimit:4;stroke-dasharray:none;stroke-opacity:1"
           id="path12416" /></g><g
         id="g12418"
         style="stroke-width:0.45;stroke-miterlimit:4;stroke-dasharray:none"><path
           d="M 182.309,256.699 V 242.008"
           style="fill:none;stroke:#000000;stroke-width:0.45;stroke-linecap:butt;stroke-linejoin:round;stroke-miterlimit:4;stroke-dasharray:none;stroke-opacity:1"
           id="path12420" /></g><g
         id="g12422"
         style="stroke-width:0.45;stroke-miterlimit:4;stroke-dasharray:none"><path
           d="M 257.219,256.699 V 242.008"
           style="fill:none;stroke:#000000;stroke-width:0.45;stroke-linecap:butt;stroke-linejoin:round;stroke-miterlimit:4;stroke-dasharray:none;stroke-opacity:1"
           id="path12424" /></g><g
         id="g12426"
         style="stroke-width:0.45;stroke-miterlimit:4;stroke-dasharray:none"><path
           d="M 331.656,256.699 V 242.008"
           style="fill:none;stroke:#000000;stroke-width:0.45;stroke-linecap:butt;stroke-linejoin:round;stroke-miterlimit:4;stroke-dasharray:none;stroke-opacity:1"
           id="path12428" /></g><g
         id="g12430"
         style="stroke-width:0.45;stroke-miterlimit:4;stroke-dasharray:none"><path
           d="M 406.562,256.699 V 242.008"
           style="fill:none;stroke:#000000;stroke-width:0.45;stroke-linecap:butt;stroke-linejoin:round;stroke-miterlimit:4;stroke-dasharray:none;stroke-opacity:1"
           id="path12432" /></g><text
         transform="translate(58.939051,247.76871)"
         style="font-variant:normal;font-weight:normal;font-size:16.5px;font-family:'DejaVu Sans';-inkscape-font-specification:DejaVuSans;writing-mode:lr-tb;fill:#000000;fill-opacity:1;fill-rule:nonzero;stroke:none"
         id="text12440"><tspan
           x="0 10.494 15.7245"
           y="0"
           sodipodi:role="line"
           id="tspan12434">0 %</tspan><tspan
           x="-10.505863 -0.0118635 10.482137 15.712637"
           y="-103.67983"
           sodipodi:role="line"
           id="tspan12436">50 %</tspan><tspan
           x="-21.011726 -10.517727 -0.023727 10.470273 15.700773"
           y="-208.26912"
           sodipodi:role="line"
           id="tspan12438">100 %</tspan></text><text
         transform="translate(80.856909,271.86968)"
         style="font-variant:normal;font-weight:normal;font-size:13.5px;font-family:'DejaVu Sans';-inkscape-font-specification:DejaVuSans;writing-mode:lr-tb;fill:#000000;fill-opacity:1;fill-rule:nonzero;stroke:none"
         id="text12444"><tspan
           x="0 8.5859995 17.171999 25.757998 30.037498 38.623497 84.037491 92.623489 96.902992 105.48899 155.20949 163.79549 172.38148 176.66098 185.24698 225.00449 233.59048 242.17648 250.76248 255.04198 263.66849 305.86948 314.45547 318.73499 331.88397 384.07562 392.66162 396.94113 404.35263"
           y="0"
           sodipodi:role="line"
           id="tspan12442"
           style="font-style:normal;font-variant:normal;font-weight:normal;font-stretch:normal;font-family:'Liberation Sans';-inkscape-font-specification:'Liberation Sans'">100 nm1 µm10 µm100 µm1 mm1 cm</tspan></text><text
         style="font-variant:normal;font-weight:normal;font-size:16.5px;font-family:'DejaVu Sans';-inkscape-font-specification:DejaVuSans;writing-mode:lr-tb;fill:#000000;fill-opacity:1;fill-rule:nonzero;stroke:none"
         id="text12448"
         x="268.27347"
         y="294.17728"><tspan
           x="268.27347 283.50296 293.60095 303.35245 313.49997 318.07047 328.21796 338.66245 349.12344 355.59146"
           y="294.17728"
           sodipodi:role="line"
           id="tspan12446">Wavelength</tspan></text><text
         style="font-variant:normal;font-weight:normal;font-size:14px;font-family:'DejaVu Sans';-inkscape-font-specification:DejaVuSans;writing-mode:lr-tb;fill:#000000;fill-opacity:1;fill-rule:nonzero;stroke:none"
         id="text12448-3"
         x="147.55504"
         y="334.15341"><tspan
           sodipodi:role="line"
           id="tspan12446-9"
           x="147.55504"
           y="334.15341"
           style="font-size:14px">VIS</tspan></text><text
         style="font-variant:normal;font-weight:normal;font-size:14px;font-family:'DejaVu Sans';-inkscape-font-specification:DejaVuSans;writing-mode:lr-tb;fill:#000000;fill-opacity:1;fill-rule:nonzero;stroke:none"
         id="text12448-3-4"
         x="176.91507"
         y="334.16025"><tspan
           sodipodi:role="line"
           id="tspan12446-9-8"
           x="176.91507"
           y="334.16025"
           style="font-size:14px">NIR</tspan></text><text
         style="font-variant:normal;font-weight:normal;font-size:14px;font-family:'DejaVu Sans';-inkscape-font-specification:DejaVuSans;writing-mode:lr-tb;fill:#000000;fill-opacity:1;fill-rule:nonzero;stroke:none"
         id="text12448-3-4-1"
         x="231.45085"
         y="334.16025"><tspan
           sodipodi:role="line"
           id="tspan12446-9-8-2"
           x="231.45085"
           y="334.16025"
           style="font-size:14px">FIR</tspan></text><text
         transform="rotate(-90,100.69504,88.15891)"
         style="font-variant:normal;font-weight:normal;font-size:16.5px;font-family:'DejaVu Sans';-inkscape-font-specification:DejaVuSans;writing-mode:lr-tb;fill:#000000;fill-opacity:1;fill-rule:nonzero;stroke:none"
         id="text12454"><tspan
           x="0 10.989 17.457001 33.528 43.609501 52.189499 62.650501 73.095001 83.2425 90.073502 94.643997"
           y="0"
           sodipodi:role="line"
           id="tspan12450">Atmospheric</tspan><tspan
           x="21.607904 31.689405 42.150406 52.248405 61.306904 65.877403 72.345406"
           y="16.5"
           sodipodi:role="line"
           id="tspan12452">opacity</tspan></text><g
         id="g12456"
         transform="scale(1,-1)"
         style="stroke-width:0.45;stroke-miterlimit:4;stroke-dasharray:none"><path
           d="M 106.641,-18.156 V -32.848"
           style="fill:none;stroke:#000000;stroke-width:0.45;stroke-linecap:butt;stroke-linejoin:round;stroke-miterlimit:4;stroke-dasharray:none;stroke-opacity:1"
           id="path12458" /></g><g
         id="g12460"
         transform="scale(1,-1)"
         style="stroke-width:0.45;stroke-miterlimit:4;stroke-dasharray:none"><path
           d="M 181.172,-18.156 V -32.848"
           style="fill:none;stroke:#000000;stroke-width:0.45;stroke-linecap:butt;stroke-linejoin:round;stroke-miterlimit:4;stroke-dasharray:none;stroke-opacity:1"
           id="path12462" /></g><g
         id="g12464"
         transform="scale(1,-1)"
         style="stroke-width:0.45;stroke-miterlimit:4;stroke-dasharray:none"><path
           d="M 256.078,-18.156 V -32.848"
           style="fill:none;stroke:#000000;stroke-width:0.45;stroke-linecap:butt;stroke-linejoin:round;stroke-miterlimit:4;stroke-dasharray:none;stroke-opacity:1"
           id="path12466" /></g><g
         id="g12468"
         transform="scale(1,-1)"
         style="stroke-width:0.45;stroke-miterlimit:4;stroke-dasharray:none"><path
           d="M 330.516,-18.156 V -32.848"
           style="fill:none;stroke:#000000;stroke-width:0.45;stroke-linecap:butt;stroke-linejoin:round;stroke-miterlimit:4;stroke-dasharray:none;stroke-opacity:1"
           id="path12470" /></g><g
         id="g12472"
         transform="scale(1,-1)"
         style="stroke-width:0.45;stroke-miterlimit:4;stroke-dasharray:none"><path
           d="M 405.426,-18.156 V -32.848"
           style="fill:none;stroke:#000000;stroke-width:0.45;stroke-linecap:butt;stroke-linejoin:round;stroke-miterlimit:4;stroke-dasharray:none;stroke-opacity:1"
           id="path12474" /></g><g
         id="g12476"
         transform="scale(1,-1)"
         style="stroke-width:0.45;stroke-miterlimit:4;stroke-dasharray:none"><path
           d="M 480.238,-18.156 V -32.848"
           style="fill:none;stroke:#000000;stroke-width:0.45;stroke-linecap:butt;stroke-linejoin:round;stroke-miterlimit:4;stroke-dasharray:none;stroke-opacity:1"
           id="path12478" /></g><text
         transform="translate(86.480694,12.814453)"
         style="font-variant:normal;font-weight:normal;font-size:13.5px;font-family:'DejaVu Sans';-inkscape-font-specification:DejaVuSans;writing-mode:lr-tb;fill:#000000;fill-opacity:1;fill-rule:nonzero;stroke:none"
         id="text12490"><tspan
           x="0 8.5860004 12.8655 21.006001 31.144501"
           y="0"
           sodipodi:role="line"
           id="tspan12480">3 PHz</tspan><tspan
           x="66.837837 75.423836 84.009842 92.59584 96.875336 105.11034 115.24884"
           y="-2.7949185"
           sodipodi:role="line"
           id="tspan12482">300 THz</tspan><tspan
           x="146.62184 155.20784 163.79384 168.07333 176.30833 186.44684 224.98933 233.57533 237.85484 246.08984 256.22833"
           y="-2.6169398"
           sodipodi:role="line"
           id="tspan12484">30 THz3 THz</tspan><tspan
           x="289.91525 298.50125 307.08725 315.67325 319.95273 330.40173 340.54025"
           y="0.0131841"
           sodipodi:role="line"
           id="tspan12486">300 GHz</tspan><tspan
           x="369.45508 378.04108 386.62708 390.90656 401.35556 411.49408"
           y="-0.17797861"
           sodipodi:role="line"
           id="tspan12488">30 GHz</tspan></text><g
         id="g12492"
         style="stroke-width:0.45;stroke-miterlimit:4;stroke-dasharray:none"><path
           d="m 106.641,32.32 c 0,210 0,210 0,210"
           style="fill:none;stroke:#000000;stroke-width:0.45;stroke-linecap:butt;stroke-linejoin:miter;stroke-miterlimit:4;stroke-dasharray:none;stroke-opacity:1"
           id="path12494" /></g><g
         id="g12496"
         style="stroke-width:0.45;stroke-miterlimit:4;stroke-dasharray:none"><path
           d="m 106.227,242.32 c 420,0 420,0 420,0"
           style="fill:none;stroke:#000000;stroke-width:0.45;stroke-linecap:butt;stroke-linejoin:miter;stroke-miterlimit:4;stroke-dasharray:none;stroke-opacity:1"
           id="path12498" /></g><g
         id="g12500"
         transform="matrix(1,0,0,-1,0,15.570812)"
         style="fill:#3771c8;stroke:none"><path
           d="m 422.02,-194.555 c 0,7.828 -6.348,14.176 -14.172,14.176 -7.828,0 -14.176,-6.348 -14.176,-14.176 0,-7.824 6.348,-14.172 14.176,-14.172 7.824,0 14.172,6.348 14.172,14.172 z"
           style="fill:#3771c8;fill-opacity:1;fill-rule:nonzero;stroke:none;stroke-width:0.3985;stroke-linecap:butt;stroke-linejoin:miter;stroke-miterlimit:10;stroke-dasharray:none;stroke-opacity:1"
           id="path12502" /></g><g
         id="g12504"
         transform="matrix(1,0,0,-1,0,9.6413117)"
         style="fill:#3771c8;stroke:none"><path
           d="m 339.98,-200.48 c 0,4.597 -3.726,8.324 -8.324,8.324 -4.601,0 -8.328,-3.727 -8.328,-8.324 0,-4.602 3.727,-8.329 8.328,-8.329 4.598,0 8.324,3.727 8.324,8.329 z"
           style="fill:#3771c8;fill-opacity:1;fill-rule:nonzero;stroke:none;stroke-width:0.39675;stroke-linecap:butt;stroke-linejoin:miter;stroke-miterlimit:10;stroke-dasharray:none;stroke-opacity:1"
           id="path12506" /></g><g
         id="g73556"
         transform="translate(0,-0.5505)"><g
           id="g12508"
           transform="matrix(1,0,0,-1,0,9.6413117)"
           style="fill:#3771c8;stroke:none"><path
             d="m 258.043,-197.074 c 0,1.234 -1,2.234 -2.238,2.234 -1.235,0 -2.235,-1 -2.235,-2.234 0,-1.235 1,-2.235 2.235,-2.235 1.238,0 2.238,1 2.238,2.235 z"
             style="fill:#3771c8;fill-opacity:1;fill-rule:nonzero;stroke:none;stroke-width:0.39675;stroke-linecap:butt;stroke-linejoin:miter;stroke-miterlimit:10;stroke-dasharray:none;stroke-opacity:1"
             id="path12510" /></g><g
           id="g12512"
           transform="matrix(1,0,0,-1,0,9.6413117)"
           style="fill:#3771c8;stroke:none"><path
             d="m 263.723,-206.711 c 0,1.238 -1,2.238 -2.235,2.238 -1.234,0 -2.234,-1 -2.234,-2.238 0,-1.234 1,-2.234 2.234,-2.234 1.235,0 2.235,1 2.235,2.234 z"
             style="fill:#3771c8;fill-opacity:1;fill-rule:nonzero;stroke:none;stroke-width:0.39675;stroke-linecap:butt;stroke-linejoin:miter;stroke-miterlimit:10;stroke-dasharray:none;stroke-opacity:1"
             id="path12514" /></g><g
           id="g12516"
           transform="matrix(1,0,0,-1,0,9.6413117)"
           style="fill:#3771c8;stroke:none"><path
             d="m 253.324,-206.594 c 0,1.235 -1,2.235 -2.234,2.235 -1.235,0 -2.235,-1 -2.235,-2.235 0,-1.234 1,-2.238 2.235,-2.238 1.234,0 2.234,1.004 2.234,2.238 z"
             style="fill:#3771c8;fill-opacity:1;fill-rule:nonzero;stroke:none;stroke-width:0.39675;stroke-linecap:butt;stroke-linejoin:miter;stroke-miterlimit:10;stroke-dasharray:none;stroke-opacity:1"
             id="path12518" /></g><g
           id="g12520"
           transform="matrix(1,0,0,-1,0,9.6413117)"
           style="fill:#3771c8;stroke:none"><path
             d="m 265.586,-195.359 c 0,1.238 -1.004,2.238 -2.238,2.238 -1.235,0 -2.235,-1 -2.235,-2.238 0,-1.235 1,-2.235 2.235,-2.235 1.234,0 2.238,1 2.238,2.235 z"
             style="fill:#3771c8;fill-opacity:1;fill-rule:nonzero;stroke:none;stroke-width:0.39675;stroke-linecap:butt;stroke-linejoin:miter;stroke-miterlimit:10;stroke-dasharray:none;stroke-opacity:1"
             id="path12522" /></g></g><g
         id="g73581"
         transform="translate(0,18.764969)"><g
           id="g12524"
           transform="matrix(1,0.267949,0.267949,-1,0,0)"><path
             d="m 353.175,-24.883 -5.339,-5.016 v 5.144 l 5.34,5.017 z"
             style="fill:#b3b3b3;fill-opacity:1;fill-rule:nonzero;stroke:#000000;stroke-width:0.384921;stroke-linecap:butt;stroke-linejoin:miter;stroke-miterlimit:10;stroke-dasharray:none;stroke-opacity:1"
             id="path12526" /></g><g
           id="g12528"
           transform="matrix(1,0.267949,0.267949,-1,0,0)"><path
             d="m 347.836,-29.899 -15.369,-0.927 v 5.145 l 15.369,0.926 z"
             style="fill:#e6e6e6;fill-opacity:1;fill-rule:nonzero;stroke:#000000;stroke-width:0.384921;stroke-linecap:butt;stroke-linejoin:miter;stroke-miterlimit:10;stroke-dasharray:none;stroke-opacity:1"
             id="path12530" /></g><g
           id="g12532"
           transform="matrix(1,0.267949,0.267949,-1,0,0)"><path
             d="m 332.467,-30.826 -10.033,4.089 v 5.145 l 10.033,-4.089 z"
             style="fill:#f2f2f2;fill-opacity:1;fill-rule:nonzero;stroke:#000000;stroke-width:0.384921;stroke-linecap:butt;stroke-linejoin:miter;stroke-miterlimit:10;stroke-dasharray:none;stroke-opacity:1"
             id="path12534" /></g><g
           id="g12540"
           transform="matrix(1,0.267949,0.267949,-1,0,0)"><path
             d="m 354.027,-76.041 -1.871,-1.763 -0.001,25.472 1.871,1.763 z"
             style="fill:#b3b3b3;fill-opacity:1;fill-rule:nonzero;stroke:#000000;stroke-width:0.384921;stroke-linecap:butt;stroke-linejoin:miter;stroke-miterlimit:10;stroke-dasharray:none;stroke-opacity:1"
             id="path12542" /></g><g
           id="g12544"
           transform="matrix(1,0.267949,0.267949,-1,0,0)"><path
             d="m 352.156,-77.804 -5.393,-0.324 -0.002,25.472 5.394,0.324 z"
             style="fill:#e6e6e6;fill-opacity:1;fill-rule:nonzero;stroke:#000000;stroke-width:0.384921;stroke-linecap:butt;stroke-linejoin:miter;stroke-miterlimit:10;stroke-dasharray:none;stroke-opacity:1"
             id="path12546" /></g><g
           id="g73562"><g
             id="g12536"
             transform="matrix(1,0.267949,0.267949,-1,0,0)"><path
               d="m 332.467,-25.681 -10.033,4.089 5.336,5.015 15.372,0.928 10.034,-4.089 -5.34,-5.017 z"
               style="fill:#ececec;fill-opacity:1;fill-rule:nonzero;stroke:#000000;stroke-width:0.384921;stroke-linecap:butt;stroke-linejoin:miter;stroke-miterlimit:10;stroke-dasharray:none;stroke-opacity:1"
               id="path12538" /></g><g
             id="g12548"
             transform="matrix(1,0.267949,0.267949,-1,0,0)"><path
               d="m 346.763,-78.128 -3.522,1.435 -10e-4,25.472 3.521,-1.435 z"
               style="fill:#f2f2f2;fill-opacity:1;fill-rule:nonzero;stroke:#000000;stroke-width:0.384921;stroke-linecap:butt;stroke-linejoin:miter;stroke-miterlimit:10;stroke-dasharray:none;stroke-opacity:1"
               id="path12550" /></g></g><g
           id="g12552"
           transform="matrix(1,0.267949,0.267949,-1,0,0)"><path
             d="m 346.761,-52.656 -3.521,1.435 1.876,1.761 5.39,0.323 3.52,-1.432 -1.871,-1.763 z"
             style="fill:#ececec;fill-opacity:1;fill-rule:nonzero;stroke:#000000;stroke-width:0.384921;stroke-linecap:butt;stroke-linejoin:miter;stroke-miterlimit:10;stroke-dasharray:none;stroke-opacity:1"
             id="path12554" /></g></g><g
         id="g12556"
         transform="scale(1,-1)"><path
           d="m 263.953,-157.141 c 0,2.887 -2.34,5.227 -5.226,5.227 -2.887,0 -5.227,-2.34 -5.227,-5.227 0,-2.886 2.34,-5.226 5.227,-5.226 2.886,0 5.226,2.34 5.226,5.226 z"
           style="fill:#e6e6e6;fill-opacity:1;fill-rule:nonzero;stroke:#000000;stroke-width:0.39675;stroke-linecap:butt;stroke-linejoin:miter;stroke-miterlimit:10;stroke-dasharray:none;stroke-opacity:1"
           id="path12558" /></g><g
         id="g12560"
         style="stroke-width:0.45;stroke-miterlimit:4;stroke-dasharray:none"><path
           d="M 481.379,256.699 V 242.008"
           style="fill:none;stroke:#000000;stroke-width:0.45;stroke-linecap:butt;stroke-linejoin:round;stroke-miterlimit:4;stroke-dasharray:none;stroke-opacity:1"
           id="path12562" /></g><g
         id="g12564"
         transform="scale(1,-1)"><path
           d="m 502.332,-157.141 c 0,12.688 -10.285,22.969 -22.969,22.969 -12.687,0 -22.968,-10.281 -22.968,-22.969 0,-12.683 10.281,-22.968 22.968,-22.968 12.684,0 22.969,10.285 22.969,22.968 z"
           style="fill:#e6e6e6;fill-opacity:1;fill-rule:nonzero;stroke:#000000;stroke-width:0.645807;stroke-linecap:butt;stroke-linejoin:miter;stroke-miterlimit:10;stroke-dasharray:none;stroke-opacity:1"
           id="path12566" /></g><g
         id="g12568"
         transform="translate(0,20.797)"><path
           d="m 430.379,134.98 h -3.949 l 1.769,-1.769 c 0.473,-0.469 0.473,-1.231 0,-1.699 -0.469,-0.469 -1.23,-0.469 -1.699,0 l -3.469,3.468 h -5.832 l 2.594,-2.789 c 0.453,-0.484 0.426,-1.246 -0.063,-1.699 -0.199,-0.187 -0.445,-0.289 -0.695,-0.316 -0.152,-0.008 -3.449,0 -3.449,0 l 3.855,-3.856 h 4.844 c 0.664,0 1.203,-0.539 1.203,-1.203 0,-0.664 -0.539,-1.203 -1.203,-1.203 h -2.437 l 2.836,-2.836 c 0.472,-0.469 0.472,-1.23 0,-1.699 -0.469,-0.473 -1.258,-0.473 -1.727,0 l -2.895,2.867 v -2.5 c 0,-0.664 -0.539,-1.203 -1.203,-1.203 -0.664,0 -1.203,0.539 -1.203,1.203 v 4.906 l -3.984,4.012 -0.067,-3.633 c 0,-0.004 0.004,-0.011 0.004,-0.015 -0.004,-0.293 -0.109,-0.586 -0.332,-0.813 -0.461,-0.476 -1.246,-0.492 -1.722,-0.031 l -2.559,2.441 v -5.648 l 3.442,-3.414 c 0.468,-0.473 0.484,-1.235 0.015,-1.703 -0.473,-0.469 -1.254,-0.469 -1.723,0 l -1.734,1.714 v -3.91 c 0,-0.664 -0.539,-1.203 -1.203,-1.203 -0.664,0 -1.203,0.539 -1.203,1.203 v 3.91 l -1.688,-1.714 c -0.472,-0.469 -1.218,-0.469 -1.687,0 -0.473,0.468 -0.492,1.23 -0.024,1.703 l 3.399,3.414 v 5.68 l -2.594,-2.481 c -0.484,-0.457 -1.23,-0.434 -1.687,0.047 -0.172,0.184 -0.27,0.402 -0.309,0.633 -0.02,0.094 -0.031,0.191 -0.031,0.293 l -0.012,3.402 -4.027,-4 v -4.793 c 0,-0.664 -0.539,-1.203 -1.203,-1.203 -0.665,0 -1.204,0.539 -1.204,1.203 v 2.387 l -2.73,-2.754 c -0.469,-0.473 -1.215,-0.473 -1.688,0 -0.468,0.469 -0.46,1.23 0.008,1.699 l 2.844,2.836 h -2.547 c -0.668,0 -1.203,0.539 -1.203,1.203 0,0.664 0.535,1.203 1.203,1.203 h 4.953 l 3.969,3.969 -3.699,0.133 c -0.645,0.023 -1.207,0.551 -1.211,1.191 -0.004,0.016 -0.059,0.035 -0.059,0.051 0,0.004 0,0.004 0,0.004 0,0 0.055,0.004 0.055,0.004 0.008,0.301 0.156,0.598 0.387,0.828 l 2.539,2.48 h -5.571 l -3.468,-3.468 c -0.469,-0.469 -1.231,-0.469 -1.7,0 -0.472,0.468 -0.472,1.23 0,1.699 l 1.77,1.769 h -4.063 c -0.664,0 -1.199,0.54 -1.199,1.204 0,0.664 0.535,1.203 1.199,1.203 h 4.016 l -1.723,1.722 c -0.472,0.469 -0.472,1.231 0,1.7 0.235,0.234 0.543,0.351 0.848,0.351 0.309,0 0.617,-0.117 0.852,-0.351 l 3.425,-3.422 h 5.618 l -2.45,2.629 c -0.449,0.484 -0.421,1.246 0.063,1.699 0.23,0.215 0.527,0.324 0.82,0.324 0.004,0 0.008,-0.004 0.016,-0.004 0.004,0 0.008,0.004 0.012,0.004 0,0 0.003,0 0.007,0 l 3.528,-0.023 -4.028,4.031 h -4.906 c -0.668,0 -1.203,0.539 -1.203,1.203 0,0.664 0.535,1.203 1.203,1.203 h 2.5 l -2.789,2.789 c -0.473,0.469 -0.473,1.231 0,1.699 0.234,0.235 0.543,0.356 0.848,0.356 0.308,0 0.59,-0.121 0.824,-0.356 l 2.73,-2.753 v 2.433 c 0,0.664 0.539,1.203 1.204,1.203 0.664,0 1.203,-0.539 1.203,-1.203 v -4.84 l 4.082,-4.054 0.156,3.91 c 0.023,0.648 0.562,1.172 1.207,1.16 0.219,-0.004 0.457,-0.074 0.691,-0.246 0.172,-0.125 2.524,-2.539 2.524,-2.539 v 5.676 l -3.363,3.39 c -0.469,0.469 -0.457,1.231 0.011,1.699 0.239,0.239 0.551,0.356 0.86,0.356 0.308,0 0.59,-0.117 0.828,-0.356 l 1.664,-1.687 v 3.945 c 0,0.664 0.539,1.203 1.203,1.203 0.664,0 1.203,-0.539 1.203,-1.203 v -4.058 l 1.828,1.8 c 0.235,0.239 0.555,0.356 0.864,0.356 0.308,0 0.624,-0.117 0.859,-0.356 0.469,-0.468 0.445,-1.23 -0.024,-1.699 l -3.527,-3.504 v -5.722 c 0,0 2.199,2.066 2.547,2.398 0.348,0.336 0.633,0.523 1.047,0.523 0.004,0 0.008,0 0.008,0 0.664,0 1.199,-0.578 1.195,-1.242 l -0.047,-3.801 3.91,3.938 v 4.953 c 0,0.664 0.539,1.203 1.203,1.203 0.664,0 1.203,-0.539 1.203,-1.203 v -2.547 l 2.895,2.867 c 0.234,0.235 0.559,0.356 0.863,0.356 0.309,0 0.625,-0.121 0.86,-0.356 0.468,-0.468 0.472,-1.23 0.004,-1.699 l -2.789,-2.789 h 2.39 c 0.664,0 1.203,-0.539 1.203,-1.203 0,-0.664 -0.539,-1.203 -1.203,-1.203 h -4.797 l -4.125,-4.129 3.696,-0.133 c 0.015,0 0.027,-0.004 0.039,-0.004 0.004,0 0.011,0 0.015,0 0.637,-0.051 1.129,-0.597 1.106,-1.242 -0.016,-0.387 -0.211,-0.727 -0.508,-0.937 l -2.223,-2.215 h 5.59 l 3.422,3.422 c 0.234,0.234 0.543,0.351 0.852,0.351 0.304,0 0.613,-0.117 0.847,-0.351 0.473,-0.469 0.473,-1.231 0,-1.7 l -1.722,-1.722 h 3.902 c 0.664,0 1.203,-0.539 1.203,-1.203 0,-0.664 -0.539,-1.204 -1.203,-1.204 z m -14.227,-2.406 -2.242,2.406 h -3.125 l 2.403,-2.406 z m -4.906,-4.765 0.059,3.207 -2.309,2.296 v -3.359 z m -6.887,0.015 2.231,2.137 v 3.238 l -2.235,-2.246 z m -4.875,4.903 3.168,-0.114 2.371,2.367 h -3.257 z m 0.063,6.902 2.086,-2.242 h 3.344 l -2.223,2.218 z m 4.91,5.148 -0.137,-3.371 2.27,-2.285 v 3.465 z m 6.887,-0.05 -2.348,-2.165 v -3.554 l 2.316,2.301 z m 4.84,-5.247 -3.145,0.114 -2.211,-2.207 h 3.258 z"
           style="fill:#e6e6e6;fill-opacity:1;fill-rule:nonzero;stroke:#000000;stroke-width:0.39675;stroke-linecap:butt;stroke-linejoin:miter;stroke-miterlimit:10;stroke-dasharray:none;stroke-opacity:1"
           id="path12570" /></g><path
         style="fill:none;stroke:#000000;stroke-width:0.75px;stroke-linecap:butt;stroke-linejoin:miter;stroke-opacity:1"
         d="m 147.67934,304.80781 v 12.00756 h 21.67424 v -11.95859"
         id="path57870" /><path
         style="fill:none;stroke:#000000;stroke-width:0.749999px;stroke-linecap:butt;stroke-linejoin:miter;stroke-opacity:1"
         d="m 169.35358,304.80781 v 12.00756 h 40.42279 v -11.95859"
         id="path57870-6" /><path
         style="fill:none;stroke:#000000;stroke-width:0.749999px;stroke-linecap:butt;stroke-linejoin:miter;stroke-opacity:1"
         d="m 209.77638,304.80781 v 12.00756 h 66.22882 v -11.95859"
         id="path57870-6-5" /><path
         style="fill:none;stroke:#000000;stroke-width:0.749999px;stroke-linecap:butt;stroke-linejoin:miter;stroke-opacity:1"
         d="m 432.4164,304.80781 v 12.00756 h 94.76669 v -11.95859"
         id="path57870-6-5-6" /><text
         xml:space="preserve"
         style="font-size:14px;line-height:1.25;font-family:sans-serif;-inkscape-font-specification:sans-serif;letter-spacing:0px;word-spacing:0px;stroke-width:0.75"
         x="466.3808"
         y="334.16025"
         id="text63199"><tspan
           sodipodi:role="line"
           id="tspan63197"
           style="font-size:14px;stroke-width:0.75"
           x="466.3808"
           y="334.16025">MW</tspan></text></g></g></svg>
